<mxfile host="app.diagrams.net" modified="2020-03-26T13:59:37.520Z" agent="Mozilla/5.0 (Macintosh; Intel Mac OS X 10_15_3) AppleWebKit/537.36 (KHTML, like Gecko) Chrome/80.0.3987.132 Safari/537.36" etag="pQ3f1sXAd0HKCON88j7O" version="12.8.5" type="github" pages="15">
  <diagram id="zi39Hy9YXCukWC1TrHvk" name="第 1 页">
    <mxGraphModel dx="1774" dy="648" grid="1" gridSize="10" guides="1" tooltips="1" connect="1" arrows="1" fold="1" page="1" pageScale="1" pageWidth="827" pageHeight="1169" math="0" shadow="0">
      <root>
        <mxCell id="0" />
        <mxCell id="1" parent="0" />
        <mxCell id="kVFWU_rXPY8WBo6nPkye-1" value="&lt;font style=&quot;font-size: 40px&quot;&gt;&lt;b style=&quot;font-size: 40px&quot;&gt;错误码：DE 0 5 9 9999 999&lt;/b&gt;&lt;/font&gt;" style="text;html=1;strokeColor=none;fillColor=none;align=center;verticalAlign=middle;whiteSpace=wrap;rounded=0;horizontal=1;fontSize=40;" parent="1" vertex="1">
          <mxGeometry x="-450" y="40" width="930" height="120" as="geometry" />
        </mxCell>
        <mxCell id="kVFWU_rXPY8WBo6nPkye-3" value="默认DE&lt;br&gt;&lt;span style=&quot;text-align: left ; white-space: nowrap&quot;&gt;errorPrefix&lt;br&gt;&lt;/span&gt;错误前缀&lt;span style=&quot;text-align: left ; white-space: nowrap&quot;&gt;&lt;br&gt;&lt;/span&gt;" style="text;html=1;strokeColor=none;fillColor=none;align=center;verticalAlign=middle;whiteSpace=wrap;rounded=0;fontSize=40;" parent="1" vertex="1">
          <mxGeometry x="-430" y="230" width="347.5" height="190" as="geometry" />
        </mxCell>
        <mxCell id="kVFWU_rXPY8WBo6nPkye-5" value="默认0&lt;br&gt;version&lt;br&gt;规范版本&lt;span style=&quot;text-align: left ; white-space: nowrap&quot;&gt;&lt;br&gt;&lt;/span&gt;" style="text;html=1;strokeColor=none;fillColor=none;align=center;verticalAlign=middle;whiteSpace=wrap;rounded=0;fontSize=40;" parent="1" vertex="1">
          <mxGeometry x="-230" y="260" width="347.5" height="190" as="geometry" />
        </mxCell>
        <mxCell id="kVFWU_rXPY8WBo6nPkye-6" value="例子是error，5&lt;br&gt;errorLevel&lt;br&gt;&lt;span style=&quot;text-align: left ; white-space: nowrap&quot;&gt;错误级别&lt;br&gt;&lt;/span&gt;" style="text;html=1;strokeColor=none;fillColor=none;align=center;verticalAlign=middle;whiteSpace=wrap;rounded=0;fontSize=40;" parent="1" vertex="1">
          <mxGeometry x="-50" y="440" width="347.5" height="190" as="geometry" />
        </mxCell>
        <mxCell id="kVFWU_rXPY8WBo6nPkye-8" value="" style="endArrow=classic;html=1;fontSize=40;" parent="1" edge="1">
          <mxGeometry width="50" height="50" relative="1" as="geometry">
            <mxPoint x="-70" y="130" as="sourcePoint" />
            <mxPoint x="-220" y="250" as="targetPoint" />
          </mxGeometry>
        </mxCell>
        <mxCell id="kVFWU_rXPY8WBo6nPkye-9" value="" style="endArrow=classic;html=1;fontSize=40;" parent="1" edge="1">
          <mxGeometry width="50" height="50" relative="1" as="geometry">
            <mxPoint y="130" as="sourcePoint" />
            <mxPoint x="-50" y="270" as="targetPoint" />
          </mxGeometry>
        </mxCell>
        <mxCell id="kVFWU_rXPY8WBo6nPkye-10" value="" style="endArrow=classic;html=1;fontSize=40;" parent="1" edge="1">
          <mxGeometry width="50" height="50" relative="1" as="geometry">
            <mxPoint x="40" y="130" as="sourcePoint" />
            <mxPoint x="70" y="460" as="targetPoint" />
          </mxGeometry>
        </mxCell>
        <mxCell id="kVFWU_rXPY8WBo6nPkye-11" value="errorType&lt;br&gt;&lt;span style=&quot;text-align: left ; white-space: nowrap&quot;&gt;错误类型&lt;br&gt;&lt;/span&gt;" style="text;html=1;strokeColor=none;fillColor=none;align=center;verticalAlign=middle;whiteSpace=wrap;rounded=0;fontSize=40;" parent="1" vertex="1">
          <mxGeometry x="10" y="260" width="347.5" height="190" as="geometry" />
        </mxCell>
        <mxCell id="kVFWU_rXPY8WBo6nPkye-12" value="" style="endArrow=classic;html=1;fontSize=40;entryX=1.013;entryY=0.211;entryDx=0;entryDy=0;entryPerimeter=0;" parent="1" target="kVFWU_rXPY8WBo6nPkye-5" edge="1">
          <mxGeometry width="50" height="50" relative="1" as="geometry">
            <mxPoint x="87.5" y="130" as="sourcePoint" />
            <mxPoint x="117.5" y="460" as="targetPoint" />
          </mxGeometry>
        </mxCell>
        <mxCell id="kVFWU_rXPY8WBo6nPkye-15" value="errorScene&lt;br&gt;&lt;span style=&quot;text-align: left ; white-space: nowrap&quot;&gt;错误场景&lt;br&gt;&lt;/span&gt;" style="text;html=1;strokeColor=none;fillColor=none;align=center;verticalAlign=middle;whiteSpace=wrap;rounded=0;fontSize=40;" parent="1" vertex="1">
          <mxGeometry x="220" y="350" width="347.5" height="190" as="geometry" />
        </mxCell>
        <mxCell id="kVFWU_rXPY8WBo6nPkye-16" value="" style="endArrow=classic;html=1;fontSize=40;" parent="1" edge="1">
          <mxGeometry width="50" height="50" relative="1" as="geometry">
            <mxPoint x="150" y="130" as="sourcePoint" />
            <mxPoint x="370" y="390" as="targetPoint" />
          </mxGeometry>
        </mxCell>
        <mxCell id="kVFWU_rXPY8WBo6nPkye-18" value="" style="endArrow=classic;html=1;fontSize=40;" parent="1" edge="1">
          <mxGeometry width="50" height="50" relative="1" as="geometry">
            <mxPoint x="260" y="130" as="sourcePoint" />
            <mxPoint x="390" y="230" as="targetPoint" />
          </mxGeometry>
        </mxCell>
        <mxCell id="kVFWU_rXPY8WBo6nPkye-19" value="errorSepcific&lt;br&gt;&lt;span style=&quot;text-align: left ; white-space: nowrap&quot;&gt;具体错误码&lt;br&gt;&lt;/span&gt;" style="text;html=1;strokeColor=none;fillColor=none;align=center;verticalAlign=middle;whiteSpace=wrap;rounded=0;fontSize=40;" parent="1" vertex="1">
          <mxGeometry x="270" y="180" width="347.5" height="190" as="geometry" />
        </mxCell>
      </root>
    </mxGraphModel>
  </diagram>
  <diagram id="wgpJUq2cZCsfTqHd_rCm" name="第 2 页">
    <mxGraphModel dx="946" dy="542" grid="1" gridSize="10" guides="1" tooltips="1" connect="1" arrows="1" fold="1" page="1" pageScale="1" pageWidth="827" pageHeight="1169" math="0" shadow="0">
      <root>
        <mxCell id="qkRAZBSWcbqw88cZYQTD-0" />
        <mxCell id="qkRAZBSWcbqw88cZYQTD-1" parent="qkRAZBSWcbqw88cZYQTD-0" />
        <mxCell id="qkRAZBSWcbqw88cZYQTD-2" value="mofa-common-lang" style="rounded=0;whiteSpace=wrap;html=1;fontSize=40;" vertex="1" parent="qkRAZBSWcbqw88cZYQTD-1">
          <mxGeometry x="80" y="200" width="370" height="70" as="geometry" />
        </mxCell>
        <mxCell id="qkRAZBSWcbqw88cZYQTD-3" value="mofa-cache" style="rounded=0;whiteSpace=wrap;html=1;fontSize=40;" vertex="1" parent="qkRAZBSWcbqw88cZYQTD-1">
          <mxGeometry x="80" y="320" width="370" height="70" as="geometry" />
        </mxCell>
        <mxCell id="qkRAZBSWcbqw88cZYQTD-4" value="mofa-dao" style="rounded=0;whiteSpace=wrap;html=1;fontSize=40;" vertex="1" parent="qkRAZBSWcbqw88cZYQTD-1">
          <mxGeometry x="80" y="440" width="370" height="70" as="geometry" />
        </mxCell>
        <mxCell id="qkRAZBSWcbqw88cZYQTD-6" value="mofa-logger" style="rounded=0;whiteSpace=wrap;html=1;fontSize=40;" vertex="1" parent="qkRAZBSWcbqw88cZYQTD-1">
          <mxGeometry x="520" y="440" width="370" height="70" as="geometry" />
        </mxCell>
        <mxCell id="qkRAZBSWcbqw88cZYQTD-9" style="edgeStyle=orthogonalEdgeStyle;rounded=0;orthogonalLoop=1;jettySize=auto;html=1;exitX=0.5;exitY=0;exitDx=0;exitDy=0;entryX=1;entryY=0.5;entryDx=0;entryDy=0;fontSize=40;" edge="1" parent="qkRAZBSWcbqw88cZYQTD-1" source="qkRAZBSWcbqw88cZYQTD-7" target="qkRAZBSWcbqw88cZYQTD-2">
          <mxGeometry relative="1" as="geometry" />
        </mxCell>
        <mxCell id="qkRAZBSWcbqw88cZYQTD-7" value="mofa-error" style="rounded=0;whiteSpace=wrap;html=1;fontSize=40;" vertex="1" parent="qkRAZBSWcbqw88cZYQTD-1">
          <mxGeometry x="520" y="320" width="370" height="70" as="geometry" />
        </mxCell>
      </root>
    </mxGraphModel>
  </diagram>
  <diagram id="eqnfFB6fKpXfB0oUaWJK" name="rpc">
    <mxGraphModel dx="1773" dy="591" grid="0" gridSize="10" guides="1" tooltips="1" connect="1" arrows="1" fold="1" page="1" pageScale="1" pageWidth="827" pageHeight="1169" math="0" shadow="0">
      <root>
        <mxCell id="Lbm4YBUUNJ6kGT5OPi4M-0" />
        <mxCell id="Lbm4YBUUNJ6kGT5OPi4M-1" parent="Lbm4YBUUNJ6kGT5OPi4M-0" />
        <mxCell id="Lbm4YBUUNJ6kGT5OPi4M-61" value="" style="rounded=1;whiteSpace=wrap;html=1;fontSize=40;" vertex="1" parent="Lbm4YBUUNJ6kGT5OPi4M-1">
          <mxGeometry x="580" y="480" width="280" height="360" as="geometry" />
        </mxCell>
        <mxCell id="Lbm4YBUUNJ6kGT5OPi4M-55" value="" style="rounded=1;whiteSpace=wrap;html=1;fontSize=40;" vertex="1" parent="Lbm4YBUUNJ6kGT5OPi4M-1">
          <mxGeometry x="-420" y="480" width="280" height="360" as="geometry" />
        </mxCell>
        <mxCell id="Lbm4YBUUNJ6kGT5OPi4M-10" value="" style="rounded=1;whiteSpace=wrap;html=1;fontSize=40;" vertex="1" parent="Lbm4YBUUNJ6kGT5OPi4M-1">
          <mxGeometry x="-80" y="560" width="600" height="240" as="geometry" />
        </mxCell>
        <mxCell id="Lbm4YBUUNJ6kGT5OPi4M-4" value="" style="edgeStyle=orthogonalEdgeStyle;rounded=0;orthogonalLoop=1;jettySize=auto;html=1;fontSize=40;" edge="1" parent="Lbm4YBUUNJ6kGT5OPi4M-1" source="Lbm4YBUUNJ6kGT5OPi4M-2" target="Lbm4YBUUNJ6kGT5OPi4M-3">
          <mxGeometry relative="1" as="geometry" />
        </mxCell>
        <mxCell id="Lbm4YBUUNJ6kGT5OPi4M-2" value="自定义注解" style="rounded=1;whiteSpace=wrap;html=1;fontSize=40;" vertex="1" parent="Lbm4YBUUNJ6kGT5OPi4M-1">
          <mxGeometry x="80" y="80" width="280" height="80" as="geometry" />
        </mxCell>
        <mxCell id="Lbm4YBUUNJ6kGT5OPi4M-7" style="edgeStyle=orthogonalEdgeStyle;rounded=0;orthogonalLoop=1;jettySize=auto;html=1;entryX=0.5;entryY=0;entryDx=0;entryDy=0;fontSize=40;" edge="1" parent="Lbm4YBUUNJ6kGT5OPi4M-1" source="Lbm4YBUUNJ6kGT5OPi4M-3" target="Lbm4YBUUNJ6kGT5OPi4M-6">
          <mxGeometry relative="1" as="geometry" />
        </mxCell>
        <mxCell id="Lbm4YBUUNJ6kGT5OPi4M-3" value="&lt;pre style=&quot;background-color: rgb(255 , 255 , 255) ; font-family: &amp;#34;menlo&amp;#34; ; font-size: 13.5pt&quot;&gt;BeanFactoryPostProcessor&lt;/pre&gt;" style="rounded=1;whiteSpace=wrap;html=1;fontSize=40;" vertex="1" parent="Lbm4YBUUNJ6kGT5OPi4M-1">
          <mxGeometry x="80" y="240" width="280" height="80" as="geometry" />
        </mxCell>
        <mxCell id="Lbm4YBUUNJ6kGT5OPi4M-12" style="edgeStyle=orthogonalEdgeStyle;rounded=0;orthogonalLoop=1;jettySize=auto;html=1;entryX=0.5;entryY=0;entryDx=0;entryDy=0;fontSize=40;" edge="1" parent="Lbm4YBUUNJ6kGT5OPi4M-1" source="Lbm4YBUUNJ6kGT5OPi4M-6" target="Lbm4YBUUNJ6kGT5OPi4M-10">
          <mxGeometry relative="1" as="geometry" />
        </mxCell>
        <mxCell id="Lbm4YBUUNJ6kGT5OPi4M-6" value="&lt;pre style=&quot;background-color: rgb(255 , 255 , 255) ; font-family: &amp;#34;menlo&amp;#34; ; font-size: 13.5pt&quot;&gt;BeanDefinitionBuilder&lt;/pre&gt;" style="rounded=1;whiteSpace=wrap;html=1;fontSize=40;" vertex="1" parent="Lbm4YBUUNJ6kGT5OPi4M-1">
          <mxGeometry x="80" y="400" width="280" height="80" as="geometry" />
        </mxCell>
        <mxCell id="Lbm4YBUUNJ6kGT5OPi4M-35" style="edgeStyle=orthogonalEdgeStyle;rounded=0;orthogonalLoop=1;jettySize=auto;html=1;entryX=1;entryY=0.5;entryDx=0;entryDy=0;fontSize=40;" edge="1" parent="Lbm4YBUUNJ6kGT5OPi4M-1" source="Lbm4YBUUNJ6kGT5OPi4M-8" target="Lbm4YBUUNJ6kGT5OPi4M-34">
          <mxGeometry relative="1" as="geometry" />
        </mxCell>
        <mxCell id="Lbm4YBUUNJ6kGT5OPi4M-8" value="&lt;pre style=&quot;background-color: rgb(255 , 255 , 255) ; font-family: &amp;#34;menlo&amp;#34; ; font-size: 13.5pt&quot;&gt;ServiceBean&lt;/pre&gt;" style="rounded=1;whiteSpace=wrap;html=1;fontSize=40;" vertex="1" parent="Lbm4YBUUNJ6kGT5OPi4M-1">
          <mxGeometry y="600" width="160" height="60" as="geometry" />
        </mxCell>
        <mxCell id="Lbm4YBUUNJ6kGT5OPi4M-28" style="edgeStyle=orthogonalEdgeStyle;rounded=0;orthogonalLoop=1;jettySize=auto;html=1;fontSize=40;entryX=1;entryY=0.5;entryDx=0;entryDy=0;" edge="1" parent="Lbm4YBUUNJ6kGT5OPi4M-1" source="Lbm4YBUUNJ6kGT5OPi4M-9" target="Lbm4YBUUNJ6kGT5OPi4M-29">
          <mxGeometry relative="1" as="geometry">
            <mxPoint x="-170" y="730" as="targetPoint" />
          </mxGeometry>
        </mxCell>
        <mxCell id="Lbm4YBUUNJ6kGT5OPi4M-9" value="&lt;pre style=&quot;background-color: rgb(255 , 255 , 255) ; font-family: &amp;#34;menlo&amp;#34; ; font-size: 13.5pt&quot;&gt;&lt;pre style=&quot;font-family: &amp;#34;menlo&amp;#34; ; font-size: 13.5pt&quot;&gt;ReferenceBean&lt;/pre&gt;&lt;/pre&gt;" style="rounded=1;whiteSpace=wrap;html=1;fontSize=40;" vertex="1" parent="Lbm4YBUUNJ6kGT5OPi4M-1">
          <mxGeometry y="700" width="160" height="60" as="geometry" />
        </mxCell>
        <mxCell id="Lbm4YBUUNJ6kGT5OPi4M-13" value="dubbo" style="text;html=1;strokeColor=none;fillColor=none;align=center;verticalAlign=middle;whiteSpace=wrap;rounded=0;fontSize=40;" vertex="1" parent="Lbm4YBUUNJ6kGT5OPi4M-1">
          <mxGeometry x="60" y="670" width="40" height="20" as="geometry" />
        </mxCell>
        <mxCell id="Lbm4YBUUNJ6kGT5OPi4M-40" style="edgeStyle=orthogonalEdgeStyle;rounded=0;orthogonalLoop=1;jettySize=auto;html=1;entryX=0;entryY=0.5;entryDx=0;entryDy=0;fontSize=40;" edge="1" parent="Lbm4YBUUNJ6kGT5OPi4M-1" source="Lbm4YBUUNJ6kGT5OPi4M-25" target="Lbm4YBUUNJ6kGT5OPi4M-39">
          <mxGeometry relative="1" as="geometry" />
        </mxCell>
        <mxCell id="Lbm4YBUUNJ6kGT5OPi4M-25" value="&lt;pre style=&quot;background-color: rgb(255 , 255 , 255) ; font-family: &amp;#34;menlo&amp;#34; ; font-size: 13.5pt&quot;&gt;&lt;pre style=&quot;font-family: &amp;#34;menlo&amp;#34; ; font-size: 13.5pt&quot;&gt;HSFSpringProviderBean&lt;/pre&gt;&lt;/pre&gt;" style="rounded=1;whiteSpace=wrap;html=1;fontSize=40;" vertex="1" parent="Lbm4YBUUNJ6kGT5OPi4M-1">
          <mxGeometry x="280" y="600" width="160" height="60" as="geometry" />
        </mxCell>
        <mxCell id="Lbm4YBUUNJ6kGT5OPi4M-47" style="edgeStyle=orthogonalEdgeStyle;rounded=0;orthogonalLoop=1;jettySize=auto;html=1;entryX=0;entryY=0.5;entryDx=0;entryDy=0;fontSize=40;" edge="1" parent="Lbm4YBUUNJ6kGT5OPi4M-1" source="Lbm4YBUUNJ6kGT5OPi4M-26" target="Lbm4YBUUNJ6kGT5OPi4M-46">
          <mxGeometry relative="1" as="geometry" />
        </mxCell>
        <mxCell id="Lbm4YBUUNJ6kGT5OPi4M-26" value="&lt;pre style=&quot;background-color: rgb(255 , 255 , 255) ; font-family: &amp;#34;menlo&amp;#34; ; font-size: 13.5pt&quot;&gt;&lt;pre style=&quot;font-family: &amp;#34;menlo&amp;#34; ; font-size: 13.5pt&quot;&gt;&lt;pre style=&quot;font-family: &amp;#34;menlo&amp;#34; ; font-size: 13.5pt&quot;&gt;HSFSpringConsumerBean&lt;/pre&gt;&lt;/pre&gt;&lt;/pre&gt;" style="rounded=1;whiteSpace=wrap;html=1;fontSize=40;" vertex="1" parent="Lbm4YBUUNJ6kGT5OPi4M-1">
          <mxGeometry x="280" y="700" width="160" height="60" as="geometry" />
        </mxCell>
        <mxCell id="Lbm4YBUUNJ6kGT5OPi4M-27" value="hsf" style="text;html=1;strokeColor=none;fillColor=none;align=center;verticalAlign=middle;whiteSpace=wrap;rounded=0;fontSize=40;" vertex="1" parent="Lbm4YBUUNJ6kGT5OPi4M-1">
          <mxGeometry x="340" y="670" width="40" height="20" as="geometry" />
        </mxCell>
        <mxCell id="Lbm4YBUUNJ6kGT5OPi4M-29" value="&lt;pre style=&quot;background-color: rgb(255 , 255 , 255) ; font-family: &amp;#34;menlo&amp;#34; ; font-size: 13.5pt&quot;&gt;&lt;pre style=&quot;font-family: &amp;#34;menlo&amp;#34; ; font-size: 13.5pt&quot;&gt;ReferenceCofig&lt;/pre&gt;&lt;/pre&gt;" style="rounded=1;whiteSpace=wrap;html=1;fontSize=40;" vertex="1" parent="Lbm4YBUUNJ6kGT5OPi4M-1">
          <mxGeometry x="-320" y="700" width="160" height="60" as="geometry" />
        </mxCell>
        <mxCell id="Lbm4YBUUNJ6kGT5OPi4M-34" value="&lt;pre style=&quot;background-color: rgb(255 , 255 , 255) ; font-family: &amp;#34;menlo&amp;#34; ; font-size: 13.5pt&quot;&gt;&lt;pre style=&quot;font-family: &amp;#34;menlo&amp;#34; ; font-size: 13.5pt&quot;&gt;&lt;pre style=&quot;font-family: &amp;#34;menlo&amp;#34; ; font-size: 13.5pt&quot;&gt;ServiceConfig&lt;/pre&gt;&lt;/pre&gt;&lt;/pre&gt;" style="rounded=1;whiteSpace=wrap;html=1;fontSize=40;" vertex="1" parent="Lbm4YBUUNJ6kGT5OPi4M-1">
          <mxGeometry x="-320" y="600" width="160" height="60" as="geometry" />
        </mxCell>
        <mxCell id="Lbm4YBUUNJ6kGT5OPi4M-39" value="&lt;pre style=&quot;background-color: rgb(255 , 255 , 255) ; font-family: &amp;#34;menlo&amp;#34; ; font-size: 13.5pt&quot;&gt;&lt;pre style=&quot;font-family: &amp;#34;menlo&amp;#34; ; font-size: 13.5pt&quot;&gt;&lt;pre style=&quot;font-family: &amp;#34;menlo&amp;#34; ; font-size: 13.5pt&quot;&gt;&lt;pre style=&quot;font-family: &amp;#34;menlo&amp;#34; ; font-size: 13.5pt&quot;&gt;ServiceMetadata&lt;/pre&gt;&lt;/pre&gt;&lt;/pre&gt;&lt;/pre&gt;" style="rounded=1;whiteSpace=wrap;html=1;fontSize=40;" vertex="1" parent="Lbm4YBUUNJ6kGT5OPi4M-1">
          <mxGeometry x="600" y="600" width="160" height="60" as="geometry" />
        </mxCell>
        <mxCell id="Lbm4YBUUNJ6kGT5OPi4M-42" value="&lt;pre style=&quot;background-color: rgb(255 , 255 , 255) ; font-family: &amp;#34;menlo&amp;#34; ; font-size: 13.5pt&quot;&gt;publish&lt;/pre&gt;" style="text;html=1;strokeColor=none;fillColor=none;align=center;verticalAlign=middle;whiteSpace=wrap;rounded=0;fontSize=40;" vertex="1" parent="Lbm4YBUUNJ6kGT5OPi4M-1">
          <mxGeometry x="500" y="600" width="40" height="20" as="geometry" />
        </mxCell>
        <mxCell id="Lbm4YBUUNJ6kGT5OPi4M-43" value="&lt;pre style=&quot;background-color: rgb(255 , 255 , 255) ; font-family: &amp;#34;menlo&amp;#34; ; font-size: 13.5pt&quot;&gt;exportSync&lt;/pre&gt;" style="text;html=1;strokeColor=none;fillColor=none;align=center;verticalAlign=middle;whiteSpace=wrap;rounded=0;fontSize=40;" vertex="1" parent="Lbm4YBUUNJ6kGT5OPi4M-1">
          <mxGeometry x="810" y="620" width="40" height="20" as="geometry" />
        </mxCell>
        <mxCell id="Lbm4YBUUNJ6kGT5OPi4M-46" value="&lt;pre style=&quot;background-color: rgb(255 , 255 , 255) ; font-family: &amp;#34;menlo&amp;#34; ; font-size: 13.5pt&quot;&gt;&lt;pre style=&quot;font-family: &amp;#34;menlo&amp;#34; ; font-size: 13.5pt&quot;&gt;&lt;pre style=&quot;font-family: &amp;#34;menlo&amp;#34; ; font-size: 13.5pt&quot;&gt;&lt;pre style=&quot;font-family: &amp;#34;menlo&amp;#34; ; font-size: 13.5pt&quot;&gt;ServiceMetadata&lt;/pre&gt;&lt;/pre&gt;&lt;/pre&gt;&lt;/pre&gt;" style="rounded=1;whiteSpace=wrap;html=1;fontSize=40;" vertex="1" parent="Lbm4YBUUNJ6kGT5OPi4M-1">
          <mxGeometry x="600" y="700" width="160" height="60" as="geometry" />
        </mxCell>
        <mxCell id="Lbm4YBUUNJ6kGT5OPi4M-48" value="&lt;pre style=&quot;background-color: rgb(255 , 255 , 255) ; font-family: &amp;#34;menlo&amp;#34; ; font-size: 13.5pt&quot;&gt;init&lt;/pre&gt;" style="text;html=1;strokeColor=none;fillColor=none;align=center;verticalAlign=middle;whiteSpace=wrap;rounded=0;fontSize=40;" vertex="1" parent="Lbm4YBUUNJ6kGT5OPi4M-1">
          <mxGeometry x="790" y="720" width="40" height="20" as="geometry" />
        </mxCell>
        <mxCell id="Lbm4YBUUNJ6kGT5OPi4M-49" value="&lt;pre style=&quot;background-color: rgb(255 , 255 , 255) ; font-family: &amp;#34;menlo&amp;#34; ; font-size: 13.5pt&quot;&gt;init&lt;/pre&gt;" style="text;html=1;strokeColor=none;fillColor=none;align=center;verticalAlign=middle;whiteSpace=wrap;rounded=0;fontSize=40;" vertex="1" parent="Lbm4YBUUNJ6kGT5OPi4M-1">
          <mxGeometry x="500" y="700" width="40" height="20" as="geometry" />
        </mxCell>
        <mxCell id="Lbm4YBUUNJ6kGT5OPi4M-51" value="&lt;pre style=&quot;background-color: rgb(255 , 255 , 255) ; font-family: &amp;#34;menlo&amp;#34; ; font-size: 13.5pt&quot;&gt;doExport&lt;/pre&gt;" style="text;html=1;strokeColor=none;fillColor=none;align=center;verticalAlign=middle;whiteSpace=wrap;rounded=0;fontSize=40;" vertex="1" parent="Lbm4YBUUNJ6kGT5OPi4M-1">
          <mxGeometry x="-390" y="620" width="40" height="20" as="geometry" />
        </mxCell>
        <mxCell id="Lbm4YBUUNJ6kGT5OPi4M-52" value="&lt;pre style=&quot;background-color: rgb(255 , 255 , 255) ; font-family: &amp;#34;menlo&amp;#34; ; font-size: 13.5pt&quot;&gt;export&lt;/pre&gt;" style="text;html=1;strokeColor=none;fillColor=none;align=center;verticalAlign=middle;whiteSpace=wrap;rounded=0;fontSize=40;" vertex="1" parent="Lbm4YBUUNJ6kGT5OPi4M-1">
          <mxGeometry x="-100" y="600" width="40" height="20" as="geometry" />
        </mxCell>
        <mxCell id="Lbm4YBUUNJ6kGT5OPi4M-53" value="&lt;pre style=&quot;background-color: rgb(255 , 255 , 255) ; font-family: &amp;#34;menlo&amp;#34; ; font-size: 13.5pt&quot;&gt;getObject&lt;/pre&gt;" style="text;html=1;strokeColor=none;fillColor=none;align=center;verticalAlign=middle;whiteSpace=wrap;rounded=0;fontSize=40;" vertex="1" parent="Lbm4YBUUNJ6kGT5OPi4M-1">
          <mxGeometry x="-100" y="700" width="40" height="20" as="geometry" />
        </mxCell>
        <mxCell id="Lbm4YBUUNJ6kGT5OPi4M-54" value="&lt;pre style=&quot;background-color: rgb(255 , 255 , 255) ; font-family: &amp;#34;menlo&amp;#34; ; font-size: 13.5pt&quot;&gt;init&lt;/pre&gt;" style="text;html=1;strokeColor=none;fillColor=none;align=center;verticalAlign=middle;whiteSpace=wrap;rounded=0;fontSize=40;" vertex="1" parent="Lbm4YBUUNJ6kGT5OPi4M-1">
          <mxGeometry x="-380" y="720" width="40" height="20" as="geometry" />
        </mxCell>
        <mxCell id="Lbm4YBUUNJ6kGT5OPi4M-57" value="dubbo core" style="text;html=1;strokeColor=none;fillColor=none;align=center;verticalAlign=middle;whiteSpace=wrap;rounded=0;fontSize=40;" vertex="1" parent="Lbm4YBUUNJ6kGT5OPi4M-1">
          <mxGeometry x="-410" y="520" width="260" height="40" as="geometry" />
        </mxCell>
        <mxCell id="Lbm4YBUUNJ6kGT5OPi4M-62" value="hsf core" style="text;html=1;strokeColor=none;fillColor=none;align=center;verticalAlign=middle;whiteSpace=wrap;rounded=0;fontSize=40;" vertex="1" parent="Lbm4YBUUNJ6kGT5OPi4M-1">
          <mxGeometry x="590" y="520" width="260" height="40" as="geometry" />
        </mxCell>
      </root>
    </mxGraphModel>
  </diagram>
  <diagram id="apqk7lyxAr5BW59-7kaj" name="job">
    <mxGraphModel dx="1773" dy="542" grid="0" gridSize="10" guides="1" tooltips="1" connect="1" arrows="1" fold="1" page="1" pageScale="1" pageWidth="827" pageHeight="1169" math="0" shadow="0">
      <root>
        <mxCell id="Aebw_GZ7etiIDsKd_dVA-0" />
        <mxCell id="Aebw_GZ7etiIDsKd_dVA-1" parent="Aebw_GZ7etiIDsKd_dVA-0" />
        <mxCell id="m_qa-YfL3aKytgITPJUv-0" value="" style="rounded=1;whiteSpace=wrap;html=1;fontSize=40;" vertex="1" parent="Aebw_GZ7etiIDsKd_dVA-1">
          <mxGeometry x="-240" y="57" width="1200" height="280" as="geometry" />
        </mxCell>
        <mxCell id="Aebw_GZ7etiIDsKd_dVA-45" value="" style="rounded=1;whiteSpace=wrap;html=1;fontSize=40;" vertex="1" parent="Aebw_GZ7etiIDsKd_dVA-1">
          <mxGeometry x="280" y="360" width="680" height="320" as="geometry" />
        </mxCell>
        <mxCell id="Aebw_GZ7etiIDsKd_dVA-44" value="" style="rounded=1;whiteSpace=wrap;html=1;fontSize=40;" vertex="1" parent="Aebw_GZ7etiIDsKd_dVA-1">
          <mxGeometry x="-240" y="360" width="360" height="320" as="geometry" />
        </mxCell>
        <mxCell id="Aebw_GZ7etiIDsKd_dVA-5" value="" style="edgeStyle=orthogonalEdgeStyle;rounded=0;orthogonalLoop=1;jettySize=auto;html=1;fontSize=40;" edge="1" parent="Aebw_GZ7etiIDsKd_dVA-1" source="Aebw_GZ7etiIDsKd_dVA-6" target="Aebw_GZ7etiIDsKd_dVA-8">
          <mxGeometry relative="1" as="geometry" />
        </mxCell>
        <mxCell id="Aebw_GZ7etiIDsKd_dVA-6" value="&lt;pre style=&quot;background-color: rgb(255 , 255 , 255) ; font-family: &amp;#34;menlo&amp;#34; ; font-size: 13.5pt&quot;&gt;GdJobProperties&lt;/pre&gt;" style="rounded=1;whiteSpace=wrap;html=1;fontSize=40;" vertex="1" parent="Aebw_GZ7etiIDsKd_dVA-1">
          <mxGeometry x="80" y="80" width="280" height="80" as="geometry" />
        </mxCell>
        <mxCell id="Aebw_GZ7etiIDsKd_dVA-47" style="edgeStyle=orthogonalEdgeStyle;rounded=0;orthogonalLoop=1;jettySize=auto;html=1;entryX=1;entryY=0.5;entryDx=0;entryDy=0;fontSize=40;" edge="1" parent="Aebw_GZ7etiIDsKd_dVA-1" source="Aebw_GZ7etiIDsKd_dVA-8" target="Aebw_GZ7etiIDsKd_dVA-44">
          <mxGeometry relative="1" as="geometry" />
        </mxCell>
        <mxCell id="Aebw_GZ7etiIDsKd_dVA-48" style="edgeStyle=orthogonalEdgeStyle;rounded=0;orthogonalLoop=1;jettySize=auto;html=1;entryX=0;entryY=0.5;entryDx=0;entryDy=0;fontSize=40;" edge="1" parent="Aebw_GZ7etiIDsKd_dVA-1" source="Aebw_GZ7etiIDsKd_dVA-8" target="Aebw_GZ7etiIDsKd_dVA-45">
          <mxGeometry relative="1" as="geometry" />
        </mxCell>
        <mxCell id="Aebw_GZ7etiIDsKd_dVA-8" value="&lt;pre style=&quot;background-color: rgb(255 , 255 , 255) ; font-family: &amp;#34;menlo&amp;#34; ; font-size: 13.5pt&quot;&gt;&lt;pre style=&quot;font-family: &amp;#34;menlo&amp;#34; ; font-size: 13.5pt&quot;&gt;GdJobAutoConfiguration&lt;/pre&gt;&lt;/pre&gt;" style="rounded=1;whiteSpace=wrap;html=1;fontSize=40;" vertex="1" parent="Aebw_GZ7etiIDsKd_dVA-1">
          <mxGeometry x="80" y="240" width="280" height="80" as="geometry" />
        </mxCell>
        <mxCell id="Aebw_GZ7etiIDsKd_dVA-39" style="edgeStyle=orthogonalEdgeStyle;rounded=0;orthogonalLoop=1;jettySize=auto;html=1;entryX=0.5;entryY=0;entryDx=0;entryDy=0;fontSize=40;" edge="1" parent="Aebw_GZ7etiIDsKd_dVA-1" source="Aebw_GZ7etiIDsKd_dVA-10" target="Aebw_GZ7etiIDsKd_dVA-38">
          <mxGeometry relative="1" as="geometry" />
        </mxCell>
        <mxCell id="Aebw_GZ7etiIDsKd_dVA-10" value="&lt;pre style=&quot;background-color: rgb(255 , 255 , 255) ; font-family: &amp;#34;menlo&amp;#34; ; font-size: 13.5pt&quot;&gt;&lt;pre style=&quot;font-family: &amp;#34;menlo&amp;#34; ; font-size: 13.5pt&quot;&gt;GdJobSpringExecutor&lt;/pre&gt;&lt;/pre&gt;" style="rounded=1;whiteSpace=wrap;html=1;fontSize=40;" vertex="1" parent="Aebw_GZ7etiIDsKd_dVA-1">
          <mxGeometry x="-200" y="400" width="280" height="80" as="geometry" />
        </mxCell>
        <mxCell id="Aebw_GZ7etiIDsKd_dVA-35" value="&lt;pre style=&quot;background-color: rgb(255 , 255 , 255) ; font-family: &amp;#34;menlo&amp;#34; ; font-size: 13.5pt&quot;&gt;&lt;pre style=&quot;font-family: &amp;#34;menlo&amp;#34; ; font-size: 13.5pt&quot;&gt;&lt;pre style=&quot;font-family: &amp;#34;menlo&amp;#34; ; font-size: 13.5pt&quot;&gt;&lt;pre style=&quot;font-family: &amp;#34;menlo&amp;#34; ; font-size: 13.5pt&quot;&gt;SchedulerXClient&lt;/pre&gt;&lt;/pre&gt;&lt;/pre&gt;&lt;/pre&gt;" style="rounded=1;whiteSpace=wrap;html=1;fontSize=40;" vertex="1" parent="Aebw_GZ7etiIDsKd_dVA-1">
          <mxGeometry x="660" y="400" width="280" height="80" as="geometry" />
        </mxCell>
        <mxCell id="Aebw_GZ7etiIDsKd_dVA-36" value="&lt;pre style=&quot;background-color: rgb(255 , 255 , 255) ; font-family: &amp;#34;menlo&amp;#34; ; font-size: 13.5pt&quot;&gt;&lt;pre style=&quot;font-family: &amp;#34;menlo&amp;#34; ; font-size: 13.5pt&quot;&gt;&lt;pre style=&quot;font-family: &amp;#34;menlo&amp;#34; ; font-size: 13.5pt&quot;&gt;SchedulerxClient&lt;/pre&gt;&lt;/pre&gt;&lt;/pre&gt;" style="rounded=1;whiteSpace=wrap;html=1;fontSize=40;" vertex="1" parent="Aebw_GZ7etiIDsKd_dVA-1">
          <mxGeometry x="300" y="400" width="280" height="80" as="geometry" />
        </mxCell>
        <mxCell id="Aebw_GZ7etiIDsKd_dVA-38" value="&lt;pre style=&quot;background-color: rgb(255 , 255 , 255) ; font-family: &amp;#34;menlo&amp;#34; ; font-size: 13.5pt&quot;&gt;&lt;pre style=&quot;font-family: &amp;#34;menlo&amp;#34; ; font-size: 13.5pt&quot;&gt;&lt;pre style=&quot;font-family: &amp;#34;menlo&amp;#34; ; font-size: 13.5pt&quot;&gt;XxlJobExecutor&lt;/pre&gt;&lt;/pre&gt;&lt;/pre&gt;" style="rounded=1;whiteSpace=wrap;html=1;fontSize=40;" vertex="1" parent="Aebw_GZ7etiIDsKd_dVA-1">
          <mxGeometry x="-200" y="520" width="280" height="80" as="geometry" />
        </mxCell>
        <mxCell id="Aebw_GZ7etiIDsKd_dVA-40" value="&lt;pre style=&quot;background-color: rgb(255 , 255 , 255) ; font-family: &amp;#34;menlo&amp;#34; ; font-size: 13.5pt&quot;&gt;start&lt;/pre&gt;" style="text;html=1;strokeColor=none;fillColor=none;align=center;verticalAlign=middle;whiteSpace=wrap;rounded=0;fontSize=40;" vertex="1" parent="Aebw_GZ7etiIDsKd_dVA-1">
          <mxGeometry x="-80" y="630" width="40" height="20" as="geometry" />
        </mxCell>
        <mxCell id="Aebw_GZ7etiIDsKd_dVA-43" value="&lt;pre style=&quot;background-color: rgb(255 , 255 , 255) ; font-family: &amp;#34;menlo&amp;#34; ; font-size: 13.5pt&quot;&gt;&lt;pre style=&quot;font-family: &amp;#34;menlo&amp;#34; ; font-size: 13.5pt&quot;&gt;&lt;pre style=&quot;font-family: &amp;#34;menlo&amp;#34; ; font-size: 13.5pt&quot;&gt;&lt;pre style=&quot;font-family: &amp;#34;menlo&amp;#34; ; font-size: 13.5pt&quot;&gt;ClientContextImpl&lt;/pre&gt;&lt;/pre&gt;&lt;/pre&gt;&lt;/pre&gt;" style="rounded=1;whiteSpace=wrap;html=1;fontSize=40;" vertex="1" parent="Aebw_GZ7etiIDsKd_dVA-1">
          <mxGeometry x="480" y="520" width="280" height="80" as="geometry" />
        </mxCell>
        <mxCell id="Aebw_GZ7etiIDsKd_dVA-49" value="&lt;pre style=&quot;background-color: rgb(255 , 255 , 255) ; font-family: &amp;#34;menlo&amp;#34; ; font-size: 13.5pt&quot;&gt;init&lt;/pre&gt;" style="text;html=1;strokeColor=none;fillColor=none;align=center;verticalAlign=middle;whiteSpace=wrap;rounded=0;fontSize=40;" vertex="1" parent="Aebw_GZ7etiIDsKd_dVA-1">
          <mxGeometry x="600" y="630" width="40" height="20" as="geometry" />
        </mxCell>
      </root>
    </mxGraphModel>
  </diagram>
  <diagram id="_mlY6v_2ObwNFqcNM61d" name="config">
    <mxGraphModel dx="946" dy="542" grid="1" gridSize="10" guides="1" tooltips="1" connect="1" arrows="1" fold="1" page="1" pageScale="1" pageWidth="827" pageHeight="1169" math="0" shadow="0">
      <root>
        <mxCell id="di3lmy-FNdIkozkWoKXd-0" />
        <mxCell id="di3lmy-FNdIkozkWoKXd-1" parent="di3lmy-FNdIkozkWoKXd-0" />
        <mxCell id="T-9ZtaZgqKXwwPUmF5Ia-2" value="" style="rounded=1;whiteSpace=wrap;html=1;fontSize=40;" vertex="1" parent="di3lmy-FNdIkozkWoKXd-1">
          <mxGeometry y="80" width="880" height="310" as="geometry" />
        </mxCell>
        <mxCell id="T-9ZtaZgqKXwwPUmF5Ia-1" value="" style="rounded=1;whiteSpace=wrap;html=1;fontSize=40;" vertex="1" parent="di3lmy-FNdIkozkWoKXd-1">
          <mxGeometry x="470" y="400" width="410" height="160" as="geometry" />
        </mxCell>
        <mxCell id="T-9ZtaZgqKXwwPUmF5Ia-0" value="" style="rounded=1;whiteSpace=wrap;html=1;fontSize=40;" vertex="1" parent="di3lmy-FNdIkozkWoKXd-1">
          <mxGeometry y="400" width="410" height="160" as="geometry" />
        </mxCell>
        <mxCell id="P9KJaleEk5JdlTZmLVwr-0" style="edgeStyle=orthogonalEdgeStyle;rounded=0;orthogonalLoop=1;jettySize=auto;html=1;entryX=0.5;entryY=0;entryDx=0;entryDy=0;fontSize=40;" edge="1" parent="di3lmy-FNdIkozkWoKXd-1" source="P9KJaleEk5JdlTZmLVwr-1" target="P9KJaleEk5JdlTZmLVwr-6">
          <mxGeometry relative="1" as="geometry" />
        </mxCell>
        <mxCell id="P9KJaleEk5JdlTZmLVwr-1" value="&lt;pre style=&quot;background-color: rgb(255 , 255 , 255) ; font-family: &amp;#34;menlo&amp;#34; ; font-size: 13.5pt&quot;&gt;IConfigOperation&lt;/pre&gt;" style="rounded=1;whiteSpace=wrap;html=1;fontSize=40;" vertex="1" parent="di3lmy-FNdIkozkWoKXd-1">
          <mxGeometry x="340" y="100" width="200" height="60" as="geometry" />
        </mxCell>
        <mxCell id="P9KJaleEk5JdlTZmLVwr-2" style="edgeStyle=orthogonalEdgeStyle;rounded=0;orthogonalLoop=1;jettySize=auto;html=1;fontSize=40;" edge="1" parent="di3lmy-FNdIkozkWoKXd-1" source="P9KJaleEk5JdlTZmLVwr-3" target="P9KJaleEk5JdlTZmLVwr-9">
          <mxGeometry relative="1" as="geometry" />
        </mxCell>
        <mxCell id="P9KJaleEk5JdlTZmLVwr-3" value="&lt;pre style=&quot;background-color: rgb(255 , 255 , 255) ; font-family: &amp;#34;menlo&amp;#34; ; font-size: 13.5pt&quot;&gt;NacosPropertySourceHandler&lt;/pre&gt;" style="rounded=1;whiteSpace=wrap;html=1;fontSize=40;" vertex="1" parent="di3lmy-FNdIkozkWoKXd-1">
          <mxGeometry x="520" y="320" width="320" height="60" as="geometry" />
        </mxCell>
        <mxCell id="P9KJaleEk5JdlTZmLVwr-4" style="edgeStyle=orthogonalEdgeStyle;rounded=0;orthogonalLoop=1;jettySize=auto;html=1;entryX=1;entryY=0.5;entryDx=0;entryDy=0;fontSize=40;" edge="1" parent="di3lmy-FNdIkozkWoKXd-1" source="P9KJaleEk5JdlTZmLVwr-6" target="P9KJaleEk5JdlTZmLVwr-8">
          <mxGeometry relative="1" as="geometry" />
        </mxCell>
        <mxCell id="P9KJaleEk5JdlTZmLVwr-5" style="edgeStyle=orthogonalEdgeStyle;rounded=0;orthogonalLoop=1;jettySize=auto;html=1;entryX=0;entryY=0.5;entryDx=0;entryDy=0;fontSize=40;" edge="1" parent="di3lmy-FNdIkozkWoKXd-1" source="P9KJaleEk5JdlTZmLVwr-6" target="P9KJaleEk5JdlTZmLVwr-3">
          <mxGeometry relative="1" as="geometry" />
        </mxCell>
        <mxCell id="P9KJaleEk5JdlTZmLVwr-6" value="&lt;pre style=&quot;background-color: rgb(255 , 255 , 255) ; font-family: &amp;#34;menlo&amp;#34; ; font-size: 13.5pt&quot;&gt;PropertySourceHandler&lt;/pre&gt;" style="rounded=1;whiteSpace=wrap;html=1;fontSize=40;" vertex="1" parent="di3lmy-FNdIkozkWoKXd-1">
          <mxGeometry x="320" y="220" width="240" height="60" as="geometry" />
        </mxCell>
        <mxCell id="P9KJaleEk5JdlTZmLVwr-7" style="edgeStyle=orthogonalEdgeStyle;rounded=0;orthogonalLoop=1;jettySize=auto;html=1;entryX=0.5;entryY=0;entryDx=0;entryDy=0;fontSize=40;" edge="1" parent="di3lmy-FNdIkozkWoKXd-1" source="P9KJaleEk5JdlTZmLVwr-8" target="P9KJaleEk5JdlTZmLVwr-10">
          <mxGeometry relative="1" as="geometry" />
        </mxCell>
        <mxCell id="P9KJaleEk5JdlTZmLVwr-8" value="&lt;pre style=&quot;background-color: rgb(255 , 255 , 255) ; font-family: &amp;#34;menlo&amp;#34; ; font-size: 13.5pt&quot;&gt;&lt;pre style=&quot;font-family: &amp;#34;menlo&amp;#34; ; font-size: 13.5pt&quot;&gt;DiamondPropertySourceHandler&lt;/pre&gt;&lt;/pre&gt;" style="rounded=1;whiteSpace=wrap;html=1;fontSize=40;" vertex="1" parent="di3lmy-FNdIkozkWoKXd-1">
          <mxGeometry x="40" y="320" width="320" height="60" as="geometry" />
        </mxCell>
        <mxCell id="P9KJaleEk5JdlTZmLVwr-9" value="&lt;pre style=&quot;background-color: rgb(255 , 255 , 255) ; font-family: &amp;#34;menlo&amp;#34; ; font-size: 13.5pt&quot;&gt;&lt;pre style=&quot;font-family: &amp;#34;menlo&amp;#34; ; font-size: 13.5pt&quot;&gt;&lt;pre style=&quot;font-family: &amp;#34;menlo&amp;#34; ; font-size: 13.5pt&quot;&gt;&lt;pre style=&quot;font-family: &amp;#34;menlo&amp;#34; ; font-size: 13.5pt&quot;&gt;ConfigService&lt;/pre&gt;&lt;/pre&gt;&lt;/pre&gt;&lt;/pre&gt;" style="rounded=1;whiteSpace=wrap;html=1;fontSize=40;" vertex="1" parent="di3lmy-FNdIkozkWoKXd-1">
          <mxGeometry x="520" y="440" width="320" height="60" as="geometry" />
        </mxCell>
        <mxCell id="P9KJaleEk5JdlTZmLVwr-10" value="&lt;pre style=&quot;background-color: rgb(255 , 255 , 255) ; font-family: &amp;#34;menlo&amp;#34; ; font-size: 13.5pt&quot;&gt;&lt;pre style=&quot;font-family: &amp;#34;menlo&amp;#34; ; font-size: 13.5pt&quot;&gt;&lt;pre style=&quot;font-family: &amp;#34;menlo&amp;#34; ; font-size: 13.5pt&quot;&gt;Diamond&lt;/pre&gt;&lt;/pre&gt;&lt;/pre&gt;" style="rounded=1;whiteSpace=wrap;html=1;fontSize=40;" vertex="1" parent="di3lmy-FNdIkozkWoKXd-1">
          <mxGeometry x="40" y="440" width="320" height="60" as="geometry" />
        </mxCell>
        <mxCell id="P9KJaleEk5JdlTZmLVwr-11" value="&lt;pre style=&quot;background-color: rgb(255 , 255 , 255) ; font-family: &amp;#34;menlo&amp;#34; ; font-size: 13.5pt&quot;&gt;getConfig&lt;/pre&gt;" style="text;html=1;strokeColor=none;fillColor=none;align=center;verticalAlign=middle;whiteSpace=wrap;rounded=0;fontSize=40;" vertex="1" parent="di3lmy-FNdIkozkWoKXd-1">
          <mxGeometry x="180" y="520" width="40" height="20" as="geometry" />
        </mxCell>
        <mxCell id="P9KJaleEk5JdlTZmLVwr-12" value="&lt;pre style=&quot;background-color: rgb(255 , 255 , 255) ; font-family: &amp;#34;menlo&amp;#34; ; font-size: 13.5pt&quot;&gt;load&lt;/pre&gt;" style="text;html=1;strokeColor=none;fillColor=none;align=center;verticalAlign=middle;whiteSpace=wrap;rounded=0;fontSize=40;" vertex="1" parent="di3lmy-FNdIkozkWoKXd-1">
          <mxGeometry x="660" y="520" width="40" height="20" as="geometry" />
        </mxCell>
        <mxCell id="P9KJaleEk5JdlTZmLVwr-13" value="&lt;pre style=&quot;background-color: rgb(255 , 255 , 255) ; font-family: &amp;#34;menlo&amp;#34; ; font-size: 13.5pt&quot;&gt;addListener&lt;/pre&gt;" style="text;html=1;strokeColor=none;fillColor=none;align=center;verticalAlign=middle;whiteSpace=wrap;rounded=0;fontSize=40;" vertex="1" parent="di3lmy-FNdIkozkWoKXd-1">
          <mxGeometry x="60" y="520" width="40" height="20" as="geometry" />
        </mxCell>
        <mxCell id="P9KJaleEk5JdlTZmLVwr-14" value="&lt;pre style=&quot;background-color: rgb(255 , 255 , 255) ; font-family: &amp;#34;menlo&amp;#34; ; font-size: 13.5pt&quot;&gt;&lt;pre style=&quot;font-family: &amp;#34;menlo&amp;#34; ; font-size: 13.5pt&quot;&gt;removeListener&lt;/pre&gt;&lt;/pre&gt;" style="text;html=1;strokeColor=none;fillColor=none;align=center;verticalAlign=middle;whiteSpace=wrap;rounded=0;fontSize=40;" vertex="1" parent="di3lmy-FNdIkozkWoKXd-1">
          <mxGeometry x="310" y="520" width="40" height="20" as="geometry" />
        </mxCell>
        <mxCell id="P9KJaleEk5JdlTZmLVwr-15" value="&lt;pre style=&quot;background-color: rgb(255 , 255 , 255) ; font-family: &amp;#34;menlo&amp;#34; ; font-size: 13.5pt&quot;&gt;addListener&lt;/pre&gt;" style="text;html=1;strokeColor=none;fillColor=none;align=center;verticalAlign=middle;whiteSpace=wrap;rounded=0;fontSize=40;" vertex="1" parent="di3lmy-FNdIkozkWoKXd-1">
          <mxGeometry x="550" y="520" width="40" height="20" as="geometry" />
        </mxCell>
        <mxCell id="P9KJaleEk5JdlTZmLVwr-16" value="&lt;pre style=&quot;background-color: rgb(255 , 255 , 255) ; font-family: &amp;#34;menlo&amp;#34; ; font-size: 13.5pt&quot;&gt;&lt;pre style=&quot;font-family: &amp;#34;menlo&amp;#34; ; font-size: 13.5pt&quot;&gt;removeListener&lt;/pre&gt;&lt;/pre&gt;" style="text;html=1;strokeColor=none;fillColor=none;align=center;verticalAlign=middle;whiteSpace=wrap;rounded=0;fontSize=40;" vertex="1" parent="di3lmy-FNdIkozkWoKXd-1">
          <mxGeometry x="780" y="520" width="40" height="20" as="geometry" />
        </mxCell>
      </root>
    </mxGraphModel>
  </diagram>
  <diagram id="HEJ4kyVMsla2TLJ1-F3O" name="mq">
    <mxGraphModel dx="1753" dy="571" grid="0" gridSize="10" guides="1" tooltips="1" connect="1" arrows="1" fold="1" page="1" pageScale="1" pageWidth="827" pageHeight="1169" math="0" shadow="0">
      <root>
        <mxCell id="ueWL2EPA8yRJ8FkjFpVb-0" />
        <mxCell id="ueWL2EPA8yRJ8FkjFpVb-1" parent="ueWL2EPA8yRJ8FkjFpVb-0" />
        <mxCell id="BuzAqomDsLrzL8j367cw-28" value="" style="rounded=1;whiteSpace=wrap;html=1;fontSize=40;" parent="ueWL2EPA8yRJ8FkjFpVb-1" vertex="1">
          <mxGeometry x="-80" y="220" width="1040" height="265" as="geometry" />
        </mxCell>
        <mxCell id="BuzAqomDsLrzL8j367cw-19" value="" style="rounded=1;whiteSpace=wrap;html=1;fontSize=40;" parent="ueWL2EPA8yRJ8FkjFpVb-1" vertex="1">
          <mxGeometry x="480" y="520" width="480" height="360" as="geometry" />
        </mxCell>
        <mxCell id="BuzAqomDsLrzL8j367cw-15" value="" style="rounded=1;whiteSpace=wrap;html=1;fontSize=40;" parent="ueWL2EPA8yRJ8FkjFpVb-1" vertex="1">
          <mxGeometry x="-80" y="520" width="480" height="360" as="geometry" />
        </mxCell>
        <mxCell id="BuzAqomDsLrzL8j367cw-23" style="edgeStyle=orthogonalEdgeStyle;rounded=0;orthogonalLoop=1;jettySize=auto;html=1;fontSize=40;" parent="ueWL2EPA8yRJ8FkjFpVb-1" source="BuzAqomDsLrzL8j367cw-0" target="BuzAqomDsLrzL8j367cw-11" edge="1">
          <mxGeometry relative="1" as="geometry">
            <Array as="points">
              <mxPoint x="140" y="500" />
              <mxPoint x="60" y="500" />
            </Array>
          </mxGeometry>
        </mxCell>
        <mxCell id="BuzAqomDsLrzL8j367cw-0" value="&lt;pre style=&quot;background-color: rgb(255 , 255 , 255) ; font-family: &amp;#34;menlo&amp;#34; ; font-size: 13.5pt&quot;&gt;GdOnsMqConsumer&lt;/pre&gt;" style="rounded=1;whiteSpace=wrap;html=1;fontSize=40;" parent="ueWL2EPA8yRJ8FkjFpVb-1" vertex="1">
          <mxGeometry x="60" y="394" width="160" height="80" as="geometry" />
        </mxCell>
        <mxCell id="BuzAqomDsLrzL8j367cw-24" style="edgeStyle=orthogonalEdgeStyle;rounded=0;orthogonalLoop=1;jettySize=auto;html=1;fontSize=40;" parent="ueWL2EPA8yRJ8FkjFpVb-1" source="BuzAqomDsLrzL8j367cw-2" target="BuzAqomDsLrzL8j367cw-12" edge="1">
          <mxGeometry relative="1" as="geometry">
            <Array as="points">
              <mxPoint x="340" y="500" />
              <mxPoint x="620" y="500" />
            </Array>
          </mxGeometry>
        </mxCell>
        <mxCell id="BuzAqomDsLrzL8j367cw-2" value="&lt;pre style=&quot;background-color: rgb(255 , 255 , 255) ; font-family: &amp;#34;menlo&amp;#34; ; font-size: 13.5pt&quot;&gt;GdRocketMqConsumer&lt;/pre&gt;" style="rounded=1;whiteSpace=wrap;html=1;fontSize=40;" parent="ueWL2EPA8yRJ8FkjFpVb-1" vertex="1">
          <mxGeometry x="260" y="394" width="160" height="80" as="geometry" />
        </mxCell>
        <mxCell id="BuzAqomDsLrzL8j367cw-27" style="edgeStyle=orthogonalEdgeStyle;rounded=0;orthogonalLoop=1;jettySize=auto;html=1;fontSize=40;" parent="ueWL2EPA8yRJ8FkjFpVb-1" source="BuzAqomDsLrzL8j367cw-3" target="BuzAqomDsLrzL8j367cw-13" edge="1">
          <mxGeometry relative="1" as="geometry">
            <Array as="points">
              <mxPoint x="540" y="510" />
              <mxPoint x="270" y="510" />
            </Array>
          </mxGeometry>
        </mxCell>
        <mxCell id="BuzAqomDsLrzL8j367cw-3" value="&lt;pre style=&quot;background-color: rgb(255 , 255 , 255) ; font-family: &amp;#34;menlo&amp;#34; ; font-size: 13.5pt&quot;&gt;GdOnsMqProducer&lt;/pre&gt;" style="rounded=1;whiteSpace=wrap;html=1;fontSize=40;" parent="ueWL2EPA8yRJ8FkjFpVb-1" vertex="1">
          <mxGeometry x="460" y="394" width="160" height="80" as="geometry" />
        </mxCell>
        <mxCell id="BuzAqomDsLrzL8j367cw-25" style="edgeStyle=orthogonalEdgeStyle;rounded=0;orthogonalLoop=1;jettySize=auto;html=1;fontSize=40;entryX=0.5;entryY=0;entryDx=0;entryDy=0;" parent="ueWL2EPA8yRJ8FkjFpVb-1" source="BuzAqomDsLrzL8j367cw-4" target="BuzAqomDsLrzL8j367cw-14" edge="1">
          <mxGeometry relative="1" as="geometry">
            <Array as="points">
              <mxPoint x="740" y="510" />
              <mxPoint x="830" y="510" />
            </Array>
          </mxGeometry>
        </mxCell>
        <mxCell id="BuzAqomDsLrzL8j367cw-4" value="&lt;pre style=&quot;background-color: rgb(255 , 255 , 255) ; font-family: &amp;#34;menlo&amp;#34; ; font-size: 13.5pt&quot;&gt;GdRocketMqProducer&lt;/pre&gt;" style="rounded=1;whiteSpace=wrap;html=1;fontSize=40;" parent="ueWL2EPA8yRJ8FkjFpVb-1" vertex="1">
          <mxGeometry x="660" y="394" width="160" height="80" as="geometry" />
        </mxCell>
        <mxCell id="BuzAqomDsLrzL8j367cw-9" style="edgeStyle=orthogonalEdgeStyle;rounded=0;orthogonalLoop=1;jettySize=auto;html=1;entryX=0.5;entryY=0;entryDx=0;entryDy=0;fontSize=40;" parent="ueWL2EPA8yRJ8FkjFpVb-1" source="BuzAqomDsLrzL8j367cw-5" target="BuzAqomDsLrzL8j367cw-3" edge="1">
          <mxGeometry relative="1" as="geometry" />
        </mxCell>
        <mxCell id="BuzAqomDsLrzL8j367cw-10" style="edgeStyle=orthogonalEdgeStyle;rounded=0;orthogonalLoop=1;jettySize=auto;html=1;entryX=0.5;entryY=0;entryDx=0;entryDy=0;fontSize=40;" parent="ueWL2EPA8yRJ8FkjFpVb-1" source="BuzAqomDsLrzL8j367cw-5" target="BuzAqomDsLrzL8j367cw-4" edge="1">
          <mxGeometry relative="1" as="geometry" />
        </mxCell>
        <mxCell id="BuzAqomDsLrzL8j367cw-5" value="&lt;pre style=&quot;background-color: rgb(255 , 255 , 255) ; font-family: &amp;#34;menlo&amp;#34; ; font-size: 13.5pt&quot;&gt;GdMqProducer&lt;/pre&gt;" style="rounded=1;whiteSpace=wrap;html=1;fontSize=40;" parent="ueWL2EPA8yRJ8FkjFpVb-1" vertex="1">
          <mxGeometry x="560" y="234" width="160" height="80" as="geometry" />
        </mxCell>
        <mxCell id="BuzAqomDsLrzL8j367cw-7" style="edgeStyle=orthogonalEdgeStyle;rounded=0;orthogonalLoop=1;jettySize=auto;html=1;entryX=0.5;entryY=0;entryDx=0;entryDy=0;fontSize=40;" parent="ueWL2EPA8yRJ8FkjFpVb-1" source="BuzAqomDsLrzL8j367cw-6" target="BuzAqomDsLrzL8j367cw-0" edge="1">
          <mxGeometry relative="1" as="geometry" />
        </mxCell>
        <mxCell id="BuzAqomDsLrzL8j367cw-8" style="edgeStyle=orthogonalEdgeStyle;rounded=0;orthogonalLoop=1;jettySize=auto;html=1;entryX=0.5;entryY=0;entryDx=0;entryDy=0;fontSize=40;" parent="ueWL2EPA8yRJ8FkjFpVb-1" source="BuzAqomDsLrzL8j367cw-6" target="BuzAqomDsLrzL8j367cw-2" edge="1">
          <mxGeometry relative="1" as="geometry" />
        </mxCell>
        <mxCell id="BuzAqomDsLrzL8j367cw-6" value="&lt;pre style=&quot;background-color: rgb(255 , 255 , 255) ; font-family: &amp;#34;menlo&amp;#34; ; font-size: 13.5pt&quot;&gt;&lt;pre style=&quot;font-family: &amp;#34;menlo&amp;#34; ; font-size: 13.5pt&quot;&gt;GdMqConsumer&lt;/pre&gt;&lt;/pre&gt;" style="rounded=1;whiteSpace=wrap;html=1;fontSize=40;" parent="ueWL2EPA8yRJ8FkjFpVb-1" vertex="1">
          <mxGeometry x="160" y="234" width="160" height="80" as="geometry" />
        </mxCell>
        <mxCell id="BuzAqomDsLrzL8j367cw-11" value="&lt;pre style=&quot;background-color: rgb(255 , 255 , 255) ; font-family: &amp;#34;menlo&amp;#34; ; font-size: 13.5pt&quot;&gt;&lt;pre style=&quot;font-family: &amp;#34;menlo&amp;#34; ; font-size: 13.5pt&quot;&gt;Consumer&lt;/pre&gt;&lt;/pre&gt;" style="rounded=1;whiteSpace=wrap;html=1;fontSize=40;" parent="ueWL2EPA8yRJ8FkjFpVb-1" vertex="1">
          <mxGeometry x="-20" y="700" width="160" height="80" as="geometry" />
        </mxCell>
        <mxCell id="BuzAqomDsLrzL8j367cw-12" value="&lt;pre style=&quot;background-color: rgb(255 , 255 , 255) ; font-family: &amp;#34;menlo&amp;#34; ; font-size: 13.5pt&quot;&gt;&lt;pre style=&quot;font-family: &amp;#34;menlo&amp;#34; ; font-size: 13.5pt&quot;&gt;&lt;pre style=&quot;font-family: &amp;#34;menlo&amp;#34; ; font-size: 13.5pt&quot;&gt;DefaultMQPushConsumer&lt;/pre&gt;&lt;/pre&gt;&lt;/pre&gt;" style="rounded=1;whiteSpace=wrap;html=1;fontSize=40;" parent="ueWL2EPA8yRJ8FkjFpVb-1" vertex="1">
          <mxGeometry x="540" y="700" width="160" height="80" as="geometry" />
        </mxCell>
        <mxCell id="BuzAqomDsLrzL8j367cw-13" value="&lt;pre style=&quot;background-color: rgb(255 , 255 , 255) ; font-family: &amp;#34;menlo&amp;#34; ; font-size: 13.5pt&quot;&gt;&lt;pre style=&quot;font-family: &amp;#34;menlo&amp;#34; ; font-size: 13.5pt&quot;&gt;&lt;pre style=&quot;font-family: &amp;#34;menlo&amp;#34; ; font-size: 13.5pt&quot;&gt;Producer&lt;/pre&gt;&lt;/pre&gt;&lt;/pre&gt;" style="rounded=1;whiteSpace=wrap;html=1;fontSize=40;" parent="ueWL2EPA8yRJ8FkjFpVb-1" vertex="1">
          <mxGeometry x="190" y="700" width="160" height="80" as="geometry" />
        </mxCell>
        <mxCell id="BuzAqomDsLrzL8j367cw-14" value="&lt;pre style=&quot;background-color: rgb(255 , 255 , 255) ; font-family: &amp;#34;menlo&amp;#34; ; font-size: 13.5pt&quot;&gt;&lt;pre style=&quot;font-family: &amp;#34;menlo&amp;#34; ; font-size: 13.5pt&quot;&gt;&lt;pre style=&quot;font-family: &amp;#34;menlo&amp;#34; ; font-size: 13.5pt&quot;&gt;&lt;pre style=&quot;font-family: &amp;#34;menlo&amp;#34; ; font-size: 13.5pt&quot;&gt;DefaultMQProducer&lt;/pre&gt;&lt;/pre&gt;&lt;/pre&gt;&lt;/pre&gt;" style="rounded=1;whiteSpace=wrap;html=1;fontSize=40;" parent="ueWL2EPA8yRJ8FkjFpVb-1" vertex="1">
          <mxGeometry x="750" y="700" width="160" height="80" as="geometry" />
        </mxCell>
        <mxCell id="BuzAqomDsLrzL8j367cw-16" value="ons core" style="text;html=1;strokeColor=none;fillColor=none;align=center;verticalAlign=middle;whiteSpace=wrap;rounded=0;fontSize=40;" parent="ueWL2EPA8yRJ8FkjFpVb-1" vertex="1">
          <mxGeometry x="30" y="567" width="260" height="35" as="geometry" />
        </mxCell>
        <mxCell id="BuzAqomDsLrzL8j367cw-22" value="rocketmq core" style="text;html=1;strokeColor=none;fillColor=none;align=center;verticalAlign=middle;whiteSpace=wrap;rounded=0;fontSize=40;" parent="ueWL2EPA8yRJ8FkjFpVb-1" vertex="1">
          <mxGeometry x="590" y="565" width="260" height="35" as="geometry" />
        </mxCell>
      </root>
    </mxGraphModel>
  </diagram>
  <diagram id="Rqar-P015V1f9N7gut7l" name="应用构建流程图">
    <mxGraphModel dx="926" dy="1740" grid="1" gridSize="10" guides="1" tooltips="1" connect="1" arrows="1" fold="1" page="1" pageScale="1" pageWidth="827" pageHeight="1169" math="0" shadow="0">
      <root>
        <mxCell id="o5Iw3CG2uTKTgNNNu6Rj-0" />
        <mxCell id="o5Iw3CG2uTKTgNNNu6Rj-1" parent="o5Iw3CG2uTKTgNNNu6Rj-0" />
        <mxCell id="o5Iw3CG2uTKTgNNNu6Rj-9" style="edgeStyle=orthogonalEdgeStyle;rounded=0;orthogonalLoop=1;jettySize=auto;html=1;fontSize=18;" parent="o5Iw3CG2uTKTgNNNu6Rj-1" source="o5Iw3CG2uTKTgNNNu6Rj-4" target="o5Iw3CG2uTKTgNNNu6Rj-8" edge="1">
          <mxGeometry relative="1" as="geometry" />
        </mxCell>
        <mxCell id="o5Iw3CG2uTKTgNNNu6Rj-4" value="&lt;font style=&quot;font-size: 18px ; line-height: 100%&quot;&gt;aone流水线&lt;/font&gt;" style="rounded=1;whiteSpace=wrap;html=1;absoluteArcSize=1;arcSize=14;strokeWidth=2;fontSize=18;" parent="o5Iw3CG2uTKTgNNNu6Rj-1" vertex="1">
          <mxGeometry x="80" y="160" width="100" height="100" as="geometry" />
        </mxCell>
        <mxCell id="o5Iw3CG2uTKTgNNNu6Rj-6" style="edgeStyle=orthogonalEdgeStyle;rounded=0;orthogonalLoop=1;jettySize=auto;html=1;entryX=0.5;entryY=0;entryDx=0;entryDy=0;fontSize=18;" parent="o5Iw3CG2uTKTgNNNu6Rj-1" source="o5Iw3CG2uTKTgNNNu6Rj-5" target="o5Iw3CG2uTKTgNNNu6Rj-4" edge="1">
          <mxGeometry relative="1" as="geometry" />
        </mxCell>
        <mxCell id="o5Iw3CG2uTKTgNNNu6Rj-5" value="&lt;div style=&quot;text-align: justify; font-size: 18px;&quot;&gt;&lt;span style=&quot;font-size: 18px;&quot;&gt;发布&lt;/span&gt;&lt;/div&gt;" style="strokeWidth=2;html=1;shape=mxgraph.flowchart.start_2;whiteSpace=wrap;fontSize=18;align=center;verticalAlign=middle;" parent="o5Iw3CG2uTKTgNNNu6Rj-1" vertex="1">
          <mxGeometry x="80" width="100" height="100" as="geometry" />
        </mxCell>
        <mxCell id="o5Iw3CG2uTKTgNNNu6Rj-12" style="edgeStyle=orthogonalEdgeStyle;rounded=0;orthogonalLoop=1;jettySize=auto;html=1;fontSize=18;" parent="o5Iw3CG2uTKTgNNNu6Rj-1" source="o5Iw3CG2uTKTgNNNu6Rj-8" target="o5Iw3CG2uTKTgNNNu6Rj-11" edge="1">
          <mxGeometry relative="1" as="geometry" />
        </mxCell>
        <mxCell id="o5Iw3CG2uTKTgNNNu6Rj-13" value="commitId" style="text;html=1;align=center;verticalAlign=middle;resizable=0;points=[];labelBackgroundColor=#ffffff;fontSize=18;" parent="o5Iw3CG2uTKTgNNNu6Rj-12" vertex="1" connectable="0">
          <mxGeometry x="-0.3" y="1" relative="1" as="geometry">
            <mxPoint x="-51" y="-9" as="offset" />
          </mxGeometry>
        </mxCell>
        <mxCell id="o5Iw3CG2uTKTgNNNu6Rj-8" value="&lt;span style=&quot;text-align: left ; white-space: nowrap&quot;&gt;jenkins&lt;/span&gt;" style="rounded=1;whiteSpace=wrap;html=1;absoluteArcSize=1;arcSize=14;strokeWidth=2;fontSize=18;" parent="o5Iw3CG2uTKTgNNNu6Rj-1" vertex="1">
          <mxGeometry x="80" y="360" width="100" height="100" as="geometry" />
        </mxCell>
        <mxCell id="o5Iw3CG2uTKTgNNNu6Rj-17" style="edgeStyle=orthogonalEdgeStyle;rounded=0;orthogonalLoop=1;jettySize=auto;html=1;entryX=0;entryY=0.5;entryDx=0;entryDy=0;fontSize=18;" parent="o5Iw3CG2uTKTgNNNu6Rj-1" source="o5Iw3CG2uTKTgNNNu6Rj-11" target="o5Iw3CG2uTKTgNNNu6Rj-16" edge="1">
          <mxGeometry relative="1" as="geometry" />
        </mxCell>
        <mxCell id="o5Iw3CG2uTKTgNNNu6Rj-19" style="edgeStyle=orthogonalEdgeStyle;rounded=0;orthogonalLoop=1;jettySize=auto;html=1;fontSize=18;" parent="o5Iw3CG2uTKTgNNNu6Rj-1" source="o5Iw3CG2uTKTgNNNu6Rj-11" edge="1">
          <mxGeometry relative="1" as="geometry">
            <mxPoint x="130" y="800" as="targetPoint" />
          </mxGeometry>
        </mxCell>
        <mxCell id="o5Iw3CG2uTKTgNNNu6Rj-23" style="edgeStyle=orthogonalEdgeStyle;rounded=0;orthogonalLoop=1;jettySize=auto;html=1;entryX=0;entryY=0.5;entryDx=0;entryDy=0;fontSize=18;" parent="o5Iw3CG2uTKTgNNNu6Rj-1" source="o5Iw3CG2uTKTgNNNu6Rj-11" target="o5Iw3CG2uTKTgNNNu6Rj-22" edge="1">
          <mxGeometry relative="1" as="geometry" />
        </mxCell>
        <mxCell id="o5Iw3CG2uTKTgNNNu6Rj-11" value="&lt;div style=&quot;text-align: left&quot;&gt;&lt;span&gt;部署平台&lt;/span&gt;&lt;/div&gt;" style="rounded=1;whiteSpace=wrap;html=1;absoluteArcSize=1;arcSize=14;strokeWidth=2;fontSize=18;" parent="o5Iw3CG2uTKTgNNNu6Rj-1" vertex="1">
          <mxGeometry x="80" y="600" width="100" height="100" as="geometry" />
        </mxCell>
        <mxCell id="o5Iw3CG2uTKTgNNNu6Rj-14" value="imageId" style="text;html=1;align=center;verticalAlign=middle;resizable=0;points=[];labelBackgroundColor=#ffffff;fontSize=18;" parent="o5Iw3CG2uTKTgNNNu6Rj-1" vertex="1" connectable="0">
          <mxGeometry x="60" y="550" as="geometry">
            <mxPoint x="23" y="-19" as="offset" />
          </mxGeometry>
        </mxCell>
        <mxCell id="o5Iw3CG2uTKTgNNNu6Rj-15" value="time" style="text;html=1;align=center;verticalAlign=middle;resizable=0;points=[];labelBackgroundColor=#ffffff;fontSize=18;" parent="o5Iw3CG2uTKTgNNNu6Rj-1" vertex="1" connectable="0">
          <mxGeometry x="60" y="610" as="geometry">
            <mxPoint x="23" y="-49" as="offset" />
          </mxGeometry>
        </mxCell>
        <mxCell id="o5Iw3CG2uTKTgNNNu6Rj-16" value="工单系统" style="rounded=1;whiteSpace=wrap;html=1;absoluteArcSize=1;arcSize=14;strokeWidth=2;fontSize=18;" parent="o5Iw3CG2uTKTgNNNu6Rj-1" vertex="1">
          <mxGeometry x="414" y="600" width="100" height="100" as="geometry" />
        </mxCell>
        <mxCell id="o5Iw3CG2uTKTgNNNu6Rj-18" value="拉取" style="text;html=1;align=center;verticalAlign=middle;resizable=0;points=[];labelBackgroundColor=#ffffff;fontSize=18;" parent="o5Iw3CG2uTKTgNNNu6Rj-1" vertex="1" connectable="0">
          <mxGeometry x="260" y="680" as="geometry">
            <mxPoint x="23" y="-49" as="offset" />
          </mxGeometry>
        </mxCell>
        <mxCell id="o5Iw3CG2uTKTgNNNu6Rj-20" value="version" style="text;html=1;align=center;verticalAlign=middle;resizable=0;points=[];labelBackgroundColor=#ffffff;fontSize=18;" parent="o5Iw3CG2uTKTgNNNu6Rj-1" vertex="1" connectable="0">
          <mxGeometry x="130" y="740" as="geometry">
            <mxPoint x="-51" y="-9" as="offset" />
          </mxGeometry>
        </mxCell>
        <mxCell id="o5Iw3CG2uTKTgNNNu6Rj-25" style="edgeStyle=orthogonalEdgeStyle;rounded=0;orthogonalLoop=1;jettySize=auto;html=1;entryX=0.5;entryY=0;entryDx=0;entryDy=0;fontSize=18;" parent="o5Iw3CG2uTKTgNNNu6Rj-1" source="o5Iw3CG2uTKTgNNNu6Rj-21" target="o5Iw3CG2uTKTgNNNu6Rj-24" edge="1">
          <mxGeometry relative="1" as="geometry" />
        </mxCell>
        <mxCell id="o5Iw3CG2uTKTgNNNu6Rj-21" value="发布单" style="rounded=1;whiteSpace=wrap;html=1;absoluteArcSize=1;arcSize=14;strokeWidth=2;fontSize=18;" parent="o5Iw3CG2uTKTgNNNu6Rj-1" vertex="1">
          <mxGeometry x="80" y="800" width="100" height="100" as="geometry" />
        </mxCell>
        <mxCell id="o5Iw3CG2uTKTgNNNu6Rj-22" value="前端" style="rounded=1;whiteSpace=wrap;html=1;absoluteArcSize=1;arcSize=14;strokeWidth=2;fontSize=18;" parent="o5Iw3CG2uTKTgNNNu6Rj-1" vertex="1">
          <mxGeometry x="420" y="720" width="100" height="100" as="geometry" />
        </mxCell>
        <mxCell id="o5Iw3CG2uTKTgNNNu6Rj-24" value="block" style="rounded=1;whiteSpace=wrap;html=1;absoluteArcSize=1;arcSize=14;strokeWidth=2;fontSize=18;" parent="o5Iw3CG2uTKTgNNNu6Rj-1" vertex="1">
          <mxGeometry x="80" y="1000" width="100" height="100" as="geometry" />
        </mxCell>
      </root>
    </mxGraphModel>
  </diagram>
  <diagram id="inMpp-F8UYg4cHJ_RVli" name="构建图">
    <mxGraphModel dx="1753" dy="571" grid="1" gridSize="10" guides="1" tooltips="1" connect="1" arrows="1" fold="1" page="1" pageScale="1" pageWidth="827" pageHeight="1169" math="0" shadow="0">
      <root>
        <mxCell id="YzN2GEv2bT3IJZJSP-g7-0" />
        <mxCell id="YzN2GEv2bT3IJZJSP-g7-1" parent="YzN2GEv2bT3IJZJSP-g7-0" />
        <mxCell id="YzN2GEv2bT3IJZJSP-g7-5" style="edgeStyle=orthogonalEdgeStyle;rounded=0;orthogonalLoop=1;jettySize=auto;html=1;entryX=0.5;entryY=0;entryDx=0;entryDy=0;fontSize=18;" parent="YzN2GEv2bT3IJZJSP-g7-1" source="YzN2GEv2bT3IJZJSP-g7-2" target="YzN2GEv2bT3IJZJSP-g7-4" edge="1">
          <mxGeometry relative="1" as="geometry" />
        </mxCell>
        <mxCell id="YzN2GEv2bT3IJZJSP-g7-2" value="构建" style="strokeWidth=2;html=1;shape=mxgraph.flowchart.start_2;whiteSpace=wrap;fontSize=18;" parent="YzN2GEv2bT3IJZJSP-g7-1" vertex="1">
          <mxGeometry x="80" y="40" width="100" height="100" as="geometry" />
        </mxCell>
        <mxCell id="YzN2GEv2bT3IJZJSP-g7-13" style="edgeStyle=orthogonalEdgeStyle;rounded=0;orthogonalLoop=1;jettySize=auto;html=1;entryX=0.5;entryY=0;entryDx=0;entryDy=0;entryPerimeter=0;fontSize=18;" parent="YzN2GEv2bT3IJZJSP-g7-1" source="YzN2GEv2bT3IJZJSP-g7-4" target="YzN2GEv2bT3IJZJSP-g7-12" edge="1">
          <mxGeometry relative="1" as="geometry" />
        </mxCell>
        <mxCell id="YzN2GEv2bT3IJZJSP-g7-4" value="输入属性" style="rounded=1;whiteSpace=wrap;html=1;absoluteArcSize=1;arcSize=14;strokeWidth=2;fontSize=18;" parent="YzN2GEv2bT3IJZJSP-g7-1" vertex="1">
          <mxGeometry x="80" y="200" width="100" height="100" as="geometry" />
        </mxCell>
        <mxCell id="YzN2GEv2bT3IJZJSP-g7-6" value="" style="strokeWidth=2;html=1;shape=mxgraph.flowchart.annotation_2;align=left;labelPosition=right;pointerEvents=1;fontSize=18;" parent="YzN2GEv2bT3IJZJSP-g7-1" vertex="1">
          <mxGeometry x="20" y="200" width="50" height="100" as="geometry" />
        </mxCell>
        <mxCell id="YzN2GEv2bT3IJZJSP-g7-9" value="唯一版本" style="text;html=1;strokeColor=none;fillColor=none;align=center;verticalAlign=middle;whiteSpace=wrap;rounded=0;fontSize=18;" parent="YzN2GEv2bT3IJZJSP-g7-1" vertex="1">
          <mxGeometry x="-60" y="240" width="80" height="20" as="geometry" />
        </mxCell>
        <mxCell id="YzN2GEv2bT3IJZJSP-g7-14" style="edgeStyle=orthogonalEdgeStyle;rounded=0;orthogonalLoop=1;jettySize=auto;html=1;fontSize=18;" parent="YzN2GEv2bT3IJZJSP-g7-1" source="YzN2GEv2bT3IJZJSP-g7-12" edge="1">
          <mxGeometry relative="1" as="geometry">
            <mxPoint x="-70" y="600" as="targetPoint" />
          </mxGeometry>
        </mxCell>
        <mxCell id="YzN2GEv2bT3IJZJSP-g7-17" value="Y" style="text;html=1;align=center;verticalAlign=middle;resizable=0;points=[];labelBackgroundColor=#ffffff;fontSize=18;" parent="YzN2GEv2bT3IJZJSP-g7-14" vertex="1" connectable="0">
          <mxGeometry x="-0.54" y="3" relative="1" as="geometry">
            <mxPoint as="offset" />
          </mxGeometry>
        </mxCell>
        <mxCell id="YzN2GEv2bT3IJZJSP-g7-31" style="edgeStyle=orthogonalEdgeStyle;rounded=0;orthogonalLoop=1;jettySize=auto;html=1;fontSize=18;" parent="YzN2GEv2bT3IJZJSP-g7-1" source="YzN2GEv2bT3IJZJSP-g7-12" target="YzN2GEv2bT3IJZJSP-g7-18" edge="1">
          <mxGeometry relative="1" as="geometry" />
        </mxCell>
        <mxCell id="YzN2GEv2bT3IJZJSP-g7-33" value="N" style="text;html=1;align=center;verticalAlign=middle;resizable=0;points=[];labelBackgroundColor=#ffffff;fontSize=18;" parent="YzN2GEv2bT3IJZJSP-g7-31" vertex="1" connectable="0">
          <mxGeometry x="-0.2857" y="-2" relative="1" as="geometry">
            <mxPoint as="offset" />
          </mxGeometry>
        </mxCell>
        <mxCell id="YzN2GEv2bT3IJZJSP-g7-12" value="补丁" style="strokeWidth=2;html=1;shape=mxgraph.flowchart.decision;whiteSpace=wrap;fontSize=18;" parent="YzN2GEv2bT3IJZJSP-g7-1" vertex="1">
          <mxGeometry x="80" y="400" width="100" height="100" as="geometry" />
        </mxCell>
        <mxCell id="YzN2GEv2bT3IJZJSP-g7-20" style="edgeStyle=orthogonalEdgeStyle;rounded=0;orthogonalLoop=1;jettySize=auto;html=1;entryX=0.5;entryY=0;entryDx=0;entryDy=0;entryPerimeter=0;fontSize=18;" parent="YzN2GEv2bT3IJZJSP-g7-1" source="YzN2GEv2bT3IJZJSP-g7-15" target="YzN2GEv2bT3IJZJSP-g7-19" edge="1">
          <mxGeometry relative="1" as="geometry" />
        </mxCell>
        <mxCell id="YzN2GEv2bT3IJZJSP-g7-15" value="上传jar（复数？）" style="rounded=1;whiteSpace=wrap;html=1;absoluteArcSize=1;arcSize=14;strokeWidth=2;fontSize=18;" parent="YzN2GEv2bT3IJZJSP-g7-1" vertex="1">
          <mxGeometry x="-120" y="550" width="100" height="100" as="geometry" />
        </mxCell>
        <mxCell id="YzN2GEv2bT3IJZJSP-g7-16" value="补丁分支一直保留，只改代码" style="text;html=1;strokeColor=none;fillColor=none;align=center;verticalAlign=middle;whiteSpace=wrap;rounded=0;fontSize=18;" parent="YzN2GEv2bT3IJZJSP-g7-1" vertex="1">
          <mxGeometry x="-240" y="480" width="170" height="40" as="geometry" />
        </mxCell>
        <mxCell id="YzN2GEv2bT3IJZJSP-g7-35" value="Y" style="edgeStyle=orthogonalEdgeStyle;rounded=0;orthogonalLoop=1;jettySize=auto;html=1;entryX=0.5;entryY=0;entryDx=0;entryDy=0;fontSize=18;" parent="YzN2GEv2bT3IJZJSP-g7-1" source="YzN2GEv2bT3IJZJSP-g7-18" target="YzN2GEv2bT3IJZJSP-g7-34" edge="1">
          <mxGeometry relative="1" as="geometry" />
        </mxCell>
        <mxCell id="YzN2GEv2bT3IJZJSP-g7-37" value="N" style="edgeStyle=orthogonalEdgeStyle;rounded=0;orthogonalLoop=1;jettySize=auto;html=1;entryX=0.5;entryY=0;entryDx=0;entryDy=0;entryPerimeter=0;fontSize=18;" parent="YzN2GEv2bT3IJZJSP-g7-1" source="YzN2GEv2bT3IJZJSP-g7-18" target="YzN2GEv2bT3IJZJSP-g7-36" edge="1">
          <mxGeometry relative="1" as="geometry" />
        </mxCell>
        <mxCell id="YzN2GEv2bT3IJZJSP-g7-18" value="变更" style="strokeWidth=2;html=1;shape=mxgraph.flowchart.decision;whiteSpace=wrap;fontSize=18;" parent="YzN2GEv2bT3IJZJSP-g7-1" vertex="1">
          <mxGeometry x="320" y="550" width="100" height="100" as="geometry" />
        </mxCell>
        <mxCell id="YzN2GEv2bT3IJZJSP-g7-22" value="" style="edgeStyle=orthogonalEdgeStyle;rounded=0;orthogonalLoop=1;jettySize=auto;html=1;fontSize=18;exitX=0.5;exitY=1;exitDx=0;exitDy=0;exitPerimeter=0;entryX=1;entryY=0.5;entryDx=0;entryDy=0;" parent="YzN2GEv2bT3IJZJSP-g7-1" source="YzN2GEv2bT3IJZJSP-g7-19" target="YzN2GEv2bT3IJZJSP-g7-21" edge="1">
          <mxGeometry relative="1" as="geometry" />
        </mxCell>
        <mxCell id="YzN2GEv2bT3IJZJSP-g7-25" style="edgeStyle=orthogonalEdgeStyle;rounded=0;orthogonalLoop=1;jettySize=auto;html=1;entryX=1;entryY=0.5;entryDx=0;entryDy=0;fontSize=18;exitX=1;exitY=0.5;exitDx=0;exitDy=0;exitPerimeter=0;" parent="YzN2GEv2bT3IJZJSP-g7-1" source="YzN2GEv2bT3IJZJSP-g7-19" target="YzN2GEv2bT3IJZJSP-g7-15" edge="1">
          <mxGeometry relative="1" as="geometry">
            <Array as="points">
              <mxPoint x="80" y="770" />
              <mxPoint x="80" y="600" />
            </Array>
          </mxGeometry>
        </mxCell>
        <mxCell id="YzN2GEv2bT3IJZJSP-g7-26" value="N" style="text;html=1;align=center;verticalAlign=middle;resizable=0;points=[];labelBackgroundColor=#ffffff;fontSize=18;" parent="YzN2GEv2bT3IJZJSP-g7-25" vertex="1" connectable="0">
          <mxGeometry x="0.1056" y="1" relative="1" as="geometry">
            <mxPoint as="offset" />
          </mxGeometry>
        </mxCell>
        <mxCell id="YzN2GEv2bT3IJZJSP-g7-28" style="edgeStyle=orthogonalEdgeStyle;rounded=0;orthogonalLoop=1;jettySize=auto;html=1;fontSize=18;" parent="YzN2GEv2bT3IJZJSP-g7-1" source="YzN2GEv2bT3IJZJSP-g7-19" target="YzN2GEv2bT3IJZJSP-g7-27" edge="1">
          <mxGeometry relative="1" as="geometry" />
        </mxCell>
        <mxCell id="YzN2GEv2bT3IJZJSP-g7-30" value="Y" style="text;html=1;align=center;verticalAlign=middle;resizable=0;points=[];labelBackgroundColor=#ffffff;fontSize=18;" parent="YzN2GEv2bT3IJZJSP-g7-28" vertex="1" connectable="0">
          <mxGeometry x="-0.8111" relative="1" as="geometry">
            <mxPoint as="offset" />
          </mxGeometry>
        </mxCell>
        <mxCell id="YzN2GEv2bT3IJZJSP-g7-19" value="校验" style="strokeWidth=2;html=1;shape=mxgraph.flowchart.decision;whiteSpace=wrap;fontSize=18;" parent="YzN2GEv2bT3IJZJSP-g7-1" vertex="1">
          <mxGeometry x="-120" y="720" width="100" height="100" as="geometry" />
        </mxCell>
        <mxCell id="YzN2GEv2bT3IJZJSP-g7-24" style="edgeStyle=orthogonalEdgeStyle;rounded=0;orthogonalLoop=1;jettySize=auto;html=1;fontSize=18;" parent="YzN2GEv2bT3IJZJSP-g7-1" source="YzN2GEv2bT3IJZJSP-g7-21" target="YzN2GEv2bT3IJZJSP-g7-23" edge="1">
          <mxGeometry relative="1" as="geometry" />
        </mxCell>
        <mxCell id="YzN2GEv2bT3IJZJSP-g7-21" value="推送分支到git" style="rounded=1;whiteSpace=wrap;html=1;absoluteArcSize=1;arcSize=14;strokeWidth=2;fontSize=18;" parent="YzN2GEv2bT3IJZJSP-g7-1" vertex="1">
          <mxGeometry x="-320" y="830" width="100" height="100" as="geometry" />
        </mxCell>
        <mxCell id="YzN2GEv2bT3IJZJSP-g7-23" value="提交分支和commitId" style="rounded=1;whiteSpace=wrap;html=1;absoluteArcSize=1;arcSize=14;strokeWidth=2;fontSize=18;" parent="YzN2GEv2bT3IJZJSP-g7-1" vertex="1">
          <mxGeometry x="-320" y="1040" width="100" height="100" as="geometry" />
        </mxCell>
        <mxCell id="YzN2GEv2bT3IJZJSP-g7-61" style="edgeStyle=orthogonalEdgeStyle;rounded=0;orthogonalLoop=1;jettySize=auto;html=1;entryX=0.5;entryY=0;entryDx=0;entryDy=0;fontSize=18;" parent="YzN2GEv2bT3IJZJSP-g7-1" source="YzN2GEv2bT3IJZJSP-g7-27" target="YzN2GEv2bT3IJZJSP-g7-60" edge="1">
          <mxGeometry relative="1" as="geometry">
            <Array as="points">
              <mxPoint x="-70" y="1690" />
              <mxPoint x="450" y="1690" />
            </Array>
          </mxGeometry>
        </mxCell>
        <mxCell id="YzN2GEv2bT3IJZJSP-g7-27" value="打镜像关联" style="rounded=1;whiteSpace=wrap;html=1;absoluteArcSize=1;arcSize=14;strokeWidth=2;fontSize=18;" parent="YzN2GEv2bT3IJZJSP-g7-1" vertex="1">
          <mxGeometry x="-120" y="1040" width="100" height="100" as="geometry" />
        </mxCell>
        <mxCell id="YzN2GEv2bT3IJZJSP-g7-38" value="N" style="edgeStyle=orthogonalEdgeStyle;rounded=0;orthogonalLoop=1;jettySize=auto;html=1;fontSize=18;entryX=0.5;entryY=0;entryDx=0;entryDy=0;" parent="YzN2GEv2bT3IJZJSP-g7-1" source="YzN2GEv2bT3IJZJSP-g7-40" target="YzN2GEv2bT3IJZJSP-g7-39" edge="1">
          <mxGeometry relative="1" as="geometry">
            <mxPoint x="370" y="940" as="targetPoint" />
          </mxGeometry>
        </mxCell>
        <mxCell id="YzN2GEv2bT3IJZJSP-g7-41" style="edgeStyle=orthogonalEdgeStyle;rounded=0;orthogonalLoop=1;jettySize=auto;html=1;entryX=0.5;entryY=0;entryDx=0;entryDy=0;entryPerimeter=0;fontSize=18;" parent="YzN2GEv2bT3IJZJSP-g7-1" source="YzN2GEv2bT3IJZJSP-g7-34" target="YzN2GEv2bT3IJZJSP-g7-40" edge="1">
          <mxGeometry relative="1" as="geometry" />
        </mxCell>
        <mxCell id="YzN2GEv2bT3IJZJSP-g7-34" value="拉取工单（需要改造，目前同步的表都不明确）" style="rounded=1;whiteSpace=wrap;html=1;absoluteArcSize=1;arcSize=14;strokeWidth=2;fontSize=18;fillColor=#ffe6cc;strokeColor=#d79b00;" parent="YzN2GEv2bT3IJZJSP-g7-1" vertex="1">
          <mxGeometry x="320" y="760" width="100" height="100" as="geometry" />
        </mxCell>
        <mxCell id="YzN2GEv2bT3IJZJSP-g7-48" style="edgeStyle=orthogonalEdgeStyle;rounded=0;orthogonalLoop=1;jettySize=auto;html=1;entryX=0.5;entryY=0;entryDx=0;entryDy=0;fontSize=18;" parent="YzN2GEv2bT3IJZJSP-g7-1" source="YzN2GEv2bT3IJZJSP-g7-36" target="YzN2GEv2bT3IJZJSP-g7-47" edge="1">
          <mxGeometry relative="1" as="geometry" />
        </mxCell>
        <mxCell id="YzN2GEv2bT3IJZJSP-g7-49" value="Y" style="text;html=1;align=center;verticalAlign=middle;resizable=0;points=[];labelBackgroundColor=#ffffff;fontSize=18;" parent="YzN2GEv2bT3IJZJSP-g7-48" vertex="1" connectable="0">
          <mxGeometry x="-0.3933" y="-1" relative="1" as="geometry">
            <mxPoint as="offset" />
          </mxGeometry>
        </mxCell>
        <mxCell id="YzN2GEv2bT3IJZJSP-g7-36" value="发布" style="strokeWidth=2;html=1;shape=mxgraph.flowchart.decision;whiteSpace=wrap;fontSize=18;" parent="YzN2GEv2bT3IJZJSP-g7-1" vertex="1">
          <mxGeometry x="640" y="680" width="100" height="100" as="geometry" />
        </mxCell>
        <mxCell id="YzN2GEv2bT3IJZJSP-g7-39" value="封装脚本文件" style="rounded=1;whiteSpace=wrap;html=1;absoluteArcSize=1;arcSize=14;strokeWidth=2;fontSize=18;fillColor=#ffe6cc;strokeColor=#d79b00;" parent="YzN2GEv2bT3IJZJSP-g7-1" vertex="1">
          <mxGeometry x="80" y="1040" width="100" height="100" as="geometry" />
        </mxCell>
        <mxCell id="YzN2GEv2bT3IJZJSP-g7-43" style="edgeStyle=orthogonalEdgeStyle;rounded=0;orthogonalLoop=1;jettySize=auto;html=1;fontSize=18;" parent="YzN2GEv2bT3IJZJSP-g7-1" source="YzN2GEv2bT3IJZJSP-g7-40" target="YzN2GEv2bT3IJZJSP-g7-42" edge="1">
          <mxGeometry relative="1" as="geometry" />
        </mxCell>
        <mxCell id="YzN2GEv2bT3IJZJSP-g7-44" value="Y" style="text;html=1;align=center;verticalAlign=middle;resizable=0;points=[];labelBackgroundColor=#ffffff;fontSize=18;" parent="YzN2GEv2bT3IJZJSP-g7-43" vertex="1" connectable="0">
          <mxGeometry x="-0.2571" y="2" relative="1" as="geometry">
            <mxPoint as="offset" />
          </mxGeometry>
        </mxCell>
        <mxCell id="YzN2GEv2bT3IJZJSP-g7-40" value="配置" style="strokeWidth=2;html=1;shape=mxgraph.flowchart.decision;whiteSpace=wrap;fontSize=18;" parent="YzN2GEv2bT3IJZJSP-g7-1" vertex="1">
          <mxGeometry x="320" y="960" width="100" height="100" as="geometry" />
        </mxCell>
        <mxCell id="YzN2GEv2bT3IJZJSP-g7-45" style="edgeStyle=orthogonalEdgeStyle;rounded=0;orthogonalLoop=1;jettySize=auto;html=1;fontSize=18;entryX=0.5;entryY=0;entryDx=0;entryDy=0;" parent="YzN2GEv2bT3IJZJSP-g7-1" source="YzN2GEv2bT3IJZJSP-g7-42" target="YzN2GEv2bT3IJZJSP-g7-46" edge="1">
          <mxGeometry relative="1" as="geometry">
            <mxPoint x="560" y="1250" as="targetPoint" />
          </mxGeometry>
        </mxCell>
        <mxCell id="YzN2GEv2bT3IJZJSP-g7-42" value="封装配置请求（也是脚本）" style="rounded=1;whiteSpace=wrap;html=1;absoluteArcSize=1;arcSize=14;strokeWidth=2;fontSize=18;" parent="YzN2GEv2bT3IJZJSP-g7-1" vertex="1">
          <mxGeometry x="320" y="1200" width="100" height="100" as="geometry" />
        </mxCell>
        <mxCell id="YzN2GEv2bT3IJZJSP-g7-62" style="edgeStyle=orthogonalEdgeStyle;rounded=0;orthogonalLoop=1;jettySize=auto;html=1;entryX=0.5;entryY=0;entryDx=0;entryDy=0;fontSize=18;" parent="YzN2GEv2bT3IJZJSP-g7-1" source="YzN2GEv2bT3IJZJSP-g7-46" target="YzN2GEv2bT3IJZJSP-g7-60" edge="1">
          <mxGeometry relative="1" as="geometry">
            <Array as="points">
              <mxPoint x="370" y="1690" />
              <mxPoint x="450" y="1690" />
            </Array>
          </mxGeometry>
        </mxCell>
        <mxCell id="YzN2GEv2bT3IJZJSP-g7-46" value="验证是否重启" style="rounded=1;whiteSpace=wrap;html=1;absoluteArcSize=1;arcSize=14;strokeWidth=2;fontSize=18;" parent="YzN2GEv2bT3IJZJSP-g7-1" vertex="1">
          <mxGeometry x="320" y="1400" width="100" height="100" as="geometry" />
        </mxCell>
        <mxCell id="YzN2GEv2bT3IJZJSP-g7-51" style="edgeStyle=orthogonalEdgeStyle;rounded=0;orthogonalLoop=1;jettySize=auto;html=1;entryX=0.5;entryY=0;entryDx=0;entryDy=0;fontSize=18;exitX=0.5;exitY=1;exitDx=0;exitDy=0;" parent="YzN2GEv2bT3IJZJSP-g7-1" source="YzN2GEv2bT3IJZJSP-g7-47" target="YzN2GEv2bT3IJZJSP-g7-50" edge="1">
          <mxGeometry relative="1" as="geometry" />
        </mxCell>
        <mxCell id="YzN2GEv2bT3IJZJSP-g7-53" style="edgeStyle=orthogonalEdgeStyle;rounded=0;orthogonalLoop=1;jettySize=auto;html=1;entryX=0.5;entryY=0;entryDx=0;entryDy=0;fontSize=18;" parent="YzN2GEv2bT3IJZJSP-g7-1" source="YzN2GEv2bT3IJZJSP-g7-47" target="YzN2GEv2bT3IJZJSP-g7-52" edge="1">
          <mxGeometry relative="1" as="geometry">
            <Array as="points">
              <mxPoint x="690" y="1050" />
              <mxPoint x="810" y="1050" />
            </Array>
          </mxGeometry>
        </mxCell>
        <mxCell id="YzN2GEv2bT3IJZJSP-g7-59" style="edgeStyle=orthogonalEdgeStyle;rounded=0;orthogonalLoop=1;jettySize=auto;html=1;entryX=0.5;entryY=0;entryDx=0;entryDy=0;fontSize=18;" parent="YzN2GEv2bT3IJZJSP-g7-1" source="YzN2GEv2bT3IJZJSP-g7-47" target="YzN2GEv2bT3IJZJSP-g7-58" edge="1">
          <mxGeometry relative="1" as="geometry">
            <Array as="points">
              <mxPoint x="690" y="1050" />
              <mxPoint x="1050" y="1050" />
            </Array>
          </mxGeometry>
        </mxCell>
        <mxCell id="YzN2GEv2bT3IJZJSP-g7-47" value="应用版本选择（Default最新）" style="rounded=1;whiteSpace=wrap;html=1;absoluteArcSize=1;arcSize=14;strokeWidth=2;fontSize=18;" parent="YzN2GEv2bT3IJZJSP-g7-1" vertex="1">
          <mxGeometry x="640" y="880" width="100" height="100" as="geometry" />
        </mxCell>
        <mxCell id="YzN2GEv2bT3IJZJSP-g7-54" style="edgeStyle=orthogonalEdgeStyle;rounded=0;orthogonalLoop=1;jettySize=auto;html=1;entryX=0;entryY=0.5;entryDx=0;entryDy=0;fontSize=18;" parent="YzN2GEv2bT3IJZJSP-g7-1" source="YzN2GEv2bT3IJZJSP-g7-50" target="YzN2GEv2bT3IJZJSP-g7-52" edge="1">
          <mxGeometry relative="1" as="geometry" />
        </mxCell>
        <mxCell id="YzN2GEv2bT3IJZJSP-g7-56" style="edgeStyle=orthogonalEdgeStyle;rounded=0;orthogonalLoop=1;jettySize=auto;html=1;entryX=0;entryY=0.5;entryDx=0;entryDy=0;fontSize=18;" parent="YzN2GEv2bT3IJZJSP-g7-1" source="YzN2GEv2bT3IJZJSP-g7-50" target="YzN2GEv2bT3IJZJSP-g7-55" edge="1">
          <mxGeometry relative="1" as="geometry">
            <Array as="points">
              <mxPoint x="570" y="1330" />
            </Array>
          </mxGeometry>
        </mxCell>
        <mxCell id="YzN2GEv2bT3IJZJSP-g7-50" value="查找关联镜像，手动选择" style="rounded=1;whiteSpace=wrap;html=1;absoluteArcSize=1;arcSize=14;strokeWidth=2;fontSize=18;fillColor=#ffe6cc;strokeColor=#d79b00;" parent="YzN2GEv2bT3IJZJSP-g7-1" vertex="1">
          <mxGeometry x="520" y="1120" width="100" height="100" as="geometry" />
        </mxCell>
        <mxCell id="YzN2GEv2bT3IJZJSP-g7-57" style="edgeStyle=orthogonalEdgeStyle;rounded=0;orthogonalLoop=1;jettySize=auto;html=1;entryX=1;entryY=0.5;entryDx=0;entryDy=0;fontSize=18;" parent="YzN2GEv2bT3IJZJSP-g7-1" source="YzN2GEv2bT3IJZJSP-g7-52" target="YzN2GEv2bT3IJZJSP-g7-55" edge="1">
          <mxGeometry relative="1" as="geometry">
            <Array as="points">
              <mxPoint x="810" y="1330" />
            </Array>
          </mxGeometry>
        </mxCell>
        <mxCell id="YzN2GEv2bT3IJZJSP-g7-52" value="拉取工单" style="rounded=1;whiteSpace=wrap;html=1;absoluteArcSize=1;arcSize=14;strokeWidth=2;fontSize=18;fillColor=#ffe6cc;strokeColor=#d79b00;" parent="YzN2GEv2bT3IJZJSP-g7-1" vertex="1">
          <mxGeometry x="760" y="1120" width="100" height="100" as="geometry" />
        </mxCell>
        <mxCell id="YzN2GEv2bT3IJZJSP-g7-63" style="edgeStyle=orthogonalEdgeStyle;rounded=0;orthogonalLoop=1;jettySize=auto;html=1;entryX=0.5;entryY=0;entryDx=0;entryDy=0;fontSize=18;" parent="YzN2GEv2bT3IJZJSP-g7-1" source="YzN2GEv2bT3IJZJSP-g7-55" target="YzN2GEv2bT3IJZJSP-g7-60" edge="1">
          <mxGeometry relative="1" as="geometry">
            <Array as="points">
              <mxPoint x="690" y="1690" />
              <mxPoint x="450" y="1690" />
            </Array>
          </mxGeometry>
        </mxCell>
        <mxCell id="YzN2GEv2bT3IJZJSP-g7-55" value="脚本封装" style="rounded=1;whiteSpace=wrap;html=1;absoluteArcSize=1;arcSize=14;strokeWidth=2;fontSize=18;fillColor=#ffe6cc;strokeColor=#d79b00;" parent="YzN2GEv2bT3IJZJSP-g7-1" vertex="1">
          <mxGeometry x="640" y="1280" width="100" height="100" as="geometry" />
        </mxCell>
        <mxCell id="YzN2GEv2bT3IJZJSP-g7-64" style="edgeStyle=orthogonalEdgeStyle;rounded=0;orthogonalLoop=1;jettySize=auto;html=1;entryX=0.5;entryY=0;entryDx=0;entryDy=0;fontSize=18;" parent="YzN2GEv2bT3IJZJSP-g7-1" source="YzN2GEv2bT3IJZJSP-g7-58" target="YzN2GEv2bT3IJZJSP-g7-60" edge="1">
          <mxGeometry relative="1" as="geometry">
            <Array as="points">
              <mxPoint x="1050" y="1690" />
              <mxPoint x="450" y="1690" />
            </Array>
          </mxGeometry>
        </mxCell>
        <mxCell id="YzN2GEv2bT3IJZJSP-g7-58" value="查找前端版本" style="rounded=1;whiteSpace=wrap;html=1;absoluteArcSize=1;arcSize=14;strokeWidth=2;fontSize=18;fillColor=#f8cecc;strokeColor=#b85450;" parent="YzN2GEv2bT3IJZJSP-g7-1" vertex="1">
          <mxGeometry x="1000" y="1120" width="100" height="100" as="geometry" />
        </mxCell>
        <mxCell id="YzN2GEv2bT3IJZJSP-g7-60" value="构建包" style="rounded=1;whiteSpace=wrap;html=1;absoluteArcSize=1;arcSize=14;strokeWidth=2;fontSize=18;" parent="YzN2GEv2bT3IJZJSP-g7-1" vertex="1">
          <mxGeometry x="400" y="1740" width="100" height="100" as="geometry" />
        </mxCell>
      </root>
    </mxGraphModel>
  </diagram>
  <diagram id="sZWAI21GMiWWwiFB8qfJ" name="应用构建流程">
    <mxGraphModel dx="926" dy="571" grid="1" gridSize="10" guides="1" tooltips="1" connect="1" arrows="1" fold="1" page="1" pageScale="1" pageWidth="1534" pageHeight="1141" math="0" shadow="0">
      <root>
        <mxCell id="48n0l-ENyJWqGbO_HdOJ-0" />
        <mxCell id="48n0l-ENyJWqGbO_HdOJ-1" parent="48n0l-ENyJWqGbO_HdOJ-0" />
        <mxCell id="48n0l-ENyJWqGbO_HdOJ-4" style="edgeStyle=orthogonalEdgeStyle;rounded=0;orthogonalLoop=1;jettySize=auto;html=1;entryX=0.5;entryY=0;entryDx=0;entryDy=0;exitX=0.5;exitY=1;exitDx=0;exitDy=0;exitPerimeter=0;" edge="1" parent="48n0l-ENyJWqGbO_HdOJ-1" source="48n0l-ENyJWqGbO_HdOJ-10" target="48n0l-ENyJWqGbO_HdOJ-3">
          <mxGeometry relative="1" as="geometry">
            <mxPoint x="90" y="100" as="sourcePoint" />
          </mxGeometry>
        </mxCell>
        <mxCell id="48n0l-ENyJWqGbO_HdOJ-7" style="edgeStyle=orthogonalEdgeStyle;rounded=0;orthogonalLoop=1;jettySize=auto;html=1;entryX=0;entryY=0.5;entryDx=0;entryDy=0;entryPerimeter=0;" edge="1" parent="48n0l-ENyJWqGbO_HdOJ-1" source="48n0l-ENyJWqGbO_HdOJ-3" target="48n0l-ENyJWqGbO_HdOJ-6">
          <mxGeometry relative="1" as="geometry" />
        </mxCell>
        <mxCell id="48n0l-ENyJWqGbO_HdOJ-3" value="新建构建" style="rounded=1;whiteSpace=wrap;html=1;absoluteArcSize=1;arcSize=14;strokeWidth=2;" vertex="1" parent="48n0l-ENyJWqGbO_HdOJ-1">
          <mxGeometry x="40" y="200" width="100" height="100" as="geometry" />
        </mxCell>
        <mxCell id="48n0l-ENyJWqGbO_HdOJ-9" style="edgeStyle=orthogonalEdgeStyle;rounded=0;orthogonalLoop=1;jettySize=auto;html=1;entryX=0;entryY=0.5;entryDx=0;entryDy=0;entryPerimeter=0;" edge="1" parent="48n0l-ENyJWqGbO_HdOJ-1" source="48n0l-ENyJWqGbO_HdOJ-6" target="48n0l-ENyJWqGbO_HdOJ-8">
          <mxGeometry relative="1" as="geometry" />
        </mxCell>
        <mxCell id="48n0l-ENyJWqGbO_HdOJ-16" value="N" style="text;html=1;align=center;verticalAlign=middle;resizable=0;points=[];labelBackgroundColor=#ffffff;" vertex="1" connectable="0" parent="48n0l-ENyJWqGbO_HdOJ-9">
          <mxGeometry x="-0.2667" y="3" relative="1" as="geometry">
            <mxPoint as="offset" />
          </mxGeometry>
        </mxCell>
        <mxCell id="48n0l-ENyJWqGbO_HdOJ-14" style="edgeStyle=orthogonalEdgeStyle;rounded=0;orthogonalLoop=1;jettySize=auto;html=1;entryX=0.5;entryY=0;entryDx=0;entryDy=0;" edge="1" parent="48n0l-ENyJWqGbO_HdOJ-1" source="48n0l-ENyJWqGbO_HdOJ-6" target="48n0l-ENyJWqGbO_HdOJ-13">
          <mxGeometry relative="1" as="geometry" />
        </mxCell>
        <mxCell id="48n0l-ENyJWqGbO_HdOJ-15" value="Y" style="text;html=1;align=center;verticalAlign=middle;resizable=0;points=[];labelBackgroundColor=#ffffff;" vertex="1" connectable="0" parent="48n0l-ENyJWqGbO_HdOJ-14">
          <mxGeometry x="-0.2333" relative="1" as="geometry">
            <mxPoint as="offset" />
          </mxGeometry>
        </mxCell>
        <mxCell id="48n0l-ENyJWqGbO_HdOJ-6" value="发布" style="strokeWidth=2;html=1;shape=mxgraph.flowchart.decision;whiteSpace=wrap;" vertex="1" parent="48n0l-ENyJWqGbO_HdOJ-1">
          <mxGeometry x="200" y="200" width="100" height="100" as="geometry" />
        </mxCell>
        <mxCell id="48n0l-ENyJWqGbO_HdOJ-12" style="edgeStyle=orthogonalEdgeStyle;rounded=0;orthogonalLoop=1;jettySize=auto;html=1;entryX=0;entryY=0.5;entryDx=0;entryDy=0;entryPerimeter=0;" edge="1" parent="48n0l-ENyJWqGbO_HdOJ-1" source="48n0l-ENyJWqGbO_HdOJ-8" target="48n0l-ENyJWqGbO_HdOJ-11">
          <mxGeometry relative="1" as="geometry" />
        </mxCell>
        <mxCell id="48n0l-ENyJWqGbO_HdOJ-18" value="N" style="text;html=1;align=center;verticalAlign=middle;resizable=0;points=[];labelBackgroundColor=#ffffff;" vertex="1" connectable="0" parent="48n0l-ENyJWqGbO_HdOJ-12">
          <mxGeometry x="0.0333" y="2" relative="1" as="geometry">
            <mxPoint as="offset" />
          </mxGeometry>
        </mxCell>
        <mxCell id="48n0l-ENyJWqGbO_HdOJ-28" style="edgeStyle=orthogonalEdgeStyle;rounded=0;orthogonalLoop=1;jettySize=auto;html=1;entryX=0.5;entryY=0;entryDx=0;entryDy=0;" edge="1" parent="48n0l-ENyJWqGbO_HdOJ-1" source="48n0l-ENyJWqGbO_HdOJ-8" target="48n0l-ENyJWqGbO_HdOJ-27">
          <mxGeometry relative="1" as="geometry" />
        </mxCell>
        <mxCell id="48n0l-ENyJWqGbO_HdOJ-29" value="Y" style="text;html=1;align=center;verticalAlign=middle;resizable=0;points=[];labelBackgroundColor=#ffffff;" vertex="1" connectable="0" parent="48n0l-ENyJWqGbO_HdOJ-28">
          <mxGeometry x="-0.2333" y="1" relative="1" as="geometry">
            <mxPoint as="offset" />
          </mxGeometry>
        </mxCell>
        <mxCell id="48n0l-ENyJWqGbO_HdOJ-8" value="配置变更" style="strokeWidth=2;html=1;shape=mxgraph.flowchart.decision;whiteSpace=wrap;" vertex="1" parent="48n0l-ENyJWqGbO_HdOJ-1">
          <mxGeometry x="360" y="200" width="100" height="100" as="geometry" />
        </mxCell>
        <mxCell id="48n0l-ENyJWqGbO_HdOJ-10" value="开始" style="strokeWidth=2;html=1;shape=mxgraph.flowchart.start_2;whiteSpace=wrap;" vertex="1" parent="48n0l-ENyJWqGbO_HdOJ-1">
          <mxGeometry x="40" y="40" width="100" height="100" as="geometry" />
        </mxCell>
        <mxCell id="48n0l-ENyJWqGbO_HdOJ-20" value="Y" style="edgeStyle=orthogonalEdgeStyle;rounded=0;orthogonalLoop=1;jettySize=auto;html=1;entryX=0.5;entryY=0;entryDx=0;entryDy=0;" edge="1" parent="48n0l-ENyJWqGbO_HdOJ-1" source="48n0l-ENyJWqGbO_HdOJ-11" target="48n0l-ENyJWqGbO_HdOJ-19">
          <mxGeometry relative="1" as="geometry" />
        </mxCell>
        <mxCell id="48n0l-ENyJWqGbO_HdOJ-11" value="补丁" style="strokeWidth=2;html=1;shape=mxgraph.flowchart.decision;whiteSpace=wrap;" vertex="1" parent="48n0l-ENyJWqGbO_HdOJ-1">
          <mxGeometry x="520" y="200" width="100" height="100" as="geometry" />
        </mxCell>
        <mxCell id="48n0l-ENyJWqGbO_HdOJ-23" style="edgeStyle=orthogonalEdgeStyle;rounded=0;orthogonalLoop=1;jettySize=auto;html=1;entryX=0.5;entryY=0;entryDx=0;entryDy=0;entryPerimeter=0;" edge="1" parent="48n0l-ENyJWqGbO_HdOJ-1" source="48n0l-ENyJWqGbO_HdOJ-13" target="48n0l-ENyJWqGbO_HdOJ-22">
          <mxGeometry relative="1" as="geometry" />
        </mxCell>
        <mxCell id="48n0l-ENyJWqGbO_HdOJ-42" style="edgeStyle=orthogonalEdgeStyle;rounded=0;orthogonalLoop=1;jettySize=auto;html=1;entryX=0;entryY=0.5;entryDx=0;entryDy=0;startArrow=none;startFill=0;" edge="1" parent="48n0l-ENyJWqGbO_HdOJ-1" source="48n0l-ENyJWqGbO_HdOJ-13" target="48n0l-ENyJWqGbO_HdOJ-27">
          <mxGeometry relative="1" as="geometry" />
        </mxCell>
        <mxCell id="48n0l-ENyJWqGbO_HdOJ-13" value="commitId" style="rounded=1;whiteSpace=wrap;html=1;absoluteArcSize=1;arcSize=14;strokeWidth=2;" vertex="1" parent="48n0l-ENyJWqGbO_HdOJ-1">
          <mxGeometry x="200" y="360" width="100" height="100" as="geometry" />
        </mxCell>
        <mxCell id="48n0l-ENyJWqGbO_HdOJ-52" style="edgeStyle=orthogonalEdgeStyle;rounded=0;orthogonalLoop=1;jettySize=auto;html=1;entryX=1;entryY=0.5;entryDx=0;entryDy=0;startArrow=none;startFill=0;" edge="1" parent="48n0l-ENyJWqGbO_HdOJ-1" source="48n0l-ENyJWqGbO_HdOJ-19" target="48n0l-ENyJWqGbO_HdOJ-27">
          <mxGeometry relative="1" as="geometry" />
        </mxCell>
        <mxCell id="48n0l-ENyJWqGbO_HdOJ-54" style="edgeStyle=orthogonalEdgeStyle;rounded=0;orthogonalLoop=1;jettySize=auto;html=1;startArrow=none;startFill=0;" edge="1" parent="48n0l-ENyJWqGbO_HdOJ-1" source="48n0l-ENyJWqGbO_HdOJ-19">
          <mxGeometry relative="1" as="geometry">
            <mxPoint x="290" y="1080" as="targetPoint" />
            <Array as="points">
              <mxPoint x="640" y="410" />
              <mxPoint x="640" y="1000" />
              <mxPoint x="290" y="1000" />
            </Array>
          </mxGeometry>
        </mxCell>
        <mxCell id="48n0l-ENyJWqGbO_HdOJ-19" value="commitId&lt;br&gt;只有代码" style="rounded=1;whiteSpace=wrap;html=1;absoluteArcSize=1;arcSize=14;strokeWidth=2;" vertex="1" parent="48n0l-ENyJWqGbO_HdOJ-1">
          <mxGeometry x="520" y="360" width="100" height="100" as="geometry" />
        </mxCell>
        <mxCell id="48n0l-ENyJWqGbO_HdOJ-21" value="构建对象" style="strokeWidth=2;html=1;shape=mxgraph.flowchart.terminator;whiteSpace=wrap;" vertex="1" parent="48n0l-ENyJWqGbO_HdOJ-1">
          <mxGeometry x="240" y="1081" width="100" height="60" as="geometry" />
        </mxCell>
        <mxCell id="48n0l-ENyJWqGbO_HdOJ-24" value="Y" style="edgeStyle=orthogonalEdgeStyle;rounded=0;orthogonalLoop=1;jettySize=auto;html=1;entryX=0;entryY=0.5;entryDx=0;entryDy=0;" edge="1" parent="48n0l-ENyJWqGbO_HdOJ-1" source="48n0l-ENyJWqGbO_HdOJ-22" target="48n0l-ENyJWqGbO_HdOJ-13">
          <mxGeometry relative="1" as="geometry">
            <Array as="points">
              <mxPoint x="120" y="571" />
              <mxPoint x="120" y="410" />
            </Array>
          </mxGeometry>
        </mxCell>
        <mxCell id="48n0l-ENyJWqGbO_HdOJ-43" style="edgeStyle=orthogonalEdgeStyle;rounded=0;orthogonalLoop=1;jettySize=auto;html=1;startArrow=none;startFill=0;" edge="1" parent="48n0l-ENyJWqGbO_HdOJ-1" source="48n0l-ENyJWqGbO_HdOJ-22" target="48n0l-ENyJWqGbO_HdOJ-21">
          <mxGeometry relative="1" as="geometry">
            <mxPoint x="270" y="940" as="targetPoint" />
            <Array as="points">
              <mxPoint x="250" y="1000" />
              <mxPoint x="290" y="1000" />
            </Array>
          </mxGeometry>
        </mxCell>
        <mxCell id="48n0l-ENyJWqGbO_HdOJ-22" value="拥有镜像" style="strokeWidth=2;html=1;shape=mxgraph.flowchart.decision;whiteSpace=wrap;" vertex="1" parent="48n0l-ENyJWqGbO_HdOJ-1">
          <mxGeometry x="200" y="521" width="100" height="100" as="geometry" />
        </mxCell>
        <mxCell id="48n0l-ENyJWqGbO_HdOJ-26" value="写入镜像Id" style="text;html=1;strokeColor=none;fillColor=none;align=center;verticalAlign=middle;whiteSpace=wrap;rounded=0;" vertex="1" parent="48n0l-ENyJWqGbO_HdOJ-1">
          <mxGeometry x="130" y="380" width="40" height="20" as="geometry" />
        </mxCell>
        <mxCell id="48n0l-ENyJWqGbO_HdOJ-31" style="edgeStyle=orthogonalEdgeStyle;rounded=0;orthogonalLoop=1;jettySize=auto;html=1;entryX=0.5;entryY=0;entryDx=0;entryDy=0;entryPerimeter=0;" edge="1" parent="48n0l-ENyJWqGbO_HdOJ-1" source="48n0l-ENyJWqGbO_HdOJ-27" target="48n0l-ENyJWqGbO_HdOJ-30">
          <mxGeometry relative="1" as="geometry" />
        </mxCell>
        <mxCell id="48n0l-ENyJWqGbO_HdOJ-46" value="" style="edgeStyle=orthogonalEdgeStyle;rounded=0;orthogonalLoop=1;jettySize=auto;html=1;startArrow=none;startFill=0;" edge="1" parent="48n0l-ENyJWqGbO_HdOJ-1" source="48n0l-ENyJWqGbO_HdOJ-27" target="48n0l-ENyJWqGbO_HdOJ-13">
          <mxGeometry relative="1" as="geometry" />
        </mxCell>
        <mxCell id="48n0l-ENyJWqGbO_HdOJ-53" style="edgeStyle=orthogonalEdgeStyle;rounded=0;orthogonalLoop=1;jettySize=auto;html=1;exitX=1;exitY=0.5;exitDx=0;exitDy=0;entryX=0;entryY=0.5;entryDx=0;entryDy=0;startArrow=none;startFill=0;" edge="1" parent="48n0l-ENyJWqGbO_HdOJ-1" source="48n0l-ENyJWqGbO_HdOJ-27" target="48n0l-ENyJWqGbO_HdOJ-19">
          <mxGeometry relative="1" as="geometry" />
        </mxCell>
        <mxCell id="48n0l-ENyJWqGbO_HdOJ-27" value="commitId&lt;br&gt;验证配置" style="rounded=1;whiteSpace=wrap;html=1;absoluteArcSize=1;arcSize=14;strokeWidth=2;" vertex="1" parent="48n0l-ENyJWqGbO_HdOJ-1">
          <mxGeometry x="360" y="360" width="100" height="100" as="geometry" />
        </mxCell>
        <mxCell id="48n0l-ENyJWqGbO_HdOJ-33" value="Y" style="edgeStyle=orthogonalEdgeStyle;rounded=0;orthogonalLoop=1;jettySize=auto;html=1;entryX=0.5;entryY=0;entryDx=0;entryDy=0;exitX=0;exitY=0.5;exitDx=0;exitDy=0;exitPerimeter=0;" edge="1" parent="48n0l-ENyJWqGbO_HdOJ-1" source="48n0l-ENyJWqGbO_HdOJ-30" target="48n0l-ENyJWqGbO_HdOJ-32">
          <mxGeometry relative="1" as="geometry" />
        </mxCell>
        <mxCell id="48n0l-ENyJWqGbO_HdOJ-38" value="N" style="edgeStyle=orthogonalEdgeStyle;rounded=0;orthogonalLoop=1;jettySize=auto;html=1;entryX=0.5;entryY=0;entryDx=0;entryDy=0;entryPerimeter=0;startArrow=none;startFill=0;" edge="1" parent="48n0l-ENyJWqGbO_HdOJ-1" source="48n0l-ENyJWqGbO_HdOJ-30" target="48n0l-ENyJWqGbO_HdOJ-37">
          <mxGeometry relative="1" as="geometry" />
        </mxCell>
        <mxCell id="48n0l-ENyJWqGbO_HdOJ-48" style="edgeStyle=orthogonalEdgeStyle;rounded=0;orthogonalLoop=1;jettySize=auto;html=1;entryX=0;entryY=0.5;entryDx=0;entryDy=0;startArrow=none;startFill=0;" edge="1" parent="48n0l-ENyJWqGbO_HdOJ-1" source="48n0l-ENyJWqGbO_HdOJ-30" target="48n0l-ENyJWqGbO_HdOJ-35">
          <mxGeometry relative="1" as="geometry" />
        </mxCell>
        <mxCell id="48n0l-ENyJWqGbO_HdOJ-30" value="数据库变更" style="strokeWidth=2;html=1;shape=mxgraph.flowchart.decision;whiteSpace=wrap;" vertex="1" parent="48n0l-ENyJWqGbO_HdOJ-1">
          <mxGeometry x="360" y="521" width="100" height="100" as="geometry" />
        </mxCell>
        <mxCell id="48n0l-ENyJWqGbO_HdOJ-44" style="edgeStyle=orthogonalEdgeStyle;rounded=0;orthogonalLoop=1;jettySize=auto;html=1;startArrow=none;startFill=0;exitX=0.5;exitY=1;exitDx=0;exitDy=0;" edge="1" parent="48n0l-ENyJWqGbO_HdOJ-1" source="48n0l-ENyJWqGbO_HdOJ-32">
          <mxGeometry relative="1" as="geometry">
            <mxPoint x="290" y="1080" as="targetPoint" />
            <Array as="points">
              <mxPoint x="330" y="1000" />
              <mxPoint x="290" y="1000" />
            </Array>
          </mxGeometry>
        </mxCell>
        <mxCell id="48n0l-ENyJWqGbO_HdOJ-32" value="输出SQL文件" style="rounded=1;whiteSpace=wrap;html=1;absoluteArcSize=1;arcSize=14;strokeWidth=2;" vertex="1" parent="48n0l-ENyJWqGbO_HdOJ-1">
          <mxGeometry x="280" y="680" width="100" height="100" as="geometry" />
        </mxCell>
        <mxCell id="48n0l-ENyJWqGbO_HdOJ-49" style="edgeStyle=orthogonalEdgeStyle;rounded=0;orthogonalLoop=1;jettySize=auto;html=1;startArrow=none;startFill=0;" edge="1" parent="48n0l-ENyJWqGbO_HdOJ-1" source="48n0l-ENyJWqGbO_HdOJ-35" target="48n0l-ENyJWqGbO_HdOJ-30">
          <mxGeometry relative="1" as="geometry" />
        </mxCell>
        <mxCell id="48n0l-ENyJWqGbO_HdOJ-51" style="edgeStyle=orthogonalEdgeStyle;rounded=0;orthogonalLoop=1;jettySize=auto;html=1;entryX=1;entryY=0.5;entryDx=0;entryDy=0;entryPerimeter=0;startArrow=none;startFill=0;" edge="1" parent="48n0l-ENyJWqGbO_HdOJ-1" source="48n0l-ENyJWqGbO_HdOJ-35" target="48n0l-ENyJWqGbO_HdOJ-37">
          <mxGeometry relative="1" as="geometry" />
        </mxCell>
        <mxCell id="48n0l-ENyJWqGbO_HdOJ-35" value="工单" style="rounded=1;whiteSpace=wrap;html=1;absoluteArcSize=1;arcSize=14;strokeWidth=2;" vertex="1" parent="48n0l-ENyJWqGbO_HdOJ-1">
          <mxGeometry x="520" y="521" width="100" height="100" as="geometry" />
        </mxCell>
        <mxCell id="48n0l-ENyJWqGbO_HdOJ-41" style="edgeStyle=orthogonalEdgeStyle;rounded=0;orthogonalLoop=1;jettySize=auto;html=1;entryX=0.5;entryY=0;entryDx=0;entryDy=0;startArrow=none;startFill=0;" edge="1" parent="48n0l-ENyJWqGbO_HdOJ-1" source="48n0l-ENyJWqGbO_HdOJ-37" target="48n0l-ENyJWqGbO_HdOJ-40">
          <mxGeometry relative="1" as="geometry" />
        </mxCell>
        <mxCell id="48n0l-ENyJWqGbO_HdOJ-50" style="edgeStyle=orthogonalEdgeStyle;rounded=0;orthogonalLoop=1;jettySize=auto;html=1;entryX=0.5;entryY=1;entryDx=0;entryDy=0;startArrow=none;startFill=0;" edge="1" parent="48n0l-ENyJWqGbO_HdOJ-1" source="48n0l-ENyJWqGbO_HdOJ-37" target="48n0l-ENyJWqGbO_HdOJ-35">
          <mxGeometry relative="1" as="geometry">
            <Array as="points">
              <mxPoint x="570" y="730" />
            </Array>
          </mxGeometry>
        </mxCell>
        <mxCell id="48n0l-ENyJWqGbO_HdOJ-37" value="配置变更" style="strokeWidth=2;html=1;shape=mxgraph.flowchart.decision;whiteSpace=wrap;" vertex="1" parent="48n0l-ENyJWqGbO_HdOJ-1">
          <mxGeometry x="440" y="680" width="100" height="100" as="geometry" />
        </mxCell>
        <mxCell id="48n0l-ENyJWqGbO_HdOJ-45" style="edgeStyle=orthogonalEdgeStyle;rounded=0;orthogonalLoop=1;jettySize=auto;html=1;startArrow=none;startFill=0;" edge="1" parent="48n0l-ENyJWqGbO_HdOJ-1" source="48n0l-ENyJWqGbO_HdOJ-40">
          <mxGeometry relative="1" as="geometry">
            <mxPoint x="290" y="1080" as="targetPoint" />
            <Array as="points">
              <mxPoint x="490" y="1000" />
              <mxPoint x="290" y="1000" />
            </Array>
          </mxGeometry>
        </mxCell>
        <mxCell id="48n0l-ENyJWqGbO_HdOJ-40" value="输出Text文件" style="rounded=1;whiteSpace=wrap;html=1;absoluteArcSize=1;arcSize=14;strokeWidth=2;" vertex="1" parent="48n0l-ENyJWqGbO_HdOJ-1">
          <mxGeometry x="440" y="840" width="100" height="100" as="geometry" />
        </mxCell>
      </root>
    </mxGraphModel>
  </diagram>
  <diagram id="1EoF2c6XqOY4E13pziY2" name="水星和地球交互">
    <mxGraphModel dx="1398" dy="648" grid="1" gridSize="10" guides="1" tooltips="1" connect="1" arrows="1" fold="1" page="1" pageScale="1" pageWidth="1534" pageHeight="1141" math="0" shadow="0">
      <root>
        <mxCell id="41fwCYIjfzRAeu-WZz3u-0" />
        <mxCell id="41fwCYIjfzRAeu-WZz3u-1" parent="41fwCYIjfzRAeu-WZz3u-0" />
        <mxCell id="41fwCYIjfzRAeu-WZz3u-2" value="" style="group" vertex="1" connectable="0" parent="41fwCYIjfzRAeu-WZz3u-1">
          <mxGeometry x="69.99999999999989" y="160" width="190" height="111" as="geometry" />
        </mxCell>
        <mxCell id="41fwCYIjfzRAeu-WZz3u-3" value="" style="group" vertex="1" connectable="0" parent="41fwCYIjfzRAeu-WZz3u-2">
          <mxGeometry width="190" height="111" as="geometry" />
        </mxCell>
        <mxCell id="41fwCYIjfzRAeu-WZz3u-4" value="&lt;font color=&quot;#333333&quot;&gt;&lt;span style=&quot;font-size: 16px&quot;&gt;水星服务&lt;/span&gt;&lt;/font&gt;" style="rounded=0;whiteSpace=wrap;html=1;shadow=1;comic=0;strokeColor=#E6E6E6;strokeWidth=2;fillColor=#ffffff;gradientColor=none;fontSize=22;fontColor=#FFFFFF;verticalAlign=bottom;" vertex="1" parent="41fwCYIjfzRAeu-WZz3u-3">
          <mxGeometry x="50" y="81" width="90" height="30" as="geometry" />
        </mxCell>
        <mxCell id="41fwCYIjfzRAeu-WZz3u-5" value="" style="shape=image;verticalLabelPosition=bottom;labelBackgroundColor=#ffffff;verticalAlign=top;aspect=fixed;imageAspect=0;image=data:image/svg+xml,PHN2ZyB4bWxucz0iaHR0cDovL3d3dy53My5vcmcvMjAwMC9zdmciIHZpZXdCb3g9IjAgMCA0MC43MSAzNi44NCI+PGRlZnM+PHN0eWxlPi5jbHMtMXtmaWxsOiNmZmY7c3Ryb2tlOiMyMzE4MTU7c3Ryb2tlLXdpZHRoOjAuNzhweDt9LmNscy0xLC5jbHMtNHtzdHJva2UtbWl0ZXJsaW1pdDoxMDt9LmNscy0ye2ZpbGw6I2VmZWZlZjt9LmNscy0ze2ZpbGw6I2RjZGRkZDt9LmNscy00e2ZpbGw6bm9uZTtzdHJva2U6Z3JheTtzdHJva2Utd2lkdGg6MC42OHB4O308L3N0eWxlPjwvZGVmcz48dGl0bGU+6LWE5rqQIDE4PC90aXRsZT48ZyBpZD0i5Zu+5bGCXzIiIGRhdGEtbmFtZT0i5Zu+5bGCIDIiPjxnIGlkPSLlm77lsYJfMS0yIiBkYXRhLW5hbWU9IuWbvuWxgiAxIj48cG9seWdvbiBjbGFzcz0iY2xzLTEiIHBvaW50cz0iNDAuMzEgMTIuODYgMjAuMzYgMC40NiAwLjQgMTIuODYgMC4zOSAyNC4wNSAyMC4zNCAzNi40NiAyMC4zNyAzNi40NiA0MC4zMyAyNC4wNSA0MC4zMSAxMi44NiIvPjxwb2x5Z29uIGNsYXNzPSJjbHMtMiIgcG9pbnRzPSIyMC40IDM2LjQzIDAuNDUgMjQuMDIgMC40NiAxMi44NCAyMC40MiAyNS4yNCAyMC40IDM2LjQzIi8+PHBvbHlnb24gY2xhc3M9ImNscy0zIiBwb2ludHM9IjIwLjQzIDM2LjQzIDQwLjM4IDI0LjAyIDQwLjM3IDEyLjg0IDIwLjQyIDI1LjI0IDIwLjQzIDM2LjQzIi8+PHBvbHlnb24gY2xhc3M9ImNscy00IiBwb2ludHM9IjQwLjMxIDEyLjg2IDIwLjM2IDAuNDYgMC40IDEyLjg2IDAuMzkgMjQuMDUgMjAuMzQgMzYuNDYgMjAuMzcgMzYuNDYgNDAuMzMgMjQuMDUgNDAuMzEgMTIuODYiLz48L2c+PC9nPjwvc3ZnPg==;" vertex="1" parent="41fwCYIjfzRAeu-WZz3u-3">
          <mxGeometry x="49" width="90" height="81.22" as="geometry" />
        </mxCell>
        <mxCell id="41fwCYIjfzRAeu-WZz3u-6" value="" style="shape=image;verticalLabelPosition=bottom;labelBackgroundColor=#ffffff;verticalAlign=top;aspect=fixed;imageAspect=0;image=data:image/svg+xml,PHN2ZyB4bWxucz0iaHR0cDovL3d3dy53My5vcmcvMjAwMC9zdmciIGNsYXNzPSJpY29uIiB3aWR0aD0iNTBweCIgaGVpZ2h0PSI1MC4wMHB4IiB2aWV3Qm94PSIwIDAgMTAyNCAxMDI0IiB2ZXJzaW9uPSIxLjEiPjxwYXRoIGZpbGw9IiMwMGMxZGUiIGQ9Ik04MDggNzg5Ljk5NWwtMjEuOTUyLTMyLjg5NiA2NS44MTMtMzguNFYzMjMuOTA0TDY1NC40NDMgMjA4Ljc0N2wxOS4yLTMyLjkxOEw4OTAuMjQgMzAxLjk3M3Y0MzguNjk5TDgwOCA3OTAuMDE2ek0xNjYuMzc5IDU2Mi40MzJIMTI4di0yNTcuNzVMNTE3LjMzMyA4NS4zMzRsODcuNzY2IDQ5LjM0NC0xOS4yIDM1LjY0OC02OC41NDQtNDEuMTMtMzUwLjk3NiAxOTcuNDE4djIzNS44MTl6TTUwOS4xMiA5NjBMMTI4IDc0My4zODFWNjM2LjQ2aDM4LjR2ODQuOTkyTDUwOS4xMiA5MTYuMTQgNzMxLjIgNzg5Ljk5NWwxOS4yIDMyLjkxN0w1MDkuMTQxIDk2MHogbS0yNC42ODMtNjE5LjY3bC04NC45OTItNDkuMzY1di0zMC4xNDRsMTEyLjQyNy02NS44MTMgMTA5LjY1MyA2NS44MTN2MzAuMTQ0bC04Mi4yNCA0OS4zNjYtMi43NTIgMzAuMTY1LTI0LjY2MS0xNi40NDgtMjcuNDM1IDE2LjQyN1YzNDAuMzN6IG0xNzIuNzU4IDE5Ny40MnYtOTguNzFsLTg1LjAxNC00OS4zNjVWMzU5LjUzbDEwOS42NzUtNjMuMDYyIDExMi40MjcgNjMuMDYydjEyOC44NTNsLTExMi40MjcgNjMuMDgzLTI0LjY2MS0xMy43MTh6IG0tMjU3Ljc1IDI0Ni43NjJWNjU4LjM4OWwyNC42ODMtMTYuNDQ4IDg0Ljk5MiA0OS4zNDQgODcuNzQ0LTQ5LjM0NCAyNC42ODMgMTMuNzE4djEyOC44NTNMNTA5LjEyIDg1MC4zMjVsLTEwOS42NTMtNjUuODEzeiBtMjU3Ljc1LTQ5LjM0NHYtOTguNzFsLTI3LjQzNS0xNi40NDcgMjcuNDM1LTEzLjcxOHYtMzAuMTY1bDI0LjY2MSAxNi40NDggODUuMDEzLTQ5LjM0NCAyNy40MTQgMTMuNzE3djEyOC44NTRsLTExMi40MjcgNjMuMDYxLTI0LjY2MS0xMy42OTZ6IG0tMjU3Ljc1LTE0OC4wNTNWNDU4LjI0bDExMi40MjctNjMuMDYxIDEwOS42NTMgNjMuMDYxdjEyOC44NTNMNTA5LjEyIDY1MC4xNTVsLTEwOS42NTMtNjMuMDYyeiBtLTE3NS40ODggOTguNjg4bDIuNzUyLTEyOC44NTQgMjQuNjgzLTEzLjcxNyA4NC45OTIgNDkuMzQ0IDI3LjQxMy0xNi40Mjd2MzAuMTQ0bDI3LjQzNSAxNi40NDgtMjcuNDM1IDEzLjcxOHY5OC43MDlsLTI3LjQxMyAxMy42OTYtMTEyLjQyNy02My4wNjF6IG0wLTE5Ny40MTlsMi43NTItMTI4Ljg1MyAxMTIuNDI3LTYzLjA2MiAxMDkuNjUzIDYzLjA2MnYzMC4xNDRsLTg0Ljk5MiA0OS4zNjV2OTUuOTU3bC0yNy40MTMgMTYuNDctMTEyLjQyNy02My4wODN6Ii8+PC9zdmc+;" vertex="1" parent="41fwCYIjfzRAeu-WZz3u-3">
          <mxGeometry x="76.5" y="9" width="36" height="36" as="geometry" />
        </mxCell>
        <mxCell id="41fwCYIjfzRAeu-WZz3u-7" value="" style="group" vertex="1" connectable="0" parent="41fwCYIjfzRAeu-WZz3u-1">
          <mxGeometry x="389.9999999999999" y="160" width="190" height="111" as="geometry" />
        </mxCell>
        <mxCell id="41fwCYIjfzRAeu-WZz3u-8" value="" style="group" vertex="1" connectable="0" parent="41fwCYIjfzRAeu-WZz3u-7">
          <mxGeometry width="190" height="111" as="geometry" />
        </mxCell>
        <mxCell id="41fwCYIjfzRAeu-WZz3u-9" value="&lt;font color=&quot;#333333&quot;&gt;&lt;span style=&quot;font-size: 16px&quot;&gt;地球服务&lt;/span&gt;&lt;/font&gt;" style="rounded=0;whiteSpace=wrap;html=1;shadow=1;comic=0;strokeColor=#E6E6E6;strokeWidth=2;fillColor=#ffffff;gradientColor=none;fontSize=22;fontColor=#FFFFFF;verticalAlign=bottom;" vertex="1" parent="41fwCYIjfzRAeu-WZz3u-8">
          <mxGeometry x="50" y="81" width="90" height="30" as="geometry" />
        </mxCell>
        <mxCell id="41fwCYIjfzRAeu-WZz3u-10" value="" style="shape=image;verticalLabelPosition=bottom;labelBackgroundColor=#ffffff;verticalAlign=top;aspect=fixed;imageAspect=0;image=data:image/svg+xml,PHN2ZyB4bWxucz0iaHR0cDovL3d3dy53My5vcmcvMjAwMC9zdmciIHZpZXdCb3g9IjAgMCA0MC43MSAzNi44NCI+PGRlZnM+PHN0eWxlPi5jbHMtMXtmaWxsOiNmZmY7c3Ryb2tlOiMyMzE4MTU7c3Ryb2tlLXdpZHRoOjAuNzhweDt9LmNscy0xLC5jbHMtNHtzdHJva2UtbWl0ZXJsaW1pdDoxMDt9LmNscy0ye2ZpbGw6I2VmZWZlZjt9LmNscy0ze2ZpbGw6I2RjZGRkZDt9LmNscy00e2ZpbGw6bm9uZTtzdHJva2U6Z3JheTtzdHJva2Utd2lkdGg6MC42OHB4O308L3N0eWxlPjwvZGVmcz48dGl0bGU+6LWE5rqQIDE4PC90aXRsZT48ZyBpZD0i5Zu+5bGCXzIiIGRhdGEtbmFtZT0i5Zu+5bGCIDIiPjxnIGlkPSLlm77lsYJfMS0yIiBkYXRhLW5hbWU9IuWbvuWxgiAxIj48cG9seWdvbiBjbGFzcz0iY2xzLTEiIHBvaW50cz0iNDAuMzEgMTIuODYgMjAuMzYgMC40NiAwLjQgMTIuODYgMC4zOSAyNC4wNSAyMC4zNCAzNi40NiAyMC4zNyAzNi40NiA0MC4zMyAyNC4wNSA0MC4zMSAxMi44NiIvPjxwb2x5Z29uIGNsYXNzPSJjbHMtMiIgcG9pbnRzPSIyMC40IDM2LjQzIDAuNDUgMjQuMDIgMC40NiAxMi44NCAyMC40MiAyNS4yNCAyMC40IDM2LjQzIi8+PHBvbHlnb24gY2xhc3M9ImNscy0zIiBwb2ludHM9IjIwLjQzIDM2LjQzIDQwLjM4IDI0LjAyIDQwLjM3IDEyLjg0IDIwLjQyIDI1LjI0IDIwLjQzIDM2LjQzIi8+PHBvbHlnb24gY2xhc3M9ImNscy00IiBwb2ludHM9IjQwLjMxIDEyLjg2IDIwLjM2IDAuNDYgMC40IDEyLjg2IDAuMzkgMjQuMDUgMjAuMzQgMzYuNDYgMjAuMzcgMzYuNDYgNDAuMzMgMjQuMDUgNDAuMzEgMTIuODYiLz48L2c+PC9nPjwvc3ZnPg==;" vertex="1" parent="41fwCYIjfzRAeu-WZz3u-8">
          <mxGeometry x="49" width="90" height="81.22" as="geometry" />
        </mxCell>
        <mxCell id="41fwCYIjfzRAeu-WZz3u-11" value="" style="shape=image;verticalLabelPosition=bottom;labelBackgroundColor=#ffffff;verticalAlign=top;aspect=fixed;imageAspect=0;image=data:image/svg+xml,PHN2ZyB4bWxucz0iaHR0cDovL3d3dy53My5vcmcvMjAwMC9zdmciIGNsYXNzPSJpY29uIiB3aWR0aD0iNTBweCIgaGVpZ2h0PSI1MC4wMHB4IiB2aWV3Qm94PSIwIDAgMTAyNCAxMDI0IiB2ZXJzaW9uPSIxLjEiPjxwYXRoIGZpbGw9IiMwMGMxZGUiIGQ9Ik04MDggNzg5Ljk5NWwtMjEuOTUyLTMyLjg5NiA2NS44MTMtMzguNFYzMjMuOTA0TDY1NC40NDMgMjA4Ljc0N2wxOS4yLTMyLjkxOEw4OTAuMjQgMzAxLjk3M3Y0MzguNjk5TDgwOCA3OTAuMDE2ek0xNjYuMzc5IDU2Mi40MzJIMTI4di0yNTcuNzVMNTE3LjMzMyA4NS4zMzRsODcuNzY2IDQ5LjM0NC0xOS4yIDM1LjY0OC02OC41NDQtNDEuMTMtMzUwLjk3NiAxOTcuNDE4djIzNS44MTl6TTUwOS4xMiA5NjBMMTI4IDc0My4zODFWNjM2LjQ2aDM4LjR2ODQuOTkyTDUwOS4xMiA5MTYuMTQgNzMxLjIgNzg5Ljk5NWwxOS4yIDMyLjkxN0w1MDkuMTQxIDk2MHogbS0yNC42ODMtNjE5LjY3bC04NC45OTItNDkuMzY1di0zMC4xNDRsMTEyLjQyNy02NS44MTMgMTA5LjY1MyA2NS44MTN2MzAuMTQ0bC04Mi4yNCA0OS4zNjYtMi43NTIgMzAuMTY1LTI0LjY2MS0xNi40NDgtMjcuNDM1IDE2LjQyN1YzNDAuMzN6IG0xNzIuNzU4IDE5Ny40MnYtOTguNzFsLTg1LjAxNC00OS4zNjVWMzU5LjUzbDEwOS42NzUtNjMuMDYyIDExMi40MjcgNjMuMDYydjEyOC44NTNsLTExMi40MjcgNjMuMDgzLTI0LjY2MS0xMy43MTh6IG0tMjU3Ljc1IDI0Ni43NjJWNjU4LjM4OWwyNC42ODMtMTYuNDQ4IDg0Ljk5MiA0OS4zNDQgODcuNzQ0LTQ5LjM0NCAyNC42ODMgMTMuNzE4djEyOC44NTNMNTA5LjEyIDg1MC4zMjVsLTEwOS42NTMtNjUuODEzeiBtMjU3Ljc1LTQ5LjM0NHYtOTguNzFsLTI3LjQzNS0xNi40NDcgMjcuNDM1LTEzLjcxOHYtMzAuMTY1bDI0LjY2MSAxNi40NDggODUuMDEzLTQ5LjM0NCAyNy40MTQgMTMuNzE3djEyOC44NTRsLTExMi40MjcgNjMuMDYxLTI0LjY2MS0xMy42OTZ6IG0tMjU3Ljc1LTE0OC4wNTNWNDU4LjI0bDExMi40MjctNjMuMDYxIDEwOS42NTMgNjMuMDYxdjEyOC44NTNMNTA5LjEyIDY1MC4xNTVsLTEwOS42NTMtNjMuMDYyeiBtLTE3NS40ODggOTguNjg4bDIuNzUyLTEyOC44NTQgMjQuNjgzLTEzLjcxNyA4NC45OTIgNDkuMzQ0IDI3LjQxMy0xNi40Mjd2MzAuMTQ0bDI3LjQzNSAxNi40NDgtMjcuNDM1IDEzLjcxOHY5OC43MDlsLTI3LjQxMyAxMy42OTYtMTEyLjQyNy02My4wNjF6IG0wLTE5Ny40MTlsMi43NTItMTI4Ljg1MyAxMTIuNDI3LTYzLjA2MiAxMDkuNjUzIDYzLjA2MnYzMC4xNDRsLTg0Ljk5MiA0OS4zNjV2OTUuOTU3bC0yNy40MTMgMTYuNDctMTEyLjQyNy02My4wODN6Ii8+PC9zdmc+;" vertex="1" parent="41fwCYIjfzRAeu-WZz3u-8">
          <mxGeometry x="76.5" y="9" width="36" height="36" as="geometry" />
        </mxCell>
        <mxCell id="41fwCYIjfzRAeu-WZz3u-14" style="edgeStyle=orthogonalEdgeStyle;rounded=0;html=1;labelBackgroundColor=none;startFill=1;startSize=4;endArrow=blockThin;endFill=1;endSize=4;jettySize=auto;orthogonalLoop=1;strokeColor=#00c1de;strokeWidth=2;fontSize=12;fontColor=#000000;align=center;dashed=0;" edge="1" parent="41fwCYIjfzRAeu-WZz3u-1">
          <mxGeometry relative="1" as="geometry">
            <mxPoint x="160.02857142857155" y="280" as="sourcePoint" />
            <mxPoint x="160" y="680" as="targetPoint" />
            <Array as="points">
              <mxPoint x="159.17142857142844" y="387.1428571428569" />
              <mxPoint x="159.17142857142844" y="387.1428571428569" />
            </Array>
          </mxGeometry>
        </mxCell>
        <mxCell id="41fwCYIjfzRAeu-WZz3u-15" style="edgeStyle=orthogonalEdgeStyle;rounded=0;html=1;labelBackgroundColor=none;startFill=1;startSize=4;endArrow=blockThin;endFill=1;endSize=4;jettySize=auto;orthogonalLoop=1;strokeColor=#00c1de;strokeWidth=2;fontSize=12;fontColor=#000000;align=center;dashed=0;" edge="1" parent="41fwCYIjfzRAeu-WZz3u-1">
          <mxGeometry relative="1" as="geometry">
            <mxPoint x="480.02857142857147" y="280" as="sourcePoint" />
            <mxPoint x="480" y="681" as="targetPoint" />
            <Array as="points">
              <mxPoint x="479.17142857142846" y="387.1428571428569" />
              <mxPoint x="479.17142857142846" y="387.1428571428569" />
            </Array>
          </mxGeometry>
        </mxCell>
        <mxCell id="41fwCYIjfzRAeu-WZz3u-16" value="" style="html=1;points=[];perimeter=orthogonalPerimeter;" vertex="1" parent="41fwCYIjfzRAeu-WZz3u-1">
          <mxGeometry x="479" y="340" width="10" height="40" as="geometry" />
        </mxCell>
        <mxCell id="41fwCYIjfzRAeu-WZz3u-17" value="如果本地没有执行的部署任务，每三分钟定时轮训一次&lt;br&gt;如果本地部署任务执行中，每一分钟检查任务是否执行完毕" style="edgeStyle=orthogonalEdgeStyle;html=1;align=left;spacingLeft=2;endArrow=block;rounded=0;entryX=1;entryY=0;" edge="1" target="41fwCYIjfzRAeu-WZz3u-16" parent="41fwCYIjfzRAeu-WZz3u-1">
          <mxGeometry relative="1" as="geometry">
            <mxPoint x="484" y="320" as="sourcePoint" />
            <Array as="points">
              <mxPoint x="509" y="320" />
            </Array>
          </mxGeometry>
        </mxCell>
        <mxCell id="41fwCYIjfzRAeu-WZz3u-18" value="" style="shape=flexArrow;endArrow=classic;html=1;" edge="1" parent="41fwCYIjfzRAeu-WZz3u-1">
          <mxGeometry width="50" height="50" relative="1" as="geometry">
            <mxPoint x="470" y="360" as="sourcePoint" />
            <mxPoint x="170" y="360" as="targetPoint" />
          </mxGeometry>
        </mxCell>
        <mxCell id="41fwCYIjfzRAeu-WZz3u-21" value="一次请求，如果有部署任务就会拿到部署包ZIP文件流" style="text;html=1;strokeColor=none;fillColor=none;align=center;verticalAlign=middle;whiteSpace=wrap;rounded=0;" vertex="1" parent="41fwCYIjfzRAeu-WZz3u-1">
          <mxGeometry x="180" y="310" width="290" height="20" as="geometry" />
        </mxCell>
        <mxCell id="41fwCYIjfzRAeu-WZz3u-22" value="" style="shape=flexArrow;endArrow=classic;html=1;" edge="1" parent="41fwCYIjfzRAeu-WZz3u-1">
          <mxGeometry width="50" height="50" relative="1" as="geometry">
            <mxPoint x="170" y="400" as="sourcePoint" />
            <mxPoint x="470" y="400" as="targetPoint" />
          </mxGeometry>
        </mxCell>
        <mxCell id="41fwCYIjfzRAeu-WZz3u-23" value="" style="html=1;points=[];perimeter=orthogonalPerimeter;" vertex="1" parent="41fwCYIjfzRAeu-WZz3u-1">
          <mxGeometry x="479" y="420" width="10" height="40" as="geometry" />
        </mxCell>
        <mxCell id="41fwCYIjfzRAeu-WZz3u-24" value="如果有ZIP包可以下载，那么进入准备部署状态" style="edgeStyle=orthogonalEdgeStyle;html=1;align=left;spacingLeft=2;endArrow=block;rounded=0;entryX=1;entryY=0;" edge="1" target="41fwCYIjfzRAeu-WZz3u-23" parent="41fwCYIjfzRAeu-WZz3u-1">
          <mxGeometry relative="1" as="geometry">
            <mxPoint x="484" y="400" as="sourcePoint" />
            <Array as="points">
              <mxPoint x="509" y="400" />
            </Array>
          </mxGeometry>
        </mxCell>
        <mxCell id="41fwCYIjfzRAeu-WZz3u-25" value="" style="html=1;points=[];perimeter=orthogonalPerimeter;" vertex="1" parent="41fwCYIjfzRAeu-WZz3u-1">
          <mxGeometry x="479" y="500" width="10" height="40" as="geometry" />
        </mxCell>
        <mxCell id="41fwCYIjfzRAeu-WZz3u-26" value="1. 下载ZIP包到指定路径解压&lt;br&gt;2. ZIP包&lt;br&gt;3. 进行解压文件解析&lt;br&gt;4. db 文件夹处理&lt;br&gt;5. config 文件夹处理&lt;br&gt;6. front 文件夹处理&lt;br&gt;7. app 文件夹处理" style="edgeStyle=orthogonalEdgeStyle;html=1;align=left;spacingLeft=2;endArrow=block;rounded=0;entryX=1;entryY=0;" edge="1" target="41fwCYIjfzRAeu-WZz3u-25" parent="41fwCYIjfzRAeu-WZz3u-1">
          <mxGeometry relative="1" as="geometry">
            <mxPoint x="484" y="480" as="sourcePoint" />
            <Array as="points">
              <mxPoint x="509" y="480" />
            </Array>
          </mxGeometry>
        </mxCell>
        <mxCell id="41fwCYIjfzRAeu-WZz3u-27" value="" style="shape=flexArrow;endArrow=classic;html=1;" edge="1" parent="41fwCYIjfzRAeu-WZz3u-1">
          <mxGeometry width="50" height="50" relative="1" as="geometry">
            <mxPoint x="470" y="560" as="sourcePoint" />
            <mxPoint x="170" y="560" as="targetPoint" />
          </mxGeometry>
        </mxCell>
        <mxCell id="41fwCYIjfzRAeu-WZz3u-28" value="执行反馈" style="text;html=1;strokeColor=none;fillColor=none;align=center;verticalAlign=middle;whiteSpace=wrap;rounded=0;" vertex="1" parent="41fwCYIjfzRAeu-WZz3u-1">
          <mxGeometry x="183" y="510" width="67" height="20" as="geometry" />
        </mxCell>
        <mxCell id="41fwCYIjfzRAeu-WZz3u-30" value="" style="shape=flexArrow;endArrow=classic;html=1;" edge="1" parent="41fwCYIjfzRAeu-WZz3u-1">
          <mxGeometry width="50" height="50" relative="1" as="geometry">
            <mxPoint x="170" y="600" as="sourcePoint" />
            <mxPoint x="470" y="600" as="targetPoint" />
          </mxGeometry>
        </mxCell>
        <mxCell id="41fwCYIjfzRAeu-WZz3u-31" value="反馈成功" style="text;html=1;strokeColor=none;fillColor=none;align=center;verticalAlign=middle;whiteSpace=wrap;rounded=0;" vertex="1" parent="41fwCYIjfzRAeu-WZz3u-1">
          <mxGeometry x="183" y="620" width="70" height="20" as="geometry" />
        </mxCell>
        <mxCell id="41fwCYIjfzRAeu-WZz3u-32" value="" style="html=1;points=[];perimeter=orthogonalPerimeter;" vertex="1" parent="41fwCYIjfzRAeu-WZz3u-1">
          <mxGeometry x="479" y="591" width="10" height="40" as="geometry" />
        </mxCell>
        <mxCell id="41fwCYIjfzRAeu-WZz3u-33" value="接收到反馈成功，完成一次部署" style="edgeStyle=orthogonalEdgeStyle;html=1;align=left;spacingLeft=2;endArrow=block;rounded=0;entryX=1;entryY=0;" edge="1" target="41fwCYIjfzRAeu-WZz3u-32" parent="41fwCYIjfzRAeu-WZz3u-1">
          <mxGeometry relative="1" as="geometry">
            <mxPoint x="484" y="571" as="sourcePoint" />
            <Array as="points">
              <mxPoint x="509" y="571" />
            </Array>
          </mxGeometry>
        </mxCell>
      </root>
    </mxGraphModel>
  </diagram>
  <diagram id="uzvK7QO6IXN9xMyHRvMw" name="定时构建">
    <mxGraphModel dx="947" dy="648" grid="1" gridSize="10" guides="1" tooltips="1" connect="1" arrows="1" fold="1" page="1" pageScale="1" pageWidth="1534" pageHeight="1141" math="0" shadow="0">
      <root>
        <mxCell id="-vDqUOHx7b5QNChGHNOD-0" />
        <mxCell id="-vDqUOHx7b5QNChGHNOD-1" parent="-vDqUOHx7b5QNChGHNOD-0" />
        <mxCell id="-vDqUOHx7b5QNChGHNOD-36" style="edgeStyle=orthogonalEdgeStyle;rounded=0;orthogonalLoop=1;jettySize=auto;html=1;startArrow=none;startFill=0;" parent="-vDqUOHx7b5QNChGHNOD-1" source="-vDqUOHx7b5QNChGHNOD-34" target="-vDqUOHx7b5QNChGHNOD-35" edge="1">
          <mxGeometry relative="1" as="geometry" />
        </mxCell>
        <mxCell id="-vDqUOHx7b5QNChGHNOD-34" value="aone发布" style="strokeWidth=2;html=1;shape=mxgraph.flowchart.start_1;whiteSpace=wrap;" parent="-vDqUOHx7b5QNChGHNOD-1" vertex="1">
          <mxGeometry x="80" y="40" width="100" height="60" as="geometry" />
        </mxCell>
        <mxCell id="-vDqUOHx7b5QNChGHNOD-38" style="edgeStyle=orthogonalEdgeStyle;rounded=0;orthogonalLoop=1;jettySize=auto;html=1;entryX=0.5;entryY=0;entryDx=0;entryDy=0;startArrow=none;startFill=0;" parent="-vDqUOHx7b5QNChGHNOD-1" source="-vDqUOHx7b5QNChGHNOD-35" target="-vDqUOHx7b5QNChGHNOD-37" edge="1">
          <mxGeometry relative="1" as="geometry" />
        </mxCell>
        <mxCell id="-vDqUOHx7b5QNChGHNOD-35" value="jenkins" style="rounded=1;whiteSpace=wrap;html=1;absoluteArcSize=1;arcSize=14;strokeWidth=2;dashed=1;" parent="-vDqUOHx7b5QNChGHNOD-1" vertex="1">
          <mxGeometry x="80" y="160" width="100" height="100" as="geometry" />
        </mxCell>
        <mxCell id="-vDqUOHx7b5QNChGHNOD-41" style="edgeStyle=orthogonalEdgeStyle;rounded=0;orthogonalLoop=1;jettySize=auto;html=1;startArrow=none;startFill=0;" parent="-vDqUOHx7b5QNChGHNOD-1" source="-vDqUOHx7b5QNChGHNOD-37" target="-vDqUOHx7b5QNChGHNOD-39" edge="1">
          <mxGeometry relative="1" as="geometry" />
        </mxCell>
        <mxCell id="-vDqUOHx7b5QNChGHNOD-37" value="SystemRunController&lt;br&gt;系统运行接口" style="rounded=1;whiteSpace=wrap;html=1;absoluteArcSize=1;arcSize=14;strokeWidth=2;" parent="-vDqUOHx7b5QNChGHNOD-1" vertex="1">
          <mxGeometry x="80" y="320" width="100" height="100" as="geometry" />
        </mxCell>
        <mxCell id="-vDqUOHx7b5QNChGHNOD-43" style="edgeStyle=orthogonalEdgeStyle;rounded=0;orthogonalLoop=1;jettySize=auto;html=1;startArrow=none;startFill=0;" parent="-vDqUOHx7b5QNChGHNOD-1" source="-vDqUOHx7b5QNChGHNOD-39" target="-vDqUOHx7b5QNChGHNOD-42" edge="1">
          <mxGeometry relative="1" as="geometry" />
        </mxCell>
        <mxCell id="-vDqUOHx7b5QNChGHNOD-56" style="edgeStyle=orthogonalEdgeStyle;rounded=0;orthogonalLoop=1;jettySize=auto;html=1;startArrow=none;startFill=0;fontSize=20;fontColor=#FF0000;" parent="-vDqUOHx7b5QNChGHNOD-1" source="-vDqUOHx7b5QNChGHNOD-39" target="-vDqUOHx7b5QNChGHNOD-44" edge="1">
          <mxGeometry relative="1" as="geometry" />
        </mxCell>
        <mxCell id="-vDqUOHx7b5QNChGHNOD-39" value="SystemRunService&lt;br&gt;系统运行服务" style="rounded=1;whiteSpace=wrap;html=1;absoluteArcSize=1;arcSize=14;strokeWidth=2;" parent="-vDqUOHx7b5QNChGHNOD-1" vertex="1">
          <mxGeometry x="80" y="480" width="100" height="100" as="geometry" />
        </mxCell>
        <mxCell id="-vDqUOHx7b5QNChGHNOD-42" value="保存Git代码和镜像关系" style="rounded=1;whiteSpace=wrap;html=1;absoluteArcSize=1;arcSize=14;strokeWidth=2;" parent="-vDqUOHx7b5QNChGHNOD-1" vertex="1">
          <mxGeometry x="80" y="640" width="100" height="100" as="geometry" />
        </mxCell>
        <mxCell id="-vDqUOHx7b5QNChGHNOD-77" style="edgeStyle=orthogonalEdgeStyle;rounded=0;orthogonalLoop=1;jettySize=auto;html=1;entryX=0;entryY=0.5;entryDx=0;entryDy=0;entryPerimeter=0;startArrow=none;startFill=0;fontSize=20;fontColor=#FF0000;" parent="-vDqUOHx7b5QNChGHNOD-1" source="-vDqUOHx7b5QNChGHNOD-44" target="-vDqUOHx7b5QNChGHNOD-76" edge="1">
          <mxGeometry relative="1" as="geometry" />
        </mxCell>
        <mxCell id="-vDqUOHx7b5QNChGHNOD-44" value="查询上一次构建信息" style="rounded=1;whiteSpace=wrap;html=1;absoluteArcSize=1;arcSize=14;strokeWidth=2;" parent="-vDqUOHx7b5QNChGHNOD-1" vertex="1">
          <mxGeometry x="280" y="480" width="100" height="100" as="geometry" />
        </mxCell>
        <mxCell id="-vDqUOHx7b5QNChGHNOD-89" style="edgeStyle=orthogonalEdgeStyle;rounded=0;orthogonalLoop=1;jettySize=auto;html=1;entryX=0;entryY=0.5;entryDx=0;entryDy=0;entryPerimeter=0;startArrow=none;startFill=0;fontSize=12;fontColor=#000000;" parent="-vDqUOHx7b5QNChGHNOD-1" source="-vDqUOHx7b5QNChGHNOD-49" target="-vDqUOHx7b5QNChGHNOD-88" edge="1">
          <mxGeometry relative="1" as="geometry" />
        </mxCell>
        <mxCell id="-vDqUOHx7b5QNChGHNOD-49" value="查询Git和镜像关系" style="rounded=1;whiteSpace=wrap;html=1;absoluteArcSize=1;arcSize=14;strokeWidth=2;" parent="-vDqUOHx7b5QNChGHNOD-1" vertex="1">
          <mxGeometry x="440" y="800" width="100" height="100" as="geometry" />
        </mxCell>
        <mxCell id="-vDqUOHx7b5QNChGHNOD-55" style="edgeStyle=orthogonalEdgeStyle;rounded=0;orthogonalLoop=1;jettySize=auto;html=1;startArrow=none;startFill=0;fontSize=20;fontColor=#FF0000;" parent="-vDqUOHx7b5QNChGHNOD-1" source="-vDqUOHx7b5QNChGHNOD-51" target="-vDqUOHx7b5QNChGHNOD-44" edge="1">
          <mxGeometry relative="1" as="geometry" />
        </mxCell>
        <mxCell id="-vDqUOHx7b5QNChGHNOD-51" value="单应用定时任务" style="strokeWidth=2;html=1;shape=mxgraph.flowchart.start_1;whiteSpace=wrap;" parent="-vDqUOHx7b5QNChGHNOD-1" vertex="1">
          <mxGeometry x="440" y="340" width="100" height="60" as="geometry" />
        </mxCell>
        <mxCell id="-vDqUOHx7b5QNChGHNOD-101" style="edgeStyle=orthogonalEdgeStyle;rounded=0;orthogonalLoop=1;jettySize=auto;html=1;entryX=0.5;entryY=0;entryDx=0;entryDy=0;startArrow=none;startFill=0;fontSize=12;fontColor=#000000;" parent="-vDqUOHx7b5QNChGHNOD-1" source="-vDqUOHx7b5QNChGHNOD-66" target="-vDqUOHx7b5QNChGHNOD-100" edge="1">
          <mxGeometry relative="1" as="geometry" />
        </mxCell>
        <mxCell id="-vDqUOHx7b5QNChGHNOD-66" value="创建发布单" style="rounded=1;whiteSpace=wrap;html=1;absoluteArcSize=1;arcSize=14;strokeWidth=2;" parent="-vDqUOHx7b5QNChGHNOD-1" vertex="1">
          <mxGeometry x="440" y="1120" width="100" height="100" as="geometry" />
        </mxCell>
        <mxCell id="-vDqUOHx7b5QNChGHNOD-82" style="edgeStyle=orthogonalEdgeStyle;rounded=0;orthogonalLoop=1;jettySize=auto;html=1;exitX=1;exitY=0.5;exitDx=0;exitDy=0;exitPerimeter=0;startArrow=none;startFill=0;fontSize=12;fontColor=#000000;" parent="-vDqUOHx7b5QNChGHNOD-1" source="-vDqUOHx7b5QNChGHNOD-76" target="-vDqUOHx7b5QNChGHNOD-79" edge="1">
          <mxGeometry relative="1" as="geometry" />
        </mxCell>
        <mxCell id="-vDqUOHx7b5QNChGHNOD-84" value="Y" style="text;html=1;align=center;verticalAlign=middle;resizable=0;points=[];labelBackgroundColor=#ffffff;fontSize=12;fontColor=#000000;" parent="-vDqUOHx7b5QNChGHNOD-82" vertex="1" connectable="0">
          <mxGeometry x="-0.2" relative="1" as="geometry">
            <mxPoint as="offset" />
          </mxGeometry>
        </mxCell>
        <mxCell id="-vDqUOHx7b5QNChGHNOD-86" value="N" style="edgeStyle=orthogonalEdgeStyle;rounded=0;orthogonalLoop=1;jettySize=auto;html=1;startArrow=none;startFill=0;fontSize=12;fontColor=#000000;" parent="-vDqUOHx7b5QNChGHNOD-1" source="-vDqUOHx7b5QNChGHNOD-76" target="-vDqUOHx7b5QNChGHNOD-85" edge="1">
          <mxGeometry relative="1" as="geometry" />
        </mxCell>
        <mxCell id="-vDqUOHx7b5QNChGHNOD-76" value="&lt;font style=&quot;font-size: 12px&quot; color=&quot;#000000&quot;&gt;是否有上一次构建&lt;/font&gt;" style="strokeWidth=2;html=1;shape=mxgraph.flowchart.decision;whiteSpace=wrap;fontSize=20;fontColor=#FF0000;" parent="-vDqUOHx7b5QNChGHNOD-1" vertex="1">
          <mxGeometry x="440" y="480" width="100" height="100" as="geometry" />
        </mxCell>
        <mxCell id="-vDqUOHx7b5QNChGHNOD-124" style="edgeStyle=orthogonalEdgeStyle;rounded=0;orthogonalLoop=1;jettySize=auto;html=1;entryX=0.5;entryY=0;entryDx=0;entryDy=0;startArrow=none;startFill=0;fontSize=12;fontColor=#000000;" parent="-vDqUOHx7b5QNChGHNOD-1" source="-vDqUOHx7b5QNChGHNOD-79" target="-vDqUOHx7b5QNChGHNOD-123" edge="1">
          <mxGeometry relative="1" as="geometry" />
        </mxCell>
        <mxCell id="-vDqUOHx7b5QNChGHNOD-128" style="edgeStyle=orthogonalEdgeStyle;rounded=0;orthogonalLoop=1;jettySize=auto;html=1;startArrow=none;startFill=0;fontSize=12;fontColor=#000000;" parent="-vDqUOHx7b5QNChGHNOD-1" source="-vDqUOHx7b5QNChGHNOD-79" target="-vDqUOHx7b5QNChGHNOD-127" edge="1">
          <mxGeometry relative="1" as="geometry" />
        </mxCell>
        <mxCell id="-vDqUOHx7b5QNChGHNOD-79" value="上一次构建时间" style="rounded=1;whiteSpace=wrap;html=1;absoluteArcSize=1;arcSize=14;strokeWidth=2;fontSize=12;fontColor=#000000;" parent="-vDqUOHx7b5QNChGHNOD-1" vertex="1">
          <mxGeometry x="600" y="480" width="100" height="100" as="geometry" />
        </mxCell>
        <mxCell id="-vDqUOHx7b5QNChGHNOD-92" style="edgeStyle=orthogonalEdgeStyle;rounded=0;orthogonalLoop=1;jettySize=auto;html=1;entryX=0.5;entryY=0;entryDx=0;entryDy=0;startArrow=none;startFill=0;fontSize=12;fontColor=#000000;" parent="-vDqUOHx7b5QNChGHNOD-1" source="-vDqUOHx7b5QNChGHNOD-85" target="-vDqUOHx7b5QNChGHNOD-49" edge="1">
          <mxGeometry relative="1" as="geometry" />
        </mxCell>
        <mxCell id="-vDqUOHx7b5QNChGHNOD-94" style="edgeStyle=orthogonalEdgeStyle;rounded=0;orthogonalLoop=1;jettySize=auto;html=1;entryX=0.5;entryY=0;entryDx=0;entryDy=0;startArrow=none;startFill=0;fontSize=12;fontColor=#000000;" parent="-vDqUOHx7b5QNChGHNOD-1" source="-vDqUOHx7b5QNChGHNOD-85" target="-vDqUOHx7b5QNChGHNOD-93" edge="1">
          <mxGeometry relative="1" as="geometry" />
        </mxCell>
        <mxCell id="-vDqUOHx7b5QNChGHNOD-85" value="这是第一次构建" style="rounded=1;whiteSpace=wrap;html=1;absoluteArcSize=1;arcSize=14;strokeWidth=2;fontSize=12;fontColor=#000000;" parent="-vDqUOHx7b5QNChGHNOD-1" vertex="1">
          <mxGeometry x="440" y="640" width="100" height="100" as="geometry" />
        </mxCell>
        <mxCell id="-vDqUOHx7b5QNChGHNOD-90" style="edgeStyle=orthogonalEdgeStyle;rounded=0;orthogonalLoop=1;jettySize=auto;html=1;startArrow=none;startFill=0;fontSize=12;fontColor=#000000;exitX=0.5;exitY=1;exitDx=0;exitDy=0;exitPerimeter=0;entryX=1;entryY=0.5;entryDx=0;entryDy=0;" parent="-vDqUOHx7b5QNChGHNOD-1" source="-vDqUOHx7b5QNChGHNOD-88" edge="1">
          <mxGeometry relative="1" as="geometry">
            <mxPoint x="540" y="1010" as="targetPoint" />
            <Array as="points">
              <mxPoint x="650" y="1010" />
            </Array>
          </mxGeometry>
        </mxCell>
        <mxCell id="-vDqUOHx7b5QNChGHNOD-91" value="Y" style="text;html=1;align=center;verticalAlign=middle;resizable=0;points=[];labelBackgroundColor=#ffffff;fontSize=12;fontColor=#000000;" parent="-vDqUOHx7b5QNChGHNOD-90" vertex="1" connectable="0">
          <mxGeometry x="0.0407" y="-1" relative="1" as="geometry">
            <mxPoint as="offset" />
          </mxGeometry>
        </mxCell>
        <mxCell id="-vDqUOHx7b5QNChGHNOD-98" style="edgeStyle=orthogonalEdgeStyle;rounded=0;orthogonalLoop=1;jettySize=auto;html=1;startArrow=none;startFill=0;fontSize=12;fontColor=#000000;exitX=1;exitY=0.5;exitDx=0;exitDy=0;exitPerimeter=0;" parent="-vDqUOHx7b5QNChGHNOD-1" source="-vDqUOHx7b5QNChGHNOD-88" target="-vDqUOHx7b5QNChGHNOD-97" edge="1">
          <mxGeometry relative="1" as="geometry">
            <Array as="points">
              <mxPoint x="720" y="850" />
              <mxPoint x="720" y="1600" />
              <mxPoint x="490" y="1600" />
            </Array>
          </mxGeometry>
        </mxCell>
        <mxCell id="-vDqUOHx7b5QNChGHNOD-99" value="N" style="text;html=1;align=center;verticalAlign=middle;resizable=0;points=[];labelBackgroundColor=#ffffff;fontSize=12;fontColor=#000000;" parent="-vDqUOHx7b5QNChGHNOD-98" vertex="1" connectable="0">
          <mxGeometry x="-0.737" relative="1" as="geometry">
            <mxPoint as="offset" />
          </mxGeometry>
        </mxCell>
        <mxCell id="-vDqUOHx7b5QNChGHNOD-88" value="是否有镜像变化" style="strokeWidth=2;html=1;shape=mxgraph.flowchart.decision;whiteSpace=wrap;fontSize=12;fontColor=#000000;" parent="-vDqUOHx7b5QNChGHNOD-1" vertex="1">
          <mxGeometry x="600" y="800" width="100" height="100" as="geometry" />
        </mxCell>
        <mxCell id="-vDqUOHx7b5QNChGHNOD-130" style="edgeStyle=orthogonalEdgeStyle;rounded=0;orthogonalLoop=1;jettySize=auto;html=1;entryX=1;entryY=0.5;entryDx=0;entryDy=0;startArrow=none;startFill=0;fontSize=12;fontColor=#000000;" parent="-vDqUOHx7b5QNChGHNOD-1" source="-vDqUOHx7b5QNChGHNOD-93" target="-vDqUOHx7b5QNChGHNOD-129" edge="1">
          <mxGeometry relative="1" as="geometry" />
        </mxCell>
        <mxCell id="-vDqUOHx7b5QNChGHNOD-93" value="获取最新数据库建表语句" style="rounded=1;whiteSpace=wrap;html=1;absoluteArcSize=1;arcSize=14;strokeWidth=2;fontSize=12;fontColor=#000000;" parent="-vDqUOHx7b5QNChGHNOD-1" vertex="1">
          <mxGeometry x="280" y="800" width="100" height="100" as="geometry" />
        </mxCell>
        <mxCell id="-vDqUOHx7b5QNChGHNOD-96" style="edgeStyle=orthogonalEdgeStyle;rounded=0;orthogonalLoop=1;jettySize=auto;html=1;entryX=0.5;entryY=0;entryDx=0;entryDy=0;startArrow=none;startFill=0;fontSize=12;fontColor=#000000;" parent="-vDqUOHx7b5QNChGHNOD-1" source="-vDqUOHx7b5QNChGHNOD-95" target="-vDqUOHx7b5QNChGHNOD-66" edge="1">
          <mxGeometry relative="1" as="geometry" />
        </mxCell>
        <mxCell id="-vDqUOHx7b5QNChGHNOD-95" value="创建构建" style="rounded=1;whiteSpace=wrap;html=1;absoluteArcSize=1;arcSize=14;strokeWidth=2;fontSize=12;fontColor=#000000;" parent="-vDqUOHx7b5QNChGHNOD-1" vertex="1">
          <mxGeometry x="440" y="960" width="100" height="100" as="geometry" />
        </mxCell>
        <mxCell id="-vDqUOHx7b5QNChGHNOD-97" value="结束" style="strokeWidth=2;html=1;shape=mxgraph.flowchart.terminator;whiteSpace=wrap;fontSize=12;fontColor=#000000;" parent="-vDqUOHx7b5QNChGHNOD-1" vertex="1">
          <mxGeometry x="440" y="1640" width="100" height="60" as="geometry" />
        </mxCell>
        <mxCell id="-vDqUOHx7b5QNChGHNOD-112" style="edgeStyle=orthogonalEdgeStyle;rounded=0;orthogonalLoop=1;jettySize=auto;html=1;entryX=1;entryY=0.5;entryDx=0;entryDy=0;startArrow=none;startFill=0;fontSize=12;fontColor=#000000;" parent="-vDqUOHx7b5QNChGHNOD-1" source="-vDqUOHx7b5QNChGHNOD-100" target="-vDqUOHx7b5QNChGHNOD-109" edge="1">
          <mxGeometry relative="1" as="geometry" />
        </mxCell>
        <mxCell id="-vDqUOHx7b5QNChGHNOD-100" value="规则链" style="rounded=1;whiteSpace=wrap;html=1;absoluteArcSize=1;arcSize=14;strokeWidth=2;fontSize=12;fontColor=#000000;" parent="-vDqUOHx7b5QNChGHNOD-1" vertex="1">
          <mxGeometry x="440" y="1280" width="100" height="100" as="geometry" />
        </mxCell>
        <mxCell id="-vDqUOHx7b5QNChGHNOD-104" style="edgeStyle=orthogonalEdgeStyle;rounded=0;orthogonalLoop=1;jettySize=auto;html=1;startArrow=none;startFill=0;fontSize=12;fontColor=#000000;" parent="-vDqUOHx7b5QNChGHNOD-1" source="-vDqUOHx7b5QNChGHNOD-102" target="-vDqUOHx7b5QNChGHNOD-97" edge="1">
          <mxGeometry relative="1" as="geometry" />
        </mxCell>
        <mxCell id="-vDqUOHx7b5QNChGHNOD-102" value="创建部署单&lt;br&gt;验证block部署的构建有序，否则需要填充缺失的发布单内容到部署单" style="rounded=1;whiteSpace=wrap;html=1;absoluteArcSize=1;arcSize=14;strokeWidth=2;fontSize=12;fontColor=#000000;" parent="-vDqUOHx7b5QNChGHNOD-1" vertex="1">
          <mxGeometry x="440" y="1440" width="100" height="100" as="geometry" />
        </mxCell>
        <mxCell id="-vDqUOHx7b5QNChGHNOD-117" style="edgeStyle=orthogonalEdgeStyle;rounded=0;orthogonalLoop=1;jettySize=auto;html=1;entryX=0;entryY=0.5;entryDx=0;entryDy=0;startArrow=none;startFill=0;fontSize=12;fontColor=#000000;" parent="-vDqUOHx7b5QNChGHNOD-1" source="-vDqUOHx7b5QNChGHNOD-105" target="-vDqUOHx7b5QNChGHNOD-102" edge="1">
          <mxGeometry relative="1" as="geometry">
            <Array as="points">
              <mxPoint x="170" y="1490" />
            </Array>
          </mxGeometry>
        </mxCell>
        <mxCell id="-vDqUOHx7b5QNChGHNOD-118" value="N" style="text;html=1;align=center;verticalAlign=middle;resizable=0;points=[];labelBackgroundColor=#ffffff;fontSize=12;fontColor=#000000;" parent="-vDqUOHx7b5QNChGHNOD-117" vertex="1" connectable="0">
          <mxGeometry x="-0.7632" relative="1" as="geometry">
            <mxPoint as="offset" />
          </mxGeometry>
        </mxCell>
        <mxCell id="-vDqUOHx7b5QNChGHNOD-120" value="Y" style="edgeStyle=orthogonalEdgeStyle;rounded=0;orthogonalLoop=1;jettySize=auto;html=1;exitX=0.5;exitY=0;exitDx=0;exitDy=0;exitPerimeter=0;entryX=0.5;entryY=1;entryDx=0;entryDy=0;startArrow=none;startFill=0;fontSize=12;fontColor=#000000;" parent="-vDqUOHx7b5QNChGHNOD-1" source="-vDqUOHx7b5QNChGHNOD-105" target="-vDqUOHx7b5QNChGHNOD-119" edge="1">
          <mxGeometry relative="1" as="geometry" />
        </mxCell>
        <mxCell id="-vDqUOHx7b5QNChGHNOD-105" value="是否需要进入block任务等待" style="strokeWidth=2;html=1;shape=mxgraph.flowchart.decision;whiteSpace=wrap;fontSize=12;fontColor=#000000;" parent="-vDqUOHx7b5QNChGHNOD-1" vertex="1">
          <mxGeometry x="120" y="1280" width="100" height="100" as="geometry" />
        </mxCell>
        <mxCell id="-vDqUOHx7b5QNChGHNOD-113" style="edgeStyle=orthogonalEdgeStyle;rounded=0;orthogonalLoop=1;jettySize=auto;html=1;entryX=1;entryY=0.5;entryDx=0;entryDy=0;entryPerimeter=0;startArrow=none;startFill=0;fontSize=12;fontColor=#000000;" parent="-vDqUOHx7b5QNChGHNOD-1" source="-vDqUOHx7b5QNChGHNOD-109" target="-vDqUOHx7b5QNChGHNOD-105" edge="1">
          <mxGeometry relative="1" as="geometry" />
        </mxCell>
        <mxCell id="-vDqUOHx7b5QNChGHNOD-109" value="查询block部署单任务" style="rounded=1;whiteSpace=wrap;html=1;absoluteArcSize=1;arcSize=14;strokeWidth=2;fontSize=12;fontColor=#000000;" parent="-vDqUOHx7b5QNChGHNOD-1" vertex="1">
          <mxGeometry x="280" y="1280" width="100" height="100" as="geometry" />
        </mxCell>
        <mxCell id="-vDqUOHx7b5QNChGHNOD-119" value="存储block任务&lt;br&gt;等待定时任务捞取" style="rounded=1;whiteSpace=wrap;html=1;absoluteArcSize=1;arcSize=14;strokeWidth=2;fontSize=12;fontColor=#000000;" parent="-vDqUOHx7b5QNChGHNOD-1" vertex="1">
          <mxGeometry x="120" y="1120" width="100" height="100" as="geometry" />
        </mxCell>
        <mxCell id="-vDqUOHx7b5QNChGHNOD-126" style="edgeStyle=orthogonalEdgeStyle;rounded=0;orthogonalLoop=1;jettySize=auto;html=1;entryX=0;entryY=0.5;entryDx=0;entryDy=0;entryPerimeter=0;startArrow=none;startFill=0;fontSize=12;fontColor=#000000;" parent="-vDqUOHx7b5QNChGHNOD-1" source="-vDqUOHx7b5QNChGHNOD-123" target="-vDqUOHx7b5QNChGHNOD-125" edge="1">
          <mxGeometry relative="1" as="geometry" />
        </mxCell>
        <mxCell id="-vDqUOHx7b5QNChGHNOD-123" value="查询Git和镜像关系" style="rounded=1;whiteSpace=wrap;html=1;absoluteArcSize=1;arcSize=14;strokeWidth=2;" parent="-vDqUOHx7b5QNChGHNOD-1" vertex="1">
          <mxGeometry x="800" y="800" width="100" height="100" as="geometry" />
        </mxCell>
        <mxCell id="-vDqUOHx7b5QNChGHNOD-133" value="Y" style="edgeStyle=orthogonalEdgeStyle;rounded=0;orthogonalLoop=1;jettySize=auto;html=1;startArrow=none;startFill=0;fontSize=12;fontColor=#000000;" parent="-vDqUOHx7b5QNChGHNOD-1" source="-vDqUOHx7b5QNChGHNOD-125" target="-vDqUOHx7b5QNChGHNOD-132" edge="1">
          <mxGeometry relative="1" as="geometry" />
        </mxCell>
        <mxCell id="-vDqUOHx7b5QNChGHNOD-136" style="edgeStyle=orthogonalEdgeStyle;rounded=0;orthogonalLoop=1;jettySize=auto;html=1;exitX=0.5;exitY=0;exitDx=0;exitDy=0;exitPerimeter=0;entryX=0.5;entryY=0;entryDx=0;entryDy=0;entryPerimeter=0;startArrow=none;startFill=0;fontSize=12;fontColor=#000000;" parent="-vDqUOHx7b5QNChGHNOD-1" source="-vDqUOHx7b5QNChGHNOD-125" target="-vDqUOHx7b5QNChGHNOD-134" edge="1">
          <mxGeometry relative="1" as="geometry">
            <Array as="points">
              <mxPoint x="1010" y="680" />
              <mxPoint x="1330" y="680" />
            </Array>
          </mxGeometry>
        </mxCell>
        <mxCell id="-vDqUOHx7b5QNChGHNOD-137" value="N" style="text;html=1;align=center;verticalAlign=middle;resizable=0;points=[];labelBackgroundColor=#ffffff;fontSize=12;fontColor=#000000;" parent="-vDqUOHx7b5QNChGHNOD-136" vertex="1" connectable="0">
          <mxGeometry x="-0.7393" y="3" relative="1" as="geometry">
            <mxPoint as="offset" />
          </mxGeometry>
        </mxCell>
        <mxCell id="-vDqUOHx7b5QNChGHNOD-125" value="是否有镜像变化" style="strokeWidth=2;html=1;shape=mxgraph.flowchart.decision;whiteSpace=wrap;fontSize=12;fontColor=#000000;" parent="-vDqUOHx7b5QNChGHNOD-1" vertex="1">
          <mxGeometry x="960" y="800" width="100" height="100" as="geometry" />
        </mxCell>
        <mxCell id="-vDqUOHx7b5QNChGHNOD-135" style="edgeStyle=orthogonalEdgeStyle;rounded=0;orthogonalLoop=1;jettySize=auto;html=1;entryX=0;entryY=0.5;entryDx=0;entryDy=0;entryPerimeter=0;startArrow=none;startFill=0;fontSize=12;fontColor=#000000;" parent="-vDqUOHx7b5QNChGHNOD-1" source="-vDqUOHx7b5QNChGHNOD-127" target="-vDqUOHx7b5QNChGHNOD-134" edge="1">
          <mxGeometry relative="1" as="geometry" />
        </mxCell>
        <mxCell id="-vDqUOHx7b5QNChGHNOD-127" value="查询工单系统" style="rounded=1;whiteSpace=wrap;html=1;absoluteArcSize=1;arcSize=14;strokeWidth=2;fontSize=12;fontColor=#000000;" parent="-vDqUOHx7b5QNChGHNOD-1" vertex="1">
          <mxGeometry x="1120" y="800" width="100" height="100" as="geometry" />
        </mxCell>
        <mxCell id="-vDqUOHx7b5QNChGHNOD-129" value="配置表初始化数据" style="rounded=1;whiteSpace=wrap;html=1;absoluteArcSize=1;arcSize=14;strokeWidth=2;fontSize=12;fontColor=#000000;" parent="-vDqUOHx7b5QNChGHNOD-1" vertex="1">
          <mxGeometry x="120" y="800" width="100" height="100" as="geometry" />
        </mxCell>
        <mxCell id="-vDqUOHx7b5QNChGHNOD-142" style="edgeStyle=orthogonalEdgeStyle;rounded=0;orthogonalLoop=1;jettySize=auto;html=1;entryX=1;entryY=0.5;entryDx=0;entryDy=0;startArrow=none;startFill=0;fontSize=12;fontColor=#000000;" parent="-vDqUOHx7b5QNChGHNOD-1" source="-vDqUOHx7b5QNChGHNOD-132" target="-vDqUOHx7b5QNChGHNOD-66" edge="1">
          <mxGeometry relative="1" as="geometry" />
        </mxCell>
        <mxCell id="-vDqUOHx7b5QNChGHNOD-132" value="创建构建" style="rounded=1;whiteSpace=wrap;html=1;absoluteArcSize=1;arcSize=14;strokeWidth=2;fontSize=12;fontColor=#000000;" parent="-vDqUOHx7b5QNChGHNOD-1" vertex="1">
          <mxGeometry x="960" y="960" width="100" height="100" as="geometry" />
        </mxCell>
        <mxCell id="-vDqUOHx7b5QNChGHNOD-138" style="edgeStyle=orthogonalEdgeStyle;rounded=0;orthogonalLoop=1;jettySize=auto;html=1;startArrow=none;startFill=0;fontSize=12;fontColor=#000000;exitX=1;exitY=0.5;exitDx=0;exitDy=0;exitPerimeter=0;" parent="-vDqUOHx7b5QNChGHNOD-1" source="-vDqUOHx7b5QNChGHNOD-134" edge="1">
          <mxGeometry relative="1" as="geometry">
            <mxPoint x="490" y="1640" as="targetPoint" />
            <Array as="points">
              <mxPoint x="1440" y="850" />
              <mxPoint x="1440" y="1200" />
              <mxPoint x="760" y="1200" />
              <mxPoint x="760" y="1600" />
              <mxPoint x="490" y="1600" />
            </Array>
          </mxGeometry>
        </mxCell>
        <mxCell id="-vDqUOHx7b5QNChGHNOD-139" value="N" style="text;html=1;align=center;verticalAlign=middle;resizable=0;points=[];labelBackgroundColor=#ffffff;fontSize=12;fontColor=#000000;" parent="-vDqUOHx7b5QNChGHNOD-138" vertex="1" connectable="0">
          <mxGeometry x="-0.9595" y="-1" relative="1" as="geometry">
            <mxPoint as="offset" />
          </mxGeometry>
        </mxCell>
        <mxCell id="-vDqUOHx7b5QNChGHNOD-140" style="edgeStyle=orthogonalEdgeStyle;rounded=0;orthogonalLoop=1;jettySize=auto;html=1;entryX=1;entryY=0.5;entryDx=0;entryDy=0;startArrow=none;startFill=0;fontSize=12;fontColor=#000000;" parent="-vDqUOHx7b5QNChGHNOD-1" source="-vDqUOHx7b5QNChGHNOD-134" target="-vDqUOHx7b5QNChGHNOD-132" edge="1">
          <mxGeometry relative="1" as="geometry">
            <Array as="points">
              <mxPoint x="1330" y="1010" />
            </Array>
          </mxGeometry>
        </mxCell>
        <mxCell id="-vDqUOHx7b5QNChGHNOD-141" value="Y" style="text;html=1;align=center;verticalAlign=middle;resizable=0;points=[];labelBackgroundColor=#ffffff;fontSize=12;fontColor=#000000;" parent="-vDqUOHx7b5QNChGHNOD-140" vertex="1" connectable="0">
          <mxGeometry x="-0.8684" relative="1" as="geometry">
            <mxPoint as="offset" />
          </mxGeometry>
        </mxCell>
        <mxCell id="-vDqUOHx7b5QNChGHNOD-134" value="是否有数据变化" style="strokeWidth=2;html=1;shape=mxgraph.flowchart.decision;whiteSpace=wrap;fontSize=12;fontColor=#000000;" parent="-vDqUOHx7b5QNChGHNOD-1" vertex="1">
          <mxGeometry x="1280" y="800" width="100" height="100" as="geometry" />
        </mxCell>
        <mxCell id="-vDqUOHx7b5QNChGHNOD-143" value="主要信息:&lt;br&gt;commitId;&lt;br&gt;jar;&lt;br&gt;image;" style="text;html=1;strokeColor=none;fillColor=none;align=center;verticalAlign=middle;whiteSpace=wrap;rounded=0;fontSize=12;fontColor=#000000;" parent="-vDqUOHx7b5QNChGHNOD-1" vertex="1">
          <mxGeometry x="160" y="240" width="150" height="90" as="geometry" />
        </mxCell>
        <mxCell id="-vDqUOHx7b5QNChGHNOD-145" value="" style="endArrow=none;dashed=1;html=1;fontSize=12;fontColor=#000000;" parent="-vDqUOHx7b5QNChGHNOD-1" source="-vDqUOHx7b5QNChGHNOD-54" edge="1">
          <mxGeometry width="50" height="50" relative="1" as="geometry">
            <mxPoint x="40" y="300" as="sourcePoint" />
            <mxPoint x="1440" y="300" as="targetPoint" />
          </mxGeometry>
        </mxCell>
        <mxCell id="-vDqUOHx7b5QNChGHNOD-54" value="Mercury" style="text;html=1;strokeColor=none;fillColor=none;align=center;verticalAlign=middle;whiteSpace=wrap;rounded=0;dashed=1;fontColor=#FF0000;fontStyle=1;fontSize=20;" parent="-vDqUOHx7b5QNChGHNOD-1" vertex="1">
          <mxGeometry x="400" y="290" width="40" height="20" as="geometry" />
        </mxCell>
        <mxCell id="-vDqUOHx7b5QNChGHNOD-146" value="" style="endArrow=none;dashed=1;html=1;fontSize=12;fontColor=#000000;" parent="-vDqUOHx7b5QNChGHNOD-1" target="-vDqUOHx7b5QNChGHNOD-54" edge="1">
          <mxGeometry width="50" height="50" relative="1" as="geometry">
            <mxPoint x="40" y="300" as="sourcePoint" />
            <mxPoint x="1440" y="300" as="targetPoint" />
          </mxGeometry>
        </mxCell>
      </root>
    </mxGraphModel>
  </diagram>
  <diagram id="NrHfSoAkEmsqEI3gpv8P" name="跨网部署_part1">
    <mxGraphModel dx="947" dy="648" grid="1" gridSize="10" guides="1" tooltips="1" connect="1" arrows="1" fold="1" page="1" pageScale="1" pageWidth="1534" pageHeight="1141" math="0" shadow="0">
      <root>
        <mxCell id="XqAyHheYyrS93fH_9k67-0" />
        <mxCell id="XqAyHheYyrS93fH_9k67-1" parent="XqAyHheYyrS93fH_9k67-0" />
        <mxCell id="gLoHnf5BwcC-MXx9ef10-2" value="" style="rounded=1;whiteSpace=wrap;html=1;dashed=1;fontSize=12;fontColor=#000000;" parent="XqAyHheYyrS93fH_9k67-1" vertex="1">
          <mxGeometry x="120" y="20" width="180" height="260" as="geometry" />
        </mxCell>
        <mxCell id="gLoHnf5BwcC-MXx9ef10-1" value="" style="rounded=1;whiteSpace=wrap;html=1;fontSize=12;fontColor=#000000;dashed=1;" parent="XqAyHheYyrS93fH_9k67-1" vertex="1">
          <mxGeometry x="480" y="780" width="320" height="140" as="geometry" />
        </mxCell>
        <mxCell id="43do_WQDfuWBWU-oShBm-4" style="edgeStyle=orthogonalEdgeStyle;rounded=0;orthogonalLoop=1;jettySize=auto;html=1;entryX=0.5;entryY=0;entryDx=0;entryDy=0;startArrow=none;startFill=0;fontSize=12;fontColor=#000000;" parent="XqAyHheYyrS93fH_9k67-1" source="XqAyHheYyrS93fH_9k67-3" target="XqAyHheYyrS93fH_9k67-4" edge="1">
          <mxGeometry relative="1" as="geometry" />
        </mxCell>
        <mxCell id="XqAyHheYyrS93fH_9k67-3" value="aone" style="strokeWidth=2;html=1;shape=mxgraph.flowchart.start_1;whiteSpace=wrap;fontSize=12;fontColor=#000000;" parent="XqAyHheYyrS93fH_9k67-1" vertex="1">
          <mxGeometry x="161" y="40" width="100" height="60" as="geometry" />
        </mxCell>
        <mxCell id="VVZ9bXZv2kA5P1Q7i_9g-1" style="edgeStyle=orthogonalEdgeStyle;rounded=0;orthogonalLoop=1;jettySize=auto;html=1;entryX=0.5;entryY=0;entryDx=0;entryDy=0;startArrow=none;startFill=0;fontSize=12;fontColor=#000000;" parent="XqAyHheYyrS93fH_9k67-1" source="XqAyHheYyrS93fH_9k67-4" target="VVZ9bXZv2kA5P1Q7i_9g-0" edge="1">
          <mxGeometry relative="1" as="geometry" />
        </mxCell>
        <mxCell id="XqAyHheYyrS93fH_9k67-4" value="jenkins" style="rounded=1;whiteSpace=wrap;html=1;absoluteArcSize=1;arcSize=14;strokeWidth=2;fontSize=12;fontColor=#000000;dashed=1;" parent="XqAyHheYyrS93fH_9k67-1" vertex="1">
          <mxGeometry x="161" y="160" width="100" height="100" as="geometry" />
        </mxCell>
        <mxCell id="Hv3FEtfAChojvycxBo8a-4" value="" style="edgeStyle=orthogonalEdgeStyle;rounded=0;orthogonalLoop=1;jettySize=auto;html=1;startArrow=none;startFill=0;fontSize=12;fontColor=#000000;" parent="XqAyHheYyrS93fH_9k67-1" source="VVZ9bXZv2kA5P1Q7i_9g-0" target="Hv3FEtfAChojvycxBo8a-3" edge="1">
          <mxGeometry relative="1" as="geometry" />
        </mxCell>
        <mxCell id="VVZ9bXZv2kA5P1Q7i_9g-0" value="SystemRunController&lt;br&gt;系统运行接口" style="rounded=1;whiteSpace=wrap;html=1;absoluteArcSize=1;arcSize=14;strokeWidth=2;fontSize=12;fontColor=#000000;" parent="XqAyHheYyrS93fH_9k67-1" vertex="1">
          <mxGeometry x="161" y="320" width="100" height="100" as="geometry" />
        </mxCell>
        <mxCell id="Hv3FEtfAChojvycxBo8a-7" value="" style="edgeStyle=orthogonalEdgeStyle;rounded=0;orthogonalLoop=1;jettySize=auto;html=1;startArrow=none;startFill=0;fontSize=12;fontColor=#000000;" parent="XqAyHheYyrS93fH_9k67-1" source="Hv3FEtfAChojvycxBo8a-3" target="Hv3FEtfAChojvycxBo8a-6" edge="1">
          <mxGeometry relative="1" as="geometry" />
        </mxCell>
        <mxCell id="Hv3FEtfAChojvycxBo8a-3" value="SystemRunService&lt;br&gt;系统运行服务" style="rounded=1;whiteSpace=wrap;html=1;absoluteArcSize=1;arcSize=14;strokeWidth=2;fontSize=12;fontColor=#000000;" parent="XqAyHheYyrS93fH_9k67-1" vertex="1">
          <mxGeometry x="161" y="480" width="100" height="100" as="geometry" />
        </mxCell>
        <mxCell id="Hv3FEtfAChojvycxBo8a-6" value="保存Git代码和镜像关系" style="rounded=1;whiteSpace=wrap;html=1;absoluteArcSize=1;arcSize=14;strokeWidth=2;fontSize=12;fontColor=#000000;" parent="XqAyHheYyrS93fH_9k67-1" vertex="1">
          <mxGeometry x="161" y="960" width="100" height="100" as="geometry" />
        </mxCell>
        <mxCell id="VVZ9bXZv2kA5P1Q7i_9g-2" value="" style="endArrow=none;dashed=1;html=1;fontSize=12;fontColor=#000000;" parent="XqAyHheYyrS93fH_9k67-1" edge="1">
          <mxGeometry width="50" height="50" relative="1" as="geometry">
            <mxPoint x="40" y="300" as="sourcePoint" />
            <mxPoint x="1040" y="300" as="targetPoint" />
          </mxGeometry>
        </mxCell>
        <mxCell id="VVZ9bXZv2kA5P1Q7i_9g-3" value="Mercury" style="text;html=1;strokeColor=none;fillColor=none;align=center;verticalAlign=middle;whiteSpace=wrap;rounded=0;dashed=1;fontSize=12;fontColor=#000000;" parent="XqAyHheYyrS93fH_9k67-1" vertex="1">
          <mxGeometry x="440" y="270" width="40" height="20" as="geometry" />
        </mxCell>
        <mxCell id="Ri7KRc1ao6qsvtgzv5MS-0" value="主要信息:&lt;br&gt;commitId;&lt;br&gt;jar;&lt;br&gt;image;" style="text;html=1;fontSize=12;fontColor=#000000;align=center;" parent="XqAyHheYyrS93fH_9k67-1" vertex="1">
          <mxGeometry x="280" y="260" width="100" height="70" as="geometry" />
        </mxCell>
        <mxCell id="cIIHiTn-rzgZiGr-4OHm-2" value="" style="edgeStyle=orthogonalEdgeStyle;rounded=0;orthogonalLoop=1;jettySize=auto;html=1;startArrow=none;startFill=0;fontSize=12;fontColor=#000000;" parent="XqAyHheYyrS93fH_9k67-1" source="YWm0bJ6AXB5LxX9oTn9T-0" target="cIIHiTn-rzgZiGr-4OHm-1" edge="1">
          <mxGeometry relative="1" as="geometry" />
        </mxCell>
        <mxCell id="YWm0bJ6AXB5LxX9oTn9T-0" value="AutoService&lt;br&gt;自动服务" style="rounded=1;whiteSpace=wrap;html=1;absoluteArcSize=1;arcSize=14;strokeWidth=2;fontSize=12;fontColor=#000000;" parent="XqAyHheYyrS93fH_9k67-1" vertex="1">
          <mxGeometry x="320" y="640" width="100" height="100" as="geometry" />
        </mxCell>
        <mxCell id="8hiyLkxhIxxsfhtlHDAi-1" style="edgeStyle=orthogonalEdgeStyle;rounded=0;orthogonalLoop=1;jettySize=auto;html=1;entryX=0;entryY=0.5;entryDx=0;entryDy=0;entryPerimeter=0;startArrow=none;startFill=0;fontSize=12;fontColor=#000000;" parent="XqAyHheYyrS93fH_9k67-1" source="cIIHiTn-rzgZiGr-4OHm-1" target="8hiyLkxhIxxsfhtlHDAi-0" edge="1">
          <mxGeometry relative="1" as="geometry" />
        </mxCell>
        <mxCell id="cIIHiTn-rzgZiGr-4OHm-1" value="查询上一次构建信息" style="rounded=1;whiteSpace=wrap;html=1;absoluteArcSize=1;arcSize=14;strokeWidth=2;fontSize=12;fontColor=#000000;" parent="XqAyHheYyrS93fH_9k67-1" vertex="1">
          <mxGeometry x="480" y="640" width="100" height="100" as="geometry" />
        </mxCell>
        <mxCell id="8p2I6Ntt06i8AfsucTum-1" style="edgeStyle=orthogonalEdgeStyle;rounded=0;orthogonalLoop=1;jettySize=auto;html=1;startArrow=none;startFill=0;fontSize=12;fontColor=#000000;" parent="XqAyHheYyrS93fH_9k67-1" source="8p2I6Ntt06i8AfsucTum-0" target="YWm0bJ6AXB5LxX9oTn9T-0" edge="1">
          <mxGeometry relative="1" as="geometry" />
        </mxCell>
        <mxCell id="8p2I6Ntt06i8AfsucTum-0" value="" style="aspect=fixed;html=1;points=[];align=center;image;fontSize=12;image=img/lib/mscae/SchedulerJobCollection.svg;" parent="XqAyHheYyrS93fH_9k67-1" vertex="1">
          <mxGeometry x="80" y="668.5" width="50" height="43" as="geometry" />
        </mxCell>
        <mxCell id="cIIHiTn-rzgZiGr-4OHm-3" value="单应用视角" style="text;html=1;strokeColor=none;fillColor=none;align=center;verticalAlign=middle;whiteSpace=wrap;rounded=0;fontSize=12;fontColor=#000000;" parent="XqAyHheYyrS93fH_9k67-1" vertex="1">
          <mxGeometry x="80" y="630" width="80" height="20" as="geometry" />
        </mxCell>
        <mxCell id="8hiyLkxhIxxsfhtlHDAi-3" value="N" style="edgeStyle=orthogonalEdgeStyle;rounded=0;orthogonalLoop=1;jettySize=auto;html=1;entryX=0.5;entryY=0;entryDx=0;entryDy=0;startArrow=none;startFill=0;fontSize=12;fontColor=#000000;" parent="XqAyHheYyrS93fH_9k67-1" source="8hiyLkxhIxxsfhtlHDAi-0" target="8hiyLkxhIxxsfhtlHDAi-2" edge="1">
          <mxGeometry relative="1" as="geometry" />
        </mxCell>
        <mxCell id="gLoHnf5BwcC-MXx9ef10-7" value="Y" style="edgeStyle=orthogonalEdgeStyle;rounded=0;orthogonalLoop=1;jettySize=auto;html=1;entryX=0;entryY=0.5;entryDx=0;entryDy=0;startArrow=none;startFill=0;fontSize=12;fontColor=#000000;" parent="XqAyHheYyrS93fH_9k67-1" source="8hiyLkxhIxxsfhtlHDAi-0" target="gLoHnf5BwcC-MXx9ef10-6" edge="1">
          <mxGeometry relative="1" as="geometry" />
        </mxCell>
        <mxCell id="8hiyLkxhIxxsfhtlHDAi-0" value="&lt;font style=&quot;font-size: 12px&quot; color=&quot;#000000&quot;&gt;是否有上一次构建&lt;/font&gt;" style="strokeWidth=2;html=1;shape=mxgraph.flowchart.decision;whiteSpace=wrap;fontSize=20;fontColor=#FF0000;" parent="XqAyHheYyrS93fH_9k67-1" vertex="1">
          <mxGeometry x="640" y="640" width="100" height="100" as="geometry" />
        </mxCell>
        <mxCell id="VuxTsX7JcDmO15TTYek0-0" style="edgeStyle=orthogonalEdgeStyle;rounded=0;orthogonalLoop=1;jettySize=auto;html=1;entryX=1;entryY=0.5;entryDx=0;entryDy=0;startArrow=none;startFill=0;fontSize=12;fontColor=#000000;" parent="XqAyHheYyrS93fH_9k67-1" source="8hiyLkxhIxxsfhtlHDAi-2" target="Hv3FEtfAChojvycxBo8a-6" edge="1">
          <mxGeometry relative="1" as="geometry">
            <Array as="points">
              <mxPoint x="690" y="1010" />
            </Array>
          </mxGeometry>
        </mxCell>
        <mxCell id="8hiyLkxhIxxsfhtlHDAi-2" value="第一次构建逻辑" style="rounded=1;whiteSpace=wrap;html=1;absoluteArcSize=1;arcSize=14;strokeWidth=2;fontSize=12;fontColor=#000000;" parent="XqAyHheYyrS93fH_9k67-1" vertex="1">
          <mxGeometry x="640" y="800" width="100" height="100" as="geometry" />
        </mxCell>
        <mxCell id="gLoHnf5BwcC-MXx9ef10-0" value="应用首次接入部署平台" style="text;html=1;strokeColor=none;fillColor=none;align=center;verticalAlign=middle;whiteSpace=wrap;rounded=0;fontSize=12;fontColor=#000000;" parent="XqAyHheYyrS93fH_9k67-1" vertex="1">
          <mxGeometry x="500" y="830" width="140" height="40" as="geometry" />
        </mxCell>
        <mxCell id="gLoHnf5BwcC-MXx9ef10-3" value="aone对接流程" style="text;html=1;strokeColor=none;fillColor=none;align=center;verticalAlign=middle;whiteSpace=wrap;rounded=0;dashed=1;fontSize=12;fontColor=#000000;" parent="XqAyHheYyrS93fH_9k67-1" vertex="1">
          <mxGeometry x="120" y="110" width="80" height="20" as="geometry" />
        </mxCell>
        <mxCell id="gLoHnf5BwcC-MXx9ef10-4" value="定时任务,可以在规则页面配置" style="text;html=1;strokeColor=none;fillColor=none;align=center;verticalAlign=middle;whiteSpace=wrap;rounded=0;dashed=1;fontSize=12;fontColor=#000000;" parent="XqAyHheYyrS93fH_9k67-1" vertex="1">
          <mxGeometry x="80" y="730" width="100" height="50" as="geometry" />
        </mxCell>
        <mxCell id="VuxTsX7JcDmO15TTYek0-1" style="edgeStyle=orthogonalEdgeStyle;rounded=0;orthogonalLoop=1;jettySize=auto;html=1;entryX=1;entryY=0.5;entryDx=0;entryDy=0;startArrow=none;startFill=0;fontSize=12;fontColor=#000000;" parent="XqAyHheYyrS93fH_9k67-1" source="gLoHnf5BwcC-MXx9ef10-6" target="Hv3FEtfAChojvycxBo8a-6" edge="1">
          <mxGeometry relative="1" as="geometry">
            <Array as="points">
              <mxPoint x="890" y="1010" />
            </Array>
          </mxGeometry>
        </mxCell>
        <mxCell id="gLoHnf5BwcC-MXx9ef10-6" value="标准构建逻辑" style="rounded=1;whiteSpace=wrap;html=1;absoluteArcSize=1;arcSize=14;strokeWidth=2;fontSize=12;fontColor=#000000;" parent="XqAyHheYyrS93fH_9k67-1" vertex="1">
          <mxGeometry x="840" y="640" width="100" height="100" as="geometry" />
        </mxCell>
        <mxCell id="VuxTsX7JcDmO15TTYek0-3" value="依赖代码镜像关联表数据" style="text;html=1;strokeColor=none;fillColor=none;align=center;verticalAlign=middle;whiteSpace=wrap;rounded=0;fontSize=12;fontColor=#000000;" parent="XqAyHheYyrS93fH_9k67-1" vertex="1">
          <mxGeometry x="760" y="980" width="80" height="20" as="geometry" />
        </mxCell>
      </root>
    </mxGraphModel>
  </diagram>
  <diagram id="idcMOVRGT34mCy7eieuv" name="跨网部署_part2">
    <mxGraphModel dx="1114" dy="762" grid="1" gridSize="10" guides="1" tooltips="1" connect="1" arrows="1" fold="1" page="1" pageScale="1" pageWidth="1534" pageHeight="1141" math="0" shadow="0">
      <root>
        <mxCell id="IgNBceZgo5YCVWrqHAvi-0" />
        <mxCell id="IgNBceZgo5YCVWrqHAvi-1" parent="IgNBceZgo5YCVWrqHAvi-0" />
        <mxCell id="SJacbisxZldMZ9JnFWkS-1" value="" style="rounded=1;whiteSpace=wrap;html=1;fontSize=12;fontColor=#000000;" vertex="1" parent="IgNBceZgo5YCVWrqHAvi-1">
          <mxGeometry x="560" y="80" width="520" height="640" as="geometry" />
        </mxCell>
        <mxCell id="SJacbisxZldMZ9JnFWkS-0" value="" style="rounded=1;whiteSpace=wrap;html=1;fontSize=12;fontColor=#000000;" vertex="1" parent="IgNBceZgo5YCVWrqHAvi-1">
          <mxGeometry x="40" y="80" width="440" height="640" as="geometry" />
        </mxCell>
        <mxCell id="LH3-rxY2ae6uKeU0JwOH-0" value="单应用第一次构建逻辑" style="text;html=1;strokeColor=none;fillColor=none;align=center;verticalAlign=middle;whiteSpace=wrap;rounded=0;fontSize=12;fontColor=#000000;" vertex="1" parent="IgNBceZgo5YCVWrqHAvi-1">
          <mxGeometry x="280" y="90" width="160" height="30" as="geometry" />
        </mxCell>
        <mxCell id="4KM7VigJ7K2d_XD6pTyq-1" style="edgeStyle=orthogonalEdgeStyle;rounded=0;orthogonalLoop=1;jettySize=auto;html=1;entryX=0.5;entryY=0;entryDx=0;entryDy=0;startArrow=none;startFill=0;fontSize=12;fontColor=#000000;" edge="1" parent="IgNBceZgo5YCVWrqHAvi-1" source="Tw7fHM_fIprzp8Huaohk-0" target="4KM7VigJ7K2d_XD6pTyq-0">
          <mxGeometry relative="1" as="geometry">
            <Array as="points">
              <mxPoint x="130" y="220" />
              <mxPoint x="130" y="220" />
            </Array>
          </mxGeometry>
        </mxCell>
        <mxCell id="Tw7fHM_fIprzp8Huaohk-0" value="开始构建" style="strokeWidth=2;html=1;shape=mxgraph.flowchart.start_1;whiteSpace=wrap;fontSize=12;fontColor=#333333;fillColor=#f5f5f5;strokeColor=#666666;" vertex="1" parent="IgNBceZgo5YCVWrqHAvi-1">
          <mxGeometry x="80" y="120" width="100" height="60" as="geometry" />
        </mxCell>
        <mxCell id="2ioKUWp66ByUzWV0ZH8E-1" style="edgeStyle=orthogonalEdgeStyle;rounded=0;orthogonalLoop=1;jettySize=auto;html=1;entryX=0.5;entryY=0;entryDx=0;entryDy=0;entryPerimeter=0;startArrow=none;startFill=0;fontSize=12;fontColor=#000000;" edge="1" parent="IgNBceZgo5YCVWrqHAvi-1" source="4KM7VigJ7K2d_XD6pTyq-0" target="2ioKUWp66ByUzWV0ZH8E-0">
          <mxGeometry relative="1" as="geometry" />
        </mxCell>
        <mxCell id="4KM7VigJ7K2d_XD6pTyq-0" value="查询Git和镜像变更记录" style="rounded=1;whiteSpace=wrap;html=1;absoluteArcSize=1;arcSize=14;strokeWidth=2;fontSize=12;fontColor=#000000;" vertex="1" parent="IgNBceZgo5YCVWrqHAvi-1">
          <mxGeometry x="80" y="240" width="100" height="100" as="geometry" />
        </mxCell>
        <mxCell id="VNu92oFa3BAU21jCof-o-0" value="结束" style="strokeWidth=2;html=1;shape=mxgraph.flowchart.terminator;whiteSpace=wrap;fontSize=12;fontColor=#333333;fillColor=#f5f5f5;strokeColor=#666666;" vertex="1" parent="IgNBceZgo5YCVWrqHAvi-1">
          <mxGeometry x="80" y="760" width="100" height="60" as="geometry" />
        </mxCell>
        <mxCell id="2ioKUWp66ByUzWV0ZH8E-2" style="edgeStyle=orthogonalEdgeStyle;rounded=0;orthogonalLoop=1;jettySize=auto;html=1;startArrow=none;startFill=0;fontSize=12;fontColor=#000000;exitX=0.5;exitY=1;exitDx=0;exitDy=0;exitPerimeter=0;" edge="1" parent="IgNBceZgo5YCVWrqHAvi-1" source="2ioKUWp66ByUzWV0ZH8E-0" target="VNu92oFa3BAU21jCof-o-0">
          <mxGeometry relative="1" as="geometry">
            <mxPoint x="130" y="600" as="targetPoint" />
            <Array as="points">
              <mxPoint x="130" y="520" />
              <mxPoint x="130" y="520" />
            </Array>
          </mxGeometry>
        </mxCell>
        <mxCell id="2ioKUWp66ByUzWV0ZH8E-3" value="N" style="text;html=1;align=center;verticalAlign=middle;resizable=0;points=[];labelBackgroundColor=#ffffff;fontSize=12;fontColor=#000000;" vertex="1" connectable="0" parent="2ioKUWp66ByUzWV0ZH8E-2">
          <mxGeometry x="-0.8105" y="2" relative="1" as="geometry">
            <mxPoint as="offset" />
          </mxGeometry>
        </mxCell>
        <mxCell id="XAIqfjTwNXTH4v37vmBp-8" style="edgeStyle=orthogonalEdgeStyle;rounded=0;orthogonalLoop=1;jettySize=auto;html=1;entryX=0;entryY=0.5;entryDx=0;entryDy=0;startArrow=none;startFill=0;fontSize=12;fontColor=#000000;" edge="1" parent="IgNBceZgo5YCVWrqHAvi-1" source="2ioKUWp66ByUzWV0ZH8E-0" target="OjwQ6WH2itJ58CA9XxV4-0">
          <mxGeometry relative="1" as="geometry" />
        </mxCell>
        <mxCell id="XAIqfjTwNXTH4v37vmBp-9" value="Y" style="text;html=1;align=center;verticalAlign=middle;resizable=0;points=[];labelBackgroundColor=#ffffff;fontSize=12;fontColor=#000000;" vertex="1" connectable="0" parent="XAIqfjTwNXTH4v37vmBp-8">
          <mxGeometry x="-0.3686" y="-2" relative="1" as="geometry">
            <mxPoint as="offset" />
          </mxGeometry>
        </mxCell>
        <mxCell id="2ioKUWp66ByUzWV0ZH8E-0" value="是否有镜像更新" style="strokeWidth=2;html=1;shape=mxgraph.flowchart.decision;whiteSpace=wrap;fontSize=12;fontColor=#000000;" vertex="1" parent="IgNBceZgo5YCVWrqHAvi-1">
          <mxGeometry x="80" y="400" width="100" height="100" as="geometry" />
        </mxCell>
        <mxCell id="OjwQ6WH2itJ58CA9XxV4-0" value="创建构建及发布单" style="rounded=1;whiteSpace=wrap;html=1;absoluteArcSize=1;arcSize=14;strokeWidth=2;fontSize=12;fontColor=#000000;" vertex="1" parent="IgNBceZgo5YCVWrqHAvi-1">
          <mxGeometry x="240" y="400" width="100" height="100" as="geometry" />
        </mxCell>
        <mxCell id="3vr38bwCp4naCkcWXJ-C-2" style="edgeStyle=orthogonalEdgeStyle;rounded=0;orthogonalLoop=1;jettySize=auto;html=1;entryX=0;entryY=0.5;entryDx=0;entryDy=0;startArrow=none;startFill=0;fontSize=12;fontColor=#000000;" edge="1" parent="IgNBceZgo5YCVWrqHAvi-1" source="3vr38bwCp4naCkcWXJ-C-0" target="3vr38bwCp4naCkcWXJ-C-1">
          <mxGeometry relative="1" as="geometry">
            <Array as="points">
              <mxPoint x="690" y="210" />
              <mxPoint x="600" y="210" />
              <mxPoint x="600" y="290" />
            </Array>
          </mxGeometry>
        </mxCell>
        <mxCell id="XAIqfjTwNXTH4v37vmBp-17" style="edgeStyle=orthogonalEdgeStyle;rounded=0;orthogonalLoop=1;jettySize=auto;html=1;entryX=0;entryY=0.5;entryDx=0;entryDy=0;startArrow=none;startFill=0;fontSize=12;fontColor=#000000;" edge="1" parent="IgNBceZgo5YCVWrqHAvi-1" source="3vr38bwCp4naCkcWXJ-C-0" target="6dgHfCHCAOI_GMsg-r-n-0">
          <mxGeometry relative="1" as="geometry">
            <Array as="points">
              <mxPoint x="690" y="210" />
              <mxPoint x="600" y="210" />
              <mxPoint x="600" y="450" />
            </Array>
          </mxGeometry>
        </mxCell>
        <mxCell id="3vr38bwCp4naCkcWXJ-C-0" value="开始构建" style="strokeWidth=2;html=1;shape=mxgraph.flowchart.start_1;whiteSpace=wrap;fontSize=12;fontColor=#333333;fillColor=#f5f5f5;strokeColor=#666666;" vertex="1" parent="IgNBceZgo5YCVWrqHAvi-1">
          <mxGeometry x="640" y="120" width="100" height="60" as="geometry" />
        </mxCell>
        <mxCell id="3vr38bwCp4naCkcWXJ-C-4" style="edgeStyle=orthogonalEdgeStyle;rounded=0;orthogonalLoop=1;jettySize=auto;html=1;startArrow=none;startFill=0;fontSize=12;fontColor=#000000;" edge="1" parent="IgNBceZgo5YCVWrqHAvi-1" source="3vr38bwCp4naCkcWXJ-C-1" target="3vr38bwCp4naCkcWXJ-C-3">
          <mxGeometry relative="1" as="geometry" />
        </mxCell>
        <mxCell id="3vr38bwCp4naCkcWXJ-C-1" value="查询Git和镜像变更记录" style="rounded=1;whiteSpace=wrap;html=1;absoluteArcSize=1;arcSize=14;strokeWidth=2;fontSize=12;fontColor=#000000;" vertex="1" parent="IgNBceZgo5YCVWrqHAvi-1">
          <mxGeometry x="640" y="240" width="100" height="100" as="geometry" />
        </mxCell>
        <mxCell id="FGZ26Xj6zOOTDwe__vaZ-0" value="Y" style="edgeStyle=orthogonalEdgeStyle;rounded=0;orthogonalLoop=1;jettySize=auto;html=1;startArrow=none;startFill=0;fontSize=12;fontColor=#000000;exitX=1;exitY=0.5;exitDx=0;exitDy=0;exitPerimeter=0;" edge="1" parent="IgNBceZgo5YCVWrqHAvi-1" source="3vr38bwCp4naCkcWXJ-C-3" target="gxaHQdBIvglhpzLvduGO-0">
          <mxGeometry relative="1" as="geometry">
            <Array as="points">
              <mxPoint x="1010" y="290" />
            </Array>
          </mxGeometry>
        </mxCell>
        <mxCell id="FGZ26Xj6zOOTDwe__vaZ-5" value="N" style="edgeStyle=orthogonalEdgeStyle;rounded=0;orthogonalLoop=1;jettySize=auto;html=1;entryX=0.5;entryY=0;entryDx=0;entryDy=0;entryPerimeter=0;startArrow=none;startFill=0;fontSize=12;fontColor=#000000;" edge="1" parent="IgNBceZgo5YCVWrqHAvi-1" source="3vr38bwCp4naCkcWXJ-C-3" target="XAIqfjTwNXTH4v37vmBp-15">
          <mxGeometry relative="1" as="geometry" />
        </mxCell>
        <mxCell id="3vr38bwCp4naCkcWXJ-C-3" value="是否有镜像更新" style="strokeWidth=2;html=1;shape=mxgraph.flowchart.decision;whiteSpace=wrap;fontSize=12;fontColor=#000000;" vertex="1" parent="IgNBceZgo5YCVWrqHAvi-1">
          <mxGeometry x="800" y="240" width="100" height="100" as="geometry" />
        </mxCell>
        <mxCell id="XAIqfjTwNXTH4v37vmBp-21" style="edgeStyle=orthogonalEdgeStyle;rounded=0;orthogonalLoop=1;jettySize=auto;html=1;entryX=0;entryY=0.5;entryDx=0;entryDy=0;entryPerimeter=0;startArrow=none;startFill=0;fontSize=12;fontColor=#000000;" edge="1" parent="IgNBceZgo5YCVWrqHAvi-1" source="6dgHfCHCAOI_GMsg-r-n-0" target="XAIqfjTwNXTH4v37vmBp-15">
          <mxGeometry relative="1" as="geometry" />
        </mxCell>
        <mxCell id="6dgHfCHCAOI_GMsg-r-n-0" value="查询工单系统" style="rounded=1;whiteSpace=wrap;html=1;absoluteArcSize=1;arcSize=14;strokeWidth=2;fontSize=12;fontColor=#000000;" vertex="1" parent="IgNBceZgo5YCVWrqHAvi-1">
          <mxGeometry x="640" y="400" width="100" height="100" as="geometry" />
        </mxCell>
        <mxCell id="XAIqfjTwNXTH4v37vmBp-13" value="1. 因为第一次肯定要先走沙箱，所以只有镜像，是特殊的&lt;br&gt;2. 不可被手动选用" style="text;html=1;strokeColor=none;fillColor=none;align=left;verticalAlign=middle;whiteSpace=wrap;rounded=0;fontSize=12;fontColor=#000000;" vertex="1" parent="IgNBceZgo5YCVWrqHAvi-1">
          <mxGeometry x="200" y="530" width="270" height="50" as="geometry" />
        </mxCell>
        <mxCell id="XAIqfjTwNXTH4v37vmBp-14" value="单应用普通构建逻辑" style="text;html=1;strokeColor=none;fillColor=none;align=center;verticalAlign=middle;whiteSpace=wrap;rounded=0;fontSize=12;fontColor=#000000;" vertex="1" parent="IgNBceZgo5YCVWrqHAvi-1">
          <mxGeometry x="880" y="90" width="160" height="30" as="geometry" />
        </mxCell>
        <mxCell id="FGZ26Xj6zOOTDwe__vaZ-1" style="edgeStyle=orthogonalEdgeStyle;rounded=0;orthogonalLoop=1;jettySize=auto;html=1;entryX=0;entryY=0.5;entryDx=0;entryDy=0;startArrow=none;startFill=0;fontSize=12;fontColor=#000000;" edge="1" parent="IgNBceZgo5YCVWrqHAvi-1" source="XAIqfjTwNXTH4v37vmBp-15" target="gxaHQdBIvglhpzLvduGO-0">
          <mxGeometry relative="1" as="geometry" />
        </mxCell>
        <mxCell id="FGZ26Xj6zOOTDwe__vaZ-4" value="Y" style="text;html=1;align=center;verticalAlign=middle;resizable=0;points=[];labelBackgroundColor=#ffffff;fontSize=12;fontColor=#000000;" vertex="1" connectable="0" parent="FGZ26Xj6zOOTDwe__vaZ-1">
          <mxGeometry x="-0.8278" relative="1" as="geometry">
            <mxPoint as="offset" />
          </mxGeometry>
        </mxCell>
        <mxCell id="FGZ26Xj6zOOTDwe__vaZ-7" style="edgeStyle=orthogonalEdgeStyle;rounded=0;orthogonalLoop=1;jettySize=auto;html=1;entryX=0.5;entryY=0;entryDx=0;entryDy=0;entryPerimeter=0;startArrow=none;startFill=0;fontSize=12;fontColor=#000000;" edge="1" parent="IgNBceZgo5YCVWrqHAvi-1" source="XAIqfjTwNXTH4v37vmBp-15" target="VNu92oFa3BAU21jCof-o-0">
          <mxGeometry relative="1" as="geometry">
            <Array as="points">
              <mxPoint x="850" y="640" />
              <mxPoint x="130" y="640" />
            </Array>
          </mxGeometry>
        </mxCell>
        <mxCell id="FGZ26Xj6zOOTDwe__vaZ-8" value="N" style="text;html=1;align=center;verticalAlign=middle;resizable=0;points=[];labelBackgroundColor=#ffffff;fontSize=12;fontColor=#000000;" vertex="1" connectable="0" parent="FGZ26Xj6zOOTDwe__vaZ-7">
          <mxGeometry x="-0.9032" y="-2" relative="1" as="geometry">
            <mxPoint as="offset" />
          </mxGeometry>
        </mxCell>
        <mxCell id="XAIqfjTwNXTH4v37vmBp-15" value="是否有数据库变化" style="strokeWidth=2;html=1;shape=mxgraph.flowchart.decision;whiteSpace=wrap;fontSize=12;fontColor=#000000;" vertex="1" parent="IgNBceZgo5YCVWrqHAvi-1">
          <mxGeometry x="800" y="400" width="100" height="100" as="geometry" />
        </mxCell>
        <mxCell id="gxaHQdBIvglhpzLvduGO-0" value="创建构建及发布单" style="rounded=1;whiteSpace=wrap;html=1;absoluteArcSize=1;arcSize=14;strokeWidth=2;fontSize=12;fontColor=#000000;" vertex="1" parent="IgNBceZgo5YCVWrqHAvi-1">
          <mxGeometry x="960" y="560" width="100" height="100" as="geometry" />
        </mxCell>
      </root>
    </mxGraphModel>
  </diagram>
  <diagram id="-7_z7egiKVjltP-u0qbR" name="跨网部署_part3">
    <mxGraphModel dx="1353" dy="926" grid="1" gridSize="10" guides="1" tooltips="1" connect="1" arrows="1" fold="1" page="1" pageScale="1" pageWidth="1534" pageHeight="1141" math="0" shadow="0">
      <root>
        <mxCell id="5JV-dZaA1MjxJ0jfN4Db-0" />
        <mxCell id="5JV-dZaA1MjxJ0jfN4Db-1" parent="5JV-dZaA1MjxJ0jfN4Db-0" />
        <mxCell id="wdAG288haTtKaqlVZG7A-0" style="edgeStyle=orthogonalEdgeStyle;rounded=0;orthogonalLoop=1;jettySize=auto;html=1;startArrow=none;startFill=0;fontSize=12;fontColor=#000000;" edge="1" parent="5JV-dZaA1MjxJ0jfN4Db-1" source="I46i5xdZz3l4WIKokq_w-0" target="I46i5xdZz3l4WIKokq_w-1">
          <mxGeometry relative="1" as="geometry" />
        </mxCell>
        <mxCell id="I46i5xdZz3l4WIKokq_w-0" value="" style="aspect=fixed;html=1;points=[];align=center;image;fontSize=12;image=img/lib/mscae/SchedulerJobCollection.svg;" vertex="1" parent="5JV-dZaA1MjxJ0jfN4Db-1">
          <mxGeometry x="40" y="158.5" width="50" height="43" as="geometry" />
        </mxCell>
        <mxCell id="wdAG288haTtKaqlVZG7A-2" style="edgeStyle=orthogonalEdgeStyle;rounded=0;orthogonalLoop=1;jettySize=auto;html=1;startArrow=none;startFill=0;fontSize=12;fontColor=#000000;" edge="1" parent="5JV-dZaA1MjxJ0jfN4Db-1" source="I46i5xdZz3l4WIKokq_w-1" target="wdAG288haTtKaqlVZG7A-1">
          <mxGeometry relative="1" as="geometry" />
        </mxCell>
        <mxCell id="I46i5xdZz3l4WIKokq_w-1" value="开始生成部署单" style="strokeWidth=2;html=1;shape=mxgraph.flowchart.start_1;whiteSpace=wrap;fontSize=12;fontColor=#000000;" vertex="1" parent="5JV-dZaA1MjxJ0jfN4Db-1">
          <mxGeometry x="160" y="150" width="100" height="60" as="geometry" />
        </mxCell>
        <mxCell id="w4cnbaAAhrnjH4qD-igk-6" value="" style="edgeStyle=orthogonalEdgeStyle;rounded=0;orthogonalLoop=1;jettySize=auto;html=1;startArrow=none;startFill=0;fontSize=12;fontColor=#000000;" edge="1" parent="5JV-dZaA1MjxJ0jfN4Db-1" source="wdAG288haTtKaqlVZG7A-1" target="w4cnbaAAhrnjH4qD-igk-5">
          <mxGeometry relative="1" as="geometry" />
        </mxCell>
        <mxCell id="wdAG288haTtKaqlVZG7A-1" value="查询发布单" style="rounded=1;whiteSpace=wrap;html=1;absoluteArcSize=1;arcSize=14;strokeWidth=2;fontSize=12;fontColor=#000000;" vertex="1" parent="5JV-dZaA1MjxJ0jfN4Db-1">
          <mxGeometry x="160" y="270" width="100" height="100" as="geometry" />
        </mxCell>
        <mxCell id="w4cnbaAAhrnjH4qD-igk-11" style="edgeStyle=orthogonalEdgeStyle;rounded=0;orthogonalLoop=1;jettySize=auto;html=1;entryX=0;entryY=0.5;entryDx=0;entryDy=0;entryPerimeter=0;startArrow=none;startFill=0;fontSize=12;fontColor=#000000;" edge="1" parent="5JV-dZaA1MjxJ0jfN4Db-1" source="w4cnbaAAhrnjH4qD-igk-5" target="w4cnbaAAhrnjH4qD-igk-8">
          <mxGeometry relative="1" as="geometry" />
        </mxCell>
        <mxCell id="w4cnbaAAhrnjH4qD-igk-5" value="创建部署单，发布沙箱" style="rounded=1;whiteSpace=wrap;html=1;absoluteArcSize=1;arcSize=14;strokeWidth=2;fontSize=12;fontColor=#000000;" vertex="1" parent="5JV-dZaA1MjxJ0jfN4Db-1">
          <mxGeometry x="320" y="270" width="100" height="100" as="geometry" />
        </mxCell>
        <mxCell id="w4cnbaAAhrnjH4qD-igk-0" value="" style="endArrow=none;dashed=1;html=1;fontSize=12;fontColor=#000000;" edge="1" parent="5JV-dZaA1MjxJ0jfN4Db-1">
          <mxGeometry width="50" height="50" relative="1" as="geometry">
            <mxPoint x="40" y="120" as="sourcePoint" />
            <mxPoint x="1000" y="120" as="targetPoint" />
          </mxGeometry>
        </mxCell>
        <mxCell id="w4cnbaAAhrnjH4qD-igk-1" value="创建部署单" style="rounded=1;whiteSpace=wrap;html=1;absoluteArcSize=1;arcSize=14;strokeWidth=2;fontSize=12;fontColor=#000000;" vertex="1" parent="5JV-dZaA1MjxJ0jfN4Db-1">
          <mxGeometry x="320" y="600" width="100" height="100" as="geometry" />
        </mxCell>
        <mxCell id="w4cnbaAAhrnjH4qD-igk-9" style="edgeStyle=orthogonalEdgeStyle;rounded=0;orthogonalLoop=1;jettySize=auto;html=1;entryX=0.5;entryY=0;entryDx=0;entryDy=0;entryPerimeter=0;startArrow=none;startFill=0;fontSize=12;fontColor=#000000;" edge="1" parent="5JV-dZaA1MjxJ0jfN4Db-1" source="w4cnbaAAhrnjH4qD-igk-7" target="w4cnbaAAhrnjH4qD-igk-8">
          <mxGeometry relative="1" as="geometry" />
        </mxCell>
        <mxCell id="w4cnbaAAhrnjH4qD-igk-7" value="" style="verticalLabelPosition=bottom;verticalAlign=top;html=1;shape=mxgraph.basic.tick;fontSize=12;fontColor=#000000;" vertex="1" parent="5JV-dZaA1MjxJ0jfN4Db-1">
          <mxGeometry x="487.5" y="40" width="85" height="100" as="geometry" />
        </mxCell>
        <mxCell id="w4cnbaAAhrnjH4qD-igk-13" style="edgeStyle=orthogonalEdgeStyle;rounded=0;orthogonalLoop=1;jettySize=auto;html=1;startArrow=none;startFill=0;fontSize=12;fontColor=#000000;" edge="1" parent="5JV-dZaA1MjxJ0jfN4Db-1" source="w4cnbaAAhrnjH4qD-igk-8" target="w4cnbaAAhrnjH4qD-igk-12">
          <mxGeometry relative="1" as="geometry" />
        </mxCell>
        <mxCell id="w4cnbaAAhrnjH4qD-igk-8" value="触发下一步" style="strokeWidth=2;html=1;shape=mxgraph.flowchart.delay;whiteSpace=wrap;fontSize=12;fontColor=#000000;" vertex="1" parent="5JV-dZaA1MjxJ0jfN4Db-1">
          <mxGeometry x="480" y="290" width="100" height="60" as="geometry" />
        </mxCell>
        <mxCell id="w4cnbaAAhrnjH4qD-igk-10" value="1. 已经创建好测试库表&lt;br&gt;2. 已经创建好测试Naocs配置" style="text;html=1;strokeColor=none;fillColor=none;align=left;verticalAlign=middle;whiteSpace=wrap;rounded=0;fontSize=12;fontColor=#000000;" vertex="1" parent="5JV-dZaA1MjxJ0jfN4Db-1">
          <mxGeometry x="285" y="201.5" width="170" height="50" as="geometry" />
        </mxCell>
        <mxCell id="w4cnbaAAhrnjH4qD-igk-18" style="edgeStyle=orthogonalEdgeStyle;rounded=0;orthogonalLoop=1;jettySize=auto;html=1;entryX=0;entryY=0.5;entryDx=0;entryDy=0;entryPerimeter=0;startArrow=none;startFill=0;fontSize=12;fontColor=#000000;" edge="1" parent="5JV-dZaA1MjxJ0jfN4Db-1" source="w4cnbaAAhrnjH4qD-igk-12" target="w4cnbaAAhrnjH4qD-igk-17">
          <mxGeometry relative="1" as="geometry" />
        </mxCell>
        <mxCell id="w4cnbaAAhrnjH4qD-igk-12" value="创建部署单，发布预发" style="rounded=1;whiteSpace=wrap;html=1;absoluteArcSize=1;arcSize=14;strokeWidth=2;fontSize=12;fontColor=#000000;" vertex="1" parent="5JV-dZaA1MjxJ0jfN4Db-1">
          <mxGeometry x="640" y="270" width="100" height="100" as="geometry" />
        </mxCell>
        <mxCell id="w4cnbaAAhrnjH4qD-igk-14" value="1. 已经创建好线上表&lt;br&gt;2. 已经创建好预发Naocs配置" style="text;html=1;strokeColor=none;fillColor=none;align=left;verticalAlign=middle;whiteSpace=wrap;rounded=0;fontSize=12;fontColor=#000000;" vertex="1" parent="5JV-dZaA1MjxJ0jfN4Db-1">
          <mxGeometry x="605" y="201.5" width="170" height="48.5" as="geometry" />
        </mxCell>
        <mxCell id="w4cnbaAAhrnjH4qD-igk-15" style="edgeStyle=orthogonalEdgeStyle;rounded=0;orthogonalLoop=1;jettySize=auto;html=1;entryX=0.5;entryY=0;entryDx=0;entryDy=0;entryPerimeter=0;startArrow=none;startFill=0;fontSize=12;fontColor=#000000;" edge="1" parent="5JV-dZaA1MjxJ0jfN4Db-1" source="w4cnbaAAhrnjH4qD-igk-16" target="w4cnbaAAhrnjH4qD-igk-17">
          <mxGeometry relative="1" as="geometry" />
        </mxCell>
        <mxCell id="w4cnbaAAhrnjH4qD-igk-16" value="" style="verticalLabelPosition=bottom;verticalAlign=top;html=1;shape=mxgraph.basic.tick;fontSize=12;fontColor=#000000;" vertex="1" parent="5JV-dZaA1MjxJ0jfN4Db-1">
          <mxGeometry x="807.5" y="40" width="85" height="100" as="geometry" />
        </mxCell>
        <mxCell id="w4cnbaAAhrnjH4qD-igk-21" style="edgeStyle=orthogonalEdgeStyle;rounded=0;orthogonalLoop=1;jettySize=auto;html=1;startArrow=none;startFill=0;fontSize=12;fontColor=#000000;" edge="1" parent="5JV-dZaA1MjxJ0jfN4Db-1" source="w4cnbaAAhrnjH4qD-igk-17" target="w4cnbaAAhrnjH4qD-igk-20">
          <mxGeometry relative="1" as="geometry" />
        </mxCell>
        <mxCell id="w4cnbaAAhrnjH4qD-igk-17" value="触发下一步" style="strokeWidth=2;html=1;shape=mxgraph.flowchart.delay;whiteSpace=wrap;fontSize=12;fontColor=#000000;" vertex="1" parent="5JV-dZaA1MjxJ0jfN4Db-1">
          <mxGeometry x="800" y="290" width="100" height="60" as="geometry" />
        </mxCell>
        <mxCell id="w4cnbaAAhrnjH4qD-igk-19" value="1. 已经创建好线上（相应云）Naocs配置" style="text;html=1;fontSize=12;fontColor=#000000;" vertex="1" parent="5JV-dZaA1MjxJ0jfN4Db-1">
          <mxGeometry x="920" y="211.5" width="180" height="30" as="geometry" />
        </mxCell>
        <mxCell id="LpZ6Fl4dLRDX6-q2q0nW-0" style="edgeStyle=orthogonalEdgeStyle;rounded=0;orthogonalLoop=1;jettySize=auto;html=1;startArrow=none;startFill=0;fontSize=12;fontColor=#000000;entryX=1;entryY=0.5;entryDx=0;entryDy=0;" edge="1" parent="5JV-dZaA1MjxJ0jfN4Db-1" source="w4cnbaAAhrnjH4qD-igk-20" target="LpZ6Fl4dLRDX6-q2q0nW-2">
          <mxGeometry relative="1" as="geometry">
            <mxPoint x="690" y="490" as="targetPoint" />
          </mxGeometry>
        </mxCell>
        <mxCell id="w4cnbaAAhrnjH4qD-igk-20" value="规则链" style="rounded=1;whiteSpace=wrap;html=1;absoluteArcSize=1;arcSize=14;strokeWidth=2;fontSize=12;fontColor=#000000;" vertex="1" parent="5JV-dZaA1MjxJ0jfN4Db-1">
          <mxGeometry x="800" y="440" width="100" height="100" as="geometry" />
        </mxCell>
        <mxCell id="PE9rUsKuXf1FNYHedwu_-1" style="edgeStyle=orthogonalEdgeStyle;rounded=0;orthogonalLoop=1;jettySize=auto;html=1;entryX=1;entryY=0.5;entryDx=0;entryDy=0;entryPerimeter=0;startArrow=none;startFill=0;fontSize=12;fontColor=#000000;" edge="1" parent="5JV-dZaA1MjxJ0jfN4Db-1" source="LpZ6Fl4dLRDX6-q2q0nW-2" target="PE9rUsKuXf1FNYHedwu_-0">
          <mxGeometry relative="1" as="geometry" />
        </mxCell>
        <mxCell id="LpZ6Fl4dLRDX6-q2q0nW-2" value="&lt;span style=&quot;text-align: left ; white-space: nowrap&quot;&gt;查询block部署单任务&lt;/span&gt;" style="rounded=1;whiteSpace=wrap;html=1;absoluteArcSize=1;arcSize=14;strokeWidth=2;fontSize=12;fontColor=#000000;" vertex="1" parent="5JV-dZaA1MjxJ0jfN4Db-1">
          <mxGeometry x="640" y="440" width="100" height="100" as="geometry" />
        </mxCell>
        <mxCell id="2Oi10ghDntcMUaGadN6O-1" style="edgeStyle=orthogonalEdgeStyle;rounded=0;orthogonalLoop=1;jettySize=auto;html=1;entryX=1;entryY=0.5;entryDx=0;entryDy=0;startArrow=none;startFill=0;fontSize=12;fontColor=#000000;" edge="1" parent="5JV-dZaA1MjxJ0jfN4Db-1" source="PE9rUsKuXf1FNYHedwu_-0" target="2Oi10ghDntcMUaGadN6O-0">
          <mxGeometry relative="1" as="geometry" />
        </mxCell>
        <mxCell id="PE9rUsKuXf1FNYHedwu_-0" value="是否需要进入block任务等待" style="strokeWidth=2;html=1;shape=mxgraph.flowchart.decision;whiteSpace=wrap;fontSize=12;fontColor=#000000;" vertex="1" parent="5JV-dZaA1MjxJ0jfN4Db-1">
          <mxGeometry x="472.5" y="440" width="100" height="100" as="geometry" />
        </mxCell>
        <mxCell id="8CLIWKR3k9zpTyfNmTIf-0" style="edgeStyle=orthogonalEdgeStyle;rounded=0;orthogonalLoop=1;jettySize=auto;html=1;startArrow=none;startFill=0;fontSize=12;fontColor=#000000;" edge="1" parent="5JV-dZaA1MjxJ0jfN4Db-1" source="2Oi10ghDntcMUaGadN6O-0" target="w4cnbaAAhrnjH4qD-igk-1">
          <mxGeometry relative="1" as="geometry" />
        </mxCell>
        <mxCell id="2Oi10ghDntcMUaGadN6O-0" value="存储block任务&lt;br&gt;等待定时任务捞取" style="rounded=1;whiteSpace=wrap;html=1;absoluteArcSize=1;arcSize=14;strokeWidth=2;fontSize=12;fontColor=#000000;" vertex="1" parent="5JV-dZaA1MjxJ0jfN4Db-1">
          <mxGeometry x="320" y="440" width="100" height="100" as="geometry" />
        </mxCell>
        <mxCell id="2Oi10ghDntcMUaGadN6O-3" style="edgeStyle=orthogonalEdgeStyle;rounded=0;orthogonalLoop=1;jettySize=auto;html=1;entryX=0;entryY=0.5;entryDx=0;entryDy=0;startArrow=none;startFill=0;fontSize=12;fontColor=#000000;" edge="1" parent="5JV-dZaA1MjxJ0jfN4Db-1" source="2Oi10ghDntcMUaGadN6O-2" target="2Oi10ghDntcMUaGadN6O-0">
          <mxGeometry relative="1" as="geometry" />
        </mxCell>
        <mxCell id="2Oi10ghDntcMUaGadN6O-2" value="" style="aspect=fixed;html=1;points=[];align=center;image;fontSize=12;image=img/lib/mscae/SchedulerJobCollection.svg;" vertex="1" parent="5JV-dZaA1MjxJ0jfN4Db-1">
          <mxGeometry x="200" y="468.5" width="50" height="43" as="geometry" />
        </mxCell>
        <mxCell id="8CLIWKR3k9zpTyfNmTIf-1" value="手工确认验证通过" style="text;html=1;strokeColor=none;fillColor=none;align=center;verticalAlign=middle;whiteSpace=wrap;rounded=0;fontSize=12;fontColor=#000000;" vertex="1" parent="5JV-dZaA1MjxJ0jfN4Db-1">
          <mxGeometry x="600" y="60" width="200" height="20" as="geometry" />
        </mxCell>
      </root>
    </mxGraphModel>
  </diagram>
  <diagram id="qHbUlhpqNc0Q00aLtpc_" name="第 15 页">
    <mxGraphModel dx="947" dy="648" grid="1" gridSize="10" guides="1" tooltips="1" connect="1" arrows="1" fold="1" page="1" pageScale="1" pageWidth="1534" pageHeight="1141" math="0" shadow="0">
      <root>
        <mxCell id="sLJuUBikNKN4k4g0GMPA-0" />
        <mxCell id="sLJuUBikNKN4k4g0GMPA-1" parent="sLJuUBikNKN4k4g0GMPA-0" />
        <mxCell id="xA7RMugdga6miqJAKDNy-0" value="" style="rounded=1;whiteSpace=wrap;html=1;fontSize=12;fontColor=#000000;" vertex="1" parent="sLJuUBikNKN4k4g0GMPA-1">
          <mxGeometry x="520" y="500" width="160" height="300" as="geometry" />
        </mxCell>
        <mxCell id="xA7RMugdga6miqJAKDNy-1" value="" style="edgeStyle=orthogonalEdgeStyle;rounded=0;orthogonalLoop=1;jettySize=auto;html=1;startArrow=none;startFill=0;fontSize=12;fontColor=#000000;" edge="1" parent="sLJuUBikNKN4k4g0GMPA-1" source="xA7RMugdga6miqJAKDNy-2" target="xA7RMugdga6miqJAKDNy-3">
          <mxGeometry relative="1" as="geometry" />
        </mxCell>
        <mxCell id="xA7RMugdga6miqJAKDNy-2" value="&lt;span style=&quot;white-space: normal&quot;&gt;获取最新数据库建表语句&lt;/span&gt;" style="rounded=1;whiteSpace=wrap;html=1;absoluteArcSize=1;arcSize=14;strokeWidth=2;fontSize=12;fontColor=#000000;" vertex="1" parent="sLJuUBikNKN4k4g0GMPA-1">
          <mxGeometry x="560" y="520" width="100" height="100" as="geometry" />
        </mxCell>
        <mxCell id="xA7RMugdga6miqJAKDNy-3" value="配置表初始化数据" style="rounded=1;whiteSpace=wrap;html=1;absoluteArcSize=1;arcSize=14;strokeWidth=2;fontSize=12;fontColor=#000000;" vertex="1" parent="sLJuUBikNKN4k4g0GMPA-1">
          <mxGeometry x="560" y="680" width="100" height="100" as="geometry" />
        </mxCell>
        <mxCell id="xA7RMugdga6miqJAKDNy-4" value="中心线上库" style="text;html=1;strokeColor=none;fillColor=none;align=center;verticalAlign=middle;whiteSpace=wrap;rounded=0;fontSize=12;fontColor=#000000;" vertex="1" parent="sLJuUBikNKN4k4g0GMPA-1">
          <mxGeometry x="530" y="640" width="70" height="20" as="geometry" />
        </mxCell>
        <mxCell id="CvdW7XvhMd8Ze2oKQuXS-10" style="edgeStyle=orthogonalEdgeStyle;rounded=0;orthogonalLoop=1;jettySize=auto;html=1;startArrow=none;startFill=0;fontSize=12;fontColor=#000000;" edge="1" parent="sLJuUBikNKN4k4g0GMPA-1" source="sLJuUBikNKN4k4g0GMPA-2" target="CvdW7XvhMd8Ze2oKQuXS-9">
          <mxGeometry relative="1" as="geometry" />
        </mxCell>
        <mxCell id="sLJuUBikNKN4k4g0GMPA-2" value="创建部署单" style="strokeWidth=2;html=1;shape=mxgraph.flowchart.start_1;whiteSpace=wrap;fontSize=12;fontColor=#000000;align=center;" vertex="1" parent="sLJuUBikNKN4k4g0GMPA-1">
          <mxGeometry x="560" y="80" width="100" height="60" as="geometry" />
        </mxCell>
        <mxCell id="CvdW7XvhMd8Ze2oKQuXS-1" value="Y" style="edgeStyle=orthogonalEdgeStyle;rounded=0;orthogonalLoop=1;jettySize=auto;html=1;entryX=0.5;entryY=0;entryDx=0;entryDy=0;startArrow=none;startFill=0;fontSize=12;fontColor=#000000;" edge="1" parent="sLJuUBikNKN4k4g0GMPA-1" source="dF9pFVPL4gPZ6WqGiYts-0" target="CvdW7XvhMd8Ze2oKQuXS-0">
          <mxGeometry relative="1" as="geometry" />
        </mxCell>
        <mxCell id="dF9pFVPL4gPZ6WqGiYts-0" value="是否沙箱" style="strokeWidth=2;html=1;shape=mxgraph.flowchart.decision;whiteSpace=wrap;fontSize=12;fontColor=#000000;align=center;" vertex="1" parent="sLJuUBikNKN4k4g0GMPA-1">
          <mxGeometry x="80" y="160" width="100" height="100" as="geometry" />
        </mxCell>
        <mxCell id="CvdW7XvhMd8Ze2oKQuXS-4" style="edgeStyle=orthogonalEdgeStyle;rounded=0;orthogonalLoop=1;jettySize=auto;html=1;entryX=0.5;entryY=0;entryDx=0;entryDy=0;startArrow=none;startFill=0;fontSize=12;fontColor=#000000;" edge="1" parent="sLJuUBikNKN4k4g0GMPA-1" source="dF9pFVPL4gPZ6WqGiYts-2" target="CvdW7XvhMd8Ze2oKQuXS-0">
          <mxGeometry relative="1" as="geometry">
            <Array as="points">
              <mxPoint x="300" y="280" />
              <mxPoint x="130" y="280" />
            </Array>
          </mxGeometry>
        </mxCell>
        <mxCell id="dF9pFVPL4gPZ6WqGiYts-2" value="是否预发" style="strokeWidth=2;html=1;shape=mxgraph.flowchart.decision;whiteSpace=wrap;fontSize=12;fontColor=#000000;align=center;" vertex="1" parent="sLJuUBikNKN4k4g0GMPA-1">
          <mxGeometry x="250" y="160" width="100" height="100" as="geometry" />
        </mxCell>
        <mxCell id="CvdW7XvhMd8Ze2oKQuXS-5" style="edgeStyle=orthogonalEdgeStyle;rounded=0;orthogonalLoop=1;jettySize=auto;html=1;entryX=0.5;entryY=0;entryDx=0;entryDy=0;startArrow=none;startFill=0;fontSize=12;fontColor=#000000;" edge="1" parent="sLJuUBikNKN4k4g0GMPA-1" source="dF9pFVPL4gPZ6WqGiYts-3" target="CvdW7XvhMd8Ze2oKQuXS-0">
          <mxGeometry relative="1" as="geometry">
            <Array as="points">
              <mxPoint x="470" y="280" />
              <mxPoint x="130" y="280" />
            </Array>
          </mxGeometry>
        </mxCell>
        <mxCell id="dF9pFVPL4gPZ6WqGiYts-3" value="是否中心" style="strokeWidth=2;html=1;shape=mxgraph.flowchart.decision;whiteSpace=wrap;fontSize=12;fontColor=#000000;align=center;" vertex="1" parent="sLJuUBikNKN4k4g0GMPA-1">
          <mxGeometry x="420" y="160" width="100" height="100" as="geometry" />
        </mxCell>
        <mxCell id="CvdW7XvhMd8Ze2oKQuXS-0" value="肯定是只有镜像的构建" style="rounded=1;whiteSpace=wrap;html=1;absoluteArcSize=1;arcSize=14;strokeWidth=2;fontSize=12;fontColor=#000000;align=center;" vertex="1" parent="sLJuUBikNKN4k4g0GMPA-1">
          <mxGeometry x="80" y="320" width="100" height="100" as="geometry" />
        </mxCell>
        <mxCell id="CvdW7XvhMd8Ze2oKQuXS-2" value="" style="verticalLabelPosition=bottom;verticalAlign=top;html=1;shape=mxgraph.flowchart.summing_function;fontSize=12;fontColor=#000000;align=left;" vertex="1" parent="sLJuUBikNKN4k4g0GMPA-1">
          <mxGeometry x="180" y="175" width="70" height="70" as="geometry" />
        </mxCell>
        <mxCell id="CvdW7XvhMd8Ze2oKQuXS-3" value="" style="verticalLabelPosition=bottom;verticalAlign=top;html=1;shape=mxgraph.flowchart.summing_function;fontSize=12;fontColor=#000000;align=left;" vertex="1" parent="sLJuUBikNKN4k4g0GMPA-1">
          <mxGeometry x="350" y="175" width="70" height="70" as="geometry" />
        </mxCell>
        <mxCell id="CvdW7XvhMd8Ze2oKQuXS-12" style="edgeStyle=orthogonalEdgeStyle;rounded=0;orthogonalLoop=1;jettySize=auto;html=1;startArrow=none;startFill=0;fontSize=12;fontColor=#000000;" edge="1" parent="sLJuUBikNKN4k4g0GMPA-1" source="CvdW7XvhMd8Ze2oKQuXS-9">
          <mxGeometry relative="1" as="geometry">
            <mxPoint x="610" y="360" as="targetPoint" />
          </mxGeometry>
        </mxCell>
        <mxCell id="CvdW7XvhMd8Ze2oKQuXS-9" value="查询block构建时序" style="rounded=1;whiteSpace=wrap;html=1;absoluteArcSize=1;arcSize=14;strokeWidth=2;fontSize=12;fontColor=#000000;align=center;" vertex="1" parent="sLJuUBikNKN4k4g0GMPA-1">
          <mxGeometry x="560" y="200" width="100" height="100" as="geometry" />
        </mxCell>
        <mxCell id="qpZHX54fFZ4p4Ok5cRRv-2" style="edgeStyle=orthogonalEdgeStyle;rounded=0;orthogonalLoop=1;jettySize=auto;html=1;entryX=0.5;entryY=0;entryDx=0;entryDy=0;startArrow=none;startFill=0;fontSize=12;fontColor=#000000;" edge="1" parent="sLJuUBikNKN4k4g0GMPA-1" source="qpZHX54fFZ4p4Ok5cRRv-0" target="xA7RMugdga6miqJAKDNy-2">
          <mxGeometry relative="1" as="geometry">
            <mxPoint x="610" y="521" as="targetPoint" />
          </mxGeometry>
        </mxCell>
        <mxCell id="qpZHX54fFZ4p4Ok5cRRv-0" value="如果未部署过" style="strokeWidth=2;html=1;shape=mxgraph.flowchart.decision;whiteSpace=wrap;fontSize=12;fontColor=#000000;align=center;" vertex="1" parent="sLJuUBikNKN4k4g0GMPA-1">
          <mxGeometry x="560" y="360" width="100" height="100" as="geometry" />
        </mxCell>
      </root>
    </mxGraphModel>
  </diagram>
</mxfile>
